<?xml version="1.0" encoding="utf-8"?>
<!-- Generator: Adobe Illustrator 24.1.3, SVG Export Plug-In . SVG Version: 6.00 Build 0)  -->
<svg version="1.1"
	 id="svg795" xmlns:cc="http://creativecommons.org/ns#" xmlns:dc="http://purl.org/dc/elements/1.1/" xmlns:inkscape="http://www.inkscape.org/namespaces/inkscape" xmlns:rdf="http://www.w3.org/1999/02/22-rdf-syntax-ns#" xmlns:sodipodi="http://sodipodi.sourceforge.net/DTD/sodipodi-0.dtd" xmlns:svg="http://www.w3.org/2000/svg"
	 xmlns="http://www.w3.org/2000/svg" xmlns:xlink="http://www.w3.org/1999/xlink" x="0px" y="0px" viewBox="0 0 65 21.2"
	 style="enable-background:new 0 0 65 21.2;" xml:space="preserve">
<style type="text/css">
	.st0{fill:#FFFFFF;}
</style>
<sodipodi:namedview  bordercolor="#666666" borderopacity="1.0" fit-margin-bottom="0" fit-margin-left="0" fit-margin-right="0" fit-margin-top="0" id="base" inkscape:current-layer="layer1" inkscape:cx="126.64372" inkscape:cy="-48.647984" inkscape:document-units="mm" inkscape:pageopacity="0.0" inkscape:pageshadow="2" inkscape:window-height="744" inkscape:window-maximized="1" inkscape:window-width="1280" inkscape:window-x="-4" inkscape:window-y="-4" inkscape:zoom="2.3964144" pagecolor="#ffffff" showgrid="false" units="px">
	</sodipodi:namedview>
<path id="path462" inkscape:connector-curvature="0" class="st0" d="M63.9,6.4c-0.6-1.7-2.2-2.8-4-2.8h0c-1.2,0-2.3,0.5-3.1,1.3
	C56,4,54.9,3.5,53.7,3.5h0c-1.1,0-2,0.4-2.8,1V4.2c0-0.3-0.3-0.6-0.6-0.6h-2.8c-0.3,0-0.6,0.3-0.6,0.6v15.4c0,0.3,0.3,0.6,0.6,0.6
	h2.8c0.3,0,0.6-0.2,0.6-0.5l0-11.1c0,0,0-0.1,0-0.1c0-0.5,0.4-0.9,1-0.9H52h0.3h0.1c0.2,0,0.4,0.1,0.6,0.2c0.2,0.2,0.4,0.5,0.4,0.8
	l0,11c0,0.3,0.3,0.6,0.6,0.6h2.8c0.3,0,0.6-0.3,0.6-0.6l0-11c0-0.4,0.2-0.7,0.5-0.9c0.1-0.1,0.3-0.2,0.5-0.2h0.1h0.3H59
	c0.6,0.1,1,0.5,1,1.1l0,11c0,0.3,0.3,0.6,0.6,0.6h2.8c0.3,0,0.6-0.3,0.6-0.6V7.9C64.1,7.1,64,6.7,63.9,6.4"/>
<path id="path466" inkscape:connector-curvature="0" class="st0" d="M44.7,3.7h-1.6V1.1l0,0c0,0,0,0,0,0c0-0.3-0.3-0.6-0.6-0.6
	c0,0-0.1,0-0.1,0c-1.8,0.5-1.4,3-4.7,3.2h-0.1h-0.2c0,0-0.1,0-0.1,0h0l0,0c-0.3,0.1-0.5,0.3-0.5,0.6v2.8c0,0.3,0.3,0.6,0.6,0.6h1.7
	l0,12c0,0.3,0.3,0.6,0.6,0.6h2.8c0.3,0,0.6-0.3,0.6-0.6l0-12h1.6c0.3,0,0.6-0.3,0.6-0.6V4.3C45.3,4,45,3.7,44.7,3.7"/>
<path id="path470" inkscape:connector-curvature="0" class="st0" d="M34.5,3.7h-2.8C31.3,3.7,31,4,31,4.3v5.9c0,0.4-0.3,0.7-0.7,0.7
	h-1.2c-0.4,0-0.7-0.3-0.7-0.7l0-5.9c0-0.3-0.3-0.6-0.6-0.6h-2.8c-0.3,0-0.6,0.3-0.6,0.6v6.4c0,2.4,1.7,4.2,4.2,4.2c0,0,1.8,0,1.9,0
	c0.3,0,0.6,0.3,0.6,0.7c0,0.3-0.3,0.6-0.6,0.7c0,0,0,0,0,0l-4.1,0c-0.3,0-0.6,0.3-0.6,0.6v2.8c0,0.3,0.3,0.6,0.6,0.6h4.6
	c2.4,0,4.2-1.7,4.2-4.2V4.3C35.1,4,34.8,3.7,34.5,3.7"/>
<path id="path474" inkscape:connector-curvature="0" class="st0" d="M7.1,8.9v1.3v0.4c0,0.4-0.3,0.7-0.7,0.7l-1.8,0V7.8h1.8
	c0.4,0,0.7,0.3,0.7,0.7V8.9z M7.3,3.7H1.1C0.8,3.7,0.5,4,0.5,4.3v2.8c0,0,0,0,0,0c0,0,0,0,0,0v8.9v3.7c0,0.3,0.3,0.6,0.6,0.6h0.1H4
	c0.3,0,0.6-0.3,0.6-0.6l0-4.3h2.7c2.3,0,3.9-1.6,3.9-3.9v-4C11.2,5.3,9.6,3.7,7.3,3.7"/>
<path id="path478" inkscape:connector-curvature="0" class="st0" d="M18.8,15.6V16c0,0,0,0.1,0,0.1c0,0,0,0.1,0,0.1
	c-0.1,0.2-0.3,0.4-0.6,0.4H17c-0.4,0-0.7-0.3-0.7-0.6v-0.5c0,0,0,0,0,0l0-1.4v0v-0.2v-0.3l0,0c0-0.3,0.3-0.6,0.7-0.6h1.2
	c0.4,0,0.7,0.3,0.7,0.6V15.6z M18.4,3.7h-3.9c-0.3,0-0.6,0.3-0.6,0.6v1.1c0,0,0,0,0,0c0,0,0,0,0,0V7c0,0.3,0.3,0.6,0.7,0.6h3.7
	c0.3,0,0.5,0.3,0.6,0.6v0.4c0,0.3-0.3,0.6-0.5,0.6h-1.9c-2.5,0-4.2,1.6-4.2,3.9v3.2v0.1c0,2.3,1.5,3.9,4,3.9h5.1
	c0.9,0,1.7-0.7,1.7-1.6V8C22.9,5.4,21.6,3.7,18.4,3.7"/>
</svg>
