<?xml version="1.0" encoding="utf-8"?>
<!-- Generator: Adobe Illustrator 24.2.0, SVG Export Plug-In . SVG Version: 6.00 Build 0)  -->
<svg version="1.1" id="Layer_1" xmlns="http://www.w3.org/2000/svg" xmlns:xlink="http://www.w3.org/1999/xlink" x="0px" y="0px"
	 viewBox="0 0 114 22" enable-background="new 0 0 114 22" xml:space="preserve">
<g>
	<g id="g460_1_" transform="translate(307.4396,29.9796)">
		<path id="path462_1_" fill="#54C1F0" d="M-193.73-24.1c-0.58-1.65-2.15-2.84-4-2.84h-0.04c-1.2,0-2.28,0.5-3.05,1.3
			c-0.77-0.8-1.85-1.3-3.05-1.3h-0.04c-1.06,0-2.02,0.39-2.76,1.03v-0.33c-0.03-0.32-0.29-0.58-0.62-0.58h-2.83
			c-0.35,0-0.63,0.28-0.63,0.63v15.39c0,0.35,0.28,0.63,0.63,0.63h2.83c0.32,0,0.58-0.24,0.62-0.54l0-11.05c0-0.04,0-0.07,0.01-0.11
			c0.05-0.49,0.41-0.9,0.98-0.95h0.11h0.3h0.12c0.24,0.02,0.44,0.11,0.6,0.23c0.25,0.2,0.38,0.5,0.38,0.83l0.01,11
			c0,0.35,0.28,0.63,0.63,0.63h2.83c0.33,0,0.61-0.27,0.62-0.6l0-11.04c0-0.36,0.17-0.69,0.46-0.89c0.15-0.09,0.32-0.16,0.52-0.17
			h0.11h0.3h0.12c0.61,0.05,0.98,0.52,0.98,1.06l0.01,10.98c0,0.35,0.28,0.63,0.63,0.63h2.83c0.35,0,0.63-0.28,0.63-0.63V-22.6
			C-193.52-23.41-193.61-23.75-193.73-24.1"/>
	</g>
	<g id="g464_1_" transform="translate(293.047,31.9845)">
		<path id="path466_1_" fill="#54C1F0" d="M-198.53-28.78h-1.62v-2.63l0,0c0,0,0-0.01,0-0.01c0-0.32-0.26-0.57-0.57-0.57
			c-0.04,0-0.07,0.01-0.11,0.01c-1.8,0.49-1.44,2.98-4.72,3.19h-0.07h-0.25c-0.05,0-0.09,0.01-0.14,0.02h0l0,0
			c-0.28,0.06-0.49,0.31-0.49,0.61v2.83c0,0.35,0.28,0.63,0.63,0.63h1.71l0,12.02c0,0.34,0.28,0.62,0.62,0.62h2.8
			c0.34,0,0.62-0.28,0.62-0.62l0-12.02h1.59c0.35,0,0.63-0.28,0.63-0.63v-2.83C-197.9-28.5-198.18-28.78-198.53-28.78"/>
	</g>
	<g id="g468_1_" transform="translate(285.3979,31.9845)">
		<path id="path470_1_" fill="#233266" d="M-201.08-28.78h-2.83c-0.35,0-0.63,0.28-0.63,0.63v5.86c-0.01,0.36-0.3,0.65-0.66,0.65
			h-1.19c-0.37,0-0.67-0.3-0.67-0.66l-0.01-5.85c0-0.35-0.28-0.63-0.63-0.63h-2.83c-0.35,0-0.63,0.28-0.63,0.63v6.42
			c0,2.44,1.74,4.18,4.18,4.18c0,0,1.83,0,1.89,0.01c0.33,0.04,0.59,0.31,0.59,0.66c0,0.34-0.25,0.61-0.58,0.65
			c-0.02,0-0.03,0.01-0.05,0.01l-4.15,0.01c-0.35,0-0.63,0.28-0.63,0.63v2.83c0,0.35,0.28,0.63,0.63,0.63h4.63
			c2.44,0,4.18-1.74,4.18-4.18v-11.86C-200.45-28.5-200.73-28.78-201.08-28.78"/>
	</g>
	<g id="g472_1_" transform="translate(264.8197,28.089)">
		<path id="path474_1_" fill="#233266" d="M-207.94-19.69v1.32v0.43c0,0.37-0.3,0.67-0.66,0.67l-1.8,0v-3.51h1.8
			c0.37,0,0.66,0.3,0.66,0.66V-19.69z M-207.69-24.88h-6.2c-0.34,0-0.61,0.28-0.61,0.61v2.78c0,0.01,0,0.01,0,0.02
			c0,0.01,0,0.03,0,0.04v8.91v3.66c0,0.34,0.26,0.62,0.57,0.63h0.05h2.83c0.35,0,0.63-0.28,0.63-0.63l0.01-4.31h2.71
			c2.27,0,3.85-1.57,3.85-3.85v-4C-203.84-23.3-205.42-24.88-207.69-24.88"/>
	</g>
	<g id="g476_1_" transform="translate(273.6408,23.0978)">
		<path id="path478_1_" fill="#233266" d="M-205-8.04v0.44c0,0.04-0.01,0.07-0.01,0.1c-0.01,0.03-0.02,0.06-0.03,0.09
			c-0.09,0.25-0.34,0.43-0.63,0.43h-1.18c-0.37,0-0.67-0.28-0.67-0.62v-0.53c0-0.01,0-0.01,0-0.02l0-1.42v0v-0.16v-0.29l0,0
			c0-0.34,0.3-0.62,0.67-0.62h1.18c0.37,0,0.67,0.28,0.67,0.62V-8.04z M-205.45-19.88h-3.93c-0.35,0-0.63,0.26-0.63,0.59v1.1
			c0,0.01,0,0.01,0,0.02c0,0.01,0,0.02,0,0.02v1.51c0,0.34,0.3,0.62,0.67,0.62h3.75c0.3,0.05,0.53,0.26,0.56,0.6v0.37
			c-0.03,0.32-0.27,0.56-0.55,0.58h-1.85c-2.47,0-4.22,1.64-4.22,3.94v3.21v0.08c0,2.29,1.51,3.92,3.96,3.92h5.14
			c0.92,0,1.67-0.7,1.67-1.56v-10.76C-200.89-18.23-202.23-19.88-205.45-19.88"/>
	</g>
	<g>
		<path fill="#233266" d="M4.73,5.34c0,0.75-0.24,1.32-0.73,1.71s-1.18,0.6-2.08,0.6H1.17v2.67H0V3.19h2.06c0.89,0,1.56,0.18,2,0.55
			S4.73,4.63,4.73,5.34z M1.17,6.67h0.62c0.6,0,1.04-0.1,1.32-0.31c0.28-0.21,0.42-0.53,0.42-0.98c0-0.41-0.13-0.72-0.38-0.92
			c-0.25-0.2-0.64-0.3-1.17-0.3H1.17V6.67z"/>
		<path fill="#233266" d="M12.49,6.75c0,1.16-0.29,2.07-0.87,2.71s-1.4,0.97-2.47,0.97c-1.08,0-1.91-0.32-2.48-0.96
			C6.09,8.82,5.8,7.91,5.8,6.74s0.29-2.08,0.87-2.71s1.41-0.95,2.49-0.95c1.06,0,1.88,0.32,2.46,0.96
			C12.2,4.68,12.49,5.58,12.49,6.75z M7.04,6.75c0,0.88,0.18,1.55,0.53,2C7.93,9.2,8.45,9.43,9.15,9.43c0.69,0,1.22-0.22,1.57-0.67
			c0.35-0.45,0.53-1.12,0.53-2.01c0-0.88-0.17-1.54-0.53-1.99C10.38,4.3,9.85,4.07,9.16,4.07c-0.7,0-1.23,0.23-1.58,0.68
			S7.04,5.87,7.04,6.75z"/>
		<path fill="#233266" d="M20.61,10.32h-1.27l-1.21-4.26c-0.05-0.19-0.12-0.45-0.2-0.8s-0.13-0.59-0.14-0.73
			c-0.03,0.21-0.09,0.48-0.16,0.81s-0.13,0.58-0.18,0.74l-1.18,4.24H15l-0.92-3.57l-0.94-3.56h1.19l1.02,4.16
			c0.16,0.67,0.27,1.26,0.34,1.77c0.04-0.28,0.09-0.59,0.16-0.93c0.07-0.34,0.14-0.62,0.2-0.83l1.16-4.17h1.16l1.19,4.19
			c0.11,0.39,0.23,0.97,0.36,1.74c0.05-0.47,0.17-1.06,0.35-1.78l1.02-4.15h1.18L20.61,10.32z"/>
		<path fill="#233266" d="M27.52,10.32h-4.04V3.19h4.04v0.99h-2.87v1.94h2.69v0.98h-2.69v2.24h2.87V10.32z"/>
		<path fill="#233266" d="M30.23,7.47v2.85h-1.17V3.19h2.02c0.92,0,1.6,0.17,2.05,0.52c0.44,0.35,0.66,0.87,0.66,1.56
			c0,0.89-0.46,1.52-1.39,1.9l2.02,3.16h-1.33l-1.71-2.85H30.23z M30.23,6.51h0.81c0.54,0,0.94-0.1,1.18-0.3s0.37-0.5,0.37-0.9
			c0-0.4-0.13-0.69-0.4-0.87S31.53,4.17,31,4.17h-0.77V6.51z"/>
		<path fill="#233266" d="M39.49,10.32h-4.04V3.19h4.04v0.99h-2.87v1.94h2.69v0.98h-2.69v2.24h2.87V10.32z"/>
		<path fill="#233266" d="M46.84,6.69c0,1.18-0.33,2.08-0.98,2.7s-1.6,0.94-2.83,0.94h-2V3.19h2.21c1.14,0,2.02,0.31,2.65,0.92
			C46.52,4.72,46.84,5.58,46.84,6.69z M45.61,6.73c0-1.71-0.8-2.56-2.4-2.56H42.2v5.18h0.83C44.75,9.34,45.61,8.47,45.61,6.73z"/>
		<path fill="#233266" d="M35.25,12.69h2.12c0.98,0,1.69,0.14,2.13,0.43c0.44,0.29,0.66,0.74,0.66,1.36c0,0.42-0.11,0.76-0.32,1.04
			s-0.52,0.45-0.93,0.52v0.05c0.5,0.09,0.87,0.28,1.11,0.56c0.24,0.28,0.35,0.66,0.35,1.13c0,0.64-0.22,1.14-0.67,1.51
			c-0.45,0.36-1.07,0.54-1.87,0.54h-2.58V12.69z M36.42,15.63h1.12c0.49,0,0.84-0.08,1.07-0.23c0.22-0.15,0.34-0.42,0.34-0.79
			c0-0.33-0.12-0.58-0.36-0.73c-0.24-0.15-0.63-0.22-1.16-0.22h-1.01V15.63z M36.42,16.58v2.26h1.24c0.49,0,0.86-0.09,1.11-0.28
			c0.25-0.19,0.37-0.48,0.37-0.89c0-0.37-0.13-0.65-0.38-0.83s-0.64-0.27-1.16-0.27H36.42z"/>
		<path fill="#233266" d="M43.87,15.94l1.69-3.26h1.27l-2.38,4.37v2.77h-1.17v-2.73l-2.37-4.41h1.27L43.87,15.94z"/>
	</g>
</g>
</svg>
