<svg xmlns="http://www.w3.org/2000/svg" width="64" height="64" viewBox="0 0 64 64" fill="#2E343D"><path d="M11,7.67l.07.4.12.51.19.72.5-.08h0l-.46.22,0,.24.07.53.06.53.05.53,0,.53,0,.54,0,.54v.54l0,.78v2.09l0,2.07,0,1L11.56,23l-.07,2.08,0,1.56v2.1l0,1,0,.5a.63.63,0,0,0,.19.49.67.67,0,0,0,.48.19,1,1,0,0,0,.52-.16,1.76,1.76,0,0,0,.44-.39.59.59,0,0,0,.06.14.76.76,0,0,0,.69.36h1.58l1.06,0,1.05,0,1.59.05,4.28.16,1.67,0,1.12,0,1.11-.06L28.46,31l1.12-.09,1.12-.12.5-.06,1.15.1.41,0h.65l.15,0,.17,0,.29-.09.5-.25.77-.67a3.05,3.05,0,0,0,.37-.51l.17-.31.11-.29.06-.23,0-.19,0-.17,0-.33,0-.34V26l0-.9L36,23.62,35.69,20l-.18-2.29,0-1v-.63L35,16h0l.5-.07-.44,0,.46-.06.23-2.15L35.87,12l.06-.81,0-.82,0-.61,0-.8V7.79l0-.36,0-.34,0-.33,0-.24-.06-.3-.07-.3-.09-.28-.06-.13-.06-.13-.1-.18L35.35,5l-.14-.13L35,4.78l-.17-.06-.15,0-.15,0-.3,0h-.86l-.66,0-1.54.07-.07.5L31,4.78V4.69h0v.06l0-.07L29.4,4.62l-5.58-.09H21.19l-1.85,0-1.41,0-1.76,0-1.35.07L14,4.76l-.53.06-.32.06L12.84,5a2,2,0,0,0-.28.11l-.08.05-.74.54-.56.78L11,6.89l0,.23V7.4Zm18.46.38h.19l2-.08h.55l.36,0,0,0,0,.09,0,.36,0,.25,0,.28,0,.3v1.37l0,.94-.06.78-.06.78-.13,1.31L32.07,17l.48.14h0l-.49,0,0,.25v.42l-1.69-.23-3.57-.15H26l.07-5.86v-.76l0-1.52-.14-1.31,2,.05ZM25.5,27l.1-.31.09-.33.07-.32,0-.31,0-.31,0-.32,0-.46,0-.6V22.14l0-1.49,3.28-.2,2.64-.33.25,0,.32,4.2.13,2,0,.95h-.17l-.53.07-1.06.11-1.08.09-1.08.07-1.08.06-2.43.11.14-.32ZM14.73,11.05v-.58l0-.59,0-.58-.05-.59-.06-.57,0-.29.68,0H18l3.3,0,1.58,0-.22,1.37-.1,1.58v1.47l.06,5.09h-.7l-3.7,0-2.64.26L14.41,18l.15-1.62.07-1.1,0-1.09,0-1.1v-2ZM13.45,28.2l.07-1.07.09-1.07.15-1.61L14,22.3l.19-1.74.26.08,2.41.22,3.67-.05,2.17-.06,0,2.72,0,.42,0,.41.15,1.57,0,.59v.44l0,.47h0v.11l-.09.39-2.5.18-1.71.13-1.16.11-1.15.12-1.15.13-.54.07a1.77,1.77,0,0,0-1.19.76Z"/><path d="M61.5,20.38v-.11l0-.21-.08-.32L61.16,19l-.28-.8-.63-1.66-1.17-3-.47.18.41-.34-.47.18.42-.31-.47.16.42-.3-.19.05.19-.07-.5.1h0l.46-.22-1-4.37-.34-1.39-.19-.67-.12-.36-.1-.25-.09-.15L57,5.69l-.09-.1-.13-.1-.17-.09-.19-.06-.14,0-.13,0-.27,0h-.29l-.63,0-.85.07-.41,0-.88.13-1.42.21-5,.85a1.19,1.19,0,0,0-.08-.16.75.75,0,0,0-.64-.33.83.83,0,0,0-.22,0,1.86,1.86,0,0,0-1,.74h-.06a1.37,1.37,0,0,0-1,.69.87.87,0,0,0-.07.86.58.58,0,0,0,.2.21L41,13.23l-.48.95-.44.94L39.27,17l-.43,1-.65,1.58-.34.91-.2.6-.1.37-.08.36,0,.18v.45l0,.22.09.21a1,1,0,0,0,.25.31l0,0,.3.14.27,0h.26l.53,0,3.14-.28,0-.5h0l.11.49,5,.14-.05.15-.14,1v.86l0,.85,0,.84.16,2.93.16,1.65.22,1.59L47.53,33l-.43-.09-.45-.09-.45-.08-.45-.07-.46-.06-.93-.1-1-.08-.72-.05-1,0-1,0H37.92l-5.19.09h-1l-.57,0-.49,0-.42,0-.52-.05-.89,0-1.41,0h-2l-1.7,0-1.6.06-1.64.09-.82.06-.82.06-.81.07-.8.08-.58.06-1.15.15-.72.1-.71.12-.67.13-.64.14-.3.08-.6.17-.29.1-.29.1-.28.12-.3.13-.31.16-.33.2-.36.25L9.32,35,9,35.33l-.11.13-.11.15-.17.24-.15.23-.15.26-.18.36-.17.41-.13.41-.1.38-.07.38,0,.37,0,.36v.61l-.31,0-.38.06-.41.1L6.05,40l-.44.2-.36.2L5,40.51l-.24.17-.23.18-.23.19-.23.21-.12.12-.18.19-.3.38-.24.38-.15.32-.1.26-.08.25-.06.23-.05.23,0,.23-.07.47-.05.5,0,.53,0,.56,0,1.19v.8l0,.66,0,.66,0,.67,0,.67.06.67.07.67.08.65.09.64.11.62.11.6.17.7.07.27.15.49.16.46.15.42.16.39.16.34.08.15.08.14.09.14.09.13.11.12.07.07.23.17a1.12,1.12,0,0,0,.1.31.75.75,0,0,0,.65.36l1.56.07,1,0,2.18.06,2.24,0h1.16l1.18,0,7.9-.36,2.45-.1,1.83-.07,2.43-.06,1.2,0h4.71l1.14,0,1.13,0,1.1,0,1.09.06,1.33.08,1.4.11,1.89.15,3.45.21,1.74.08,1.88.06h1.5l.8,0,.4,0,.27,0,.26-.07.19-.07.33-.16.44-.31.4-.38.3-.38.21-.32.13-.28.09-.23.06-.19,0-.19,0-.23,0-.29v-.78l0-.91,0-.11.83-3.58.2-.94.19-1,.09-.5.08-.5.07-.49.06-.5.06-.49,0-.48,0-.48v-1l0-.44,0-.43,0-.2,0-.2,0-.2-.06-.19-.06-.19-.07-.18-.08-.18-.09-.17-.1-.17-.11-.16L58,41.62l-.14-.14,0,0-.27-.23-.15-.11L57.2,41l-.15-.09-.16-.09-.16-.08-.16-.07-.16-.06-.17-.05-.17,0-.17,0-.17,0h-.34l-.18,0-.18,0-.18,0-.18.07-.19.08-.26.13-.33.21-.3.24.09-.37.08-.38.06-.38,0-.39,0-.4v-.7l0-.2-.51,0h0l.5-.07-.05-.31,0-.2,0-.2,0-.19-.06-.18-.07-.19-.07-.17-.08-.18-.08-.17-.09-.17-.1-.16L53,36.1,52.91,36l-.17-.23-.24-.28-.27-.26L52,34.93l-.3-.24-.32-.22-.33-.2-.34-.19L50.44,34l.14-.73.2-1.44L50.86,30V28.29l-.06-1.67,0-1.25V23.29l2,0h2.47l.89,0,1.08-.05.48,0,.45,0,.41-.05.38-.07.2-.05.2-.06.22-.08.27-.12.24-.13a3.49,3.49,0,0,0,.52-.41l.65-.81.22-.57,0-.32ZM51.19,38.88l.1.23.08.25.06.21.37-.08-.36.14,0,.14,0,.21,0,.28v.54l0,.27,0,.27,0,.26-.05.28-.06.27-.11.43-.33,1.25-.07,0L50.4,44,50,44l-.78.11-.39,0-.61.06-.81.06-.82,0-.83,0H43.23l-3.43-.07H38.09l-5,.06-7.72.11-5.64.17-2.43.1-2,.1-1.82.11-1,.08-1.33.13,0-.36,0-.13.08-.4.05-.39,0-.38v-.37l0-.36-.06-.35L11.29,42l-.08-.21-.14-1.54L11,39.59l0-.49v-.61l.05-.85,0-.23,0-.21.05-.22.4-.12.45-.12.53-.12.59-.12.63-.11,1-.15,1.29-.16.77-.09.78-.07.8-.07,1.6-.12,1.59-.09.78,0,1.31,0,1.71,0h1.2l1,0,.73,0,.71.08.59,0,.32,0h1.38l1.14,0,5-.15.94,0h1.89l.94,0,.69,0,.92,0,.89.07.44,0,.43.05.84.11.41.07.4.07.38.08.38.09.36.1.35.1.34.11.32.12.31.13.3.14.28.14.27.15.25.16.23.16.21.17.2.19.14.14.17.19.15.21.13.21Zm3.15,15.36-.28,1.16,0,.1,0,.24v.45h-.43l-.85,0-1.38-.07-2.45-.15-4.26-.31,0,.5-.15-.51,0,.5-.12-.51L43,55.49l-1.37-.1-1.11-.06-1.13,0-1.15,0-1.16,0-1.17,0H32.28l-2.43,0-1.22,0-1.84,0-2.46.09-2.46.09-2.44.11-3,.16-1.22.08L14,56l-7.52.8-.17,0v-.05l0-.23,0-.31-.06-.58,0-.71-.15-4.45,0-2V46l0-.86,0-.54,0-.73,0-.42,0-.35h.31l.15,0,.16.05.16.06.15.07.15.09.15.11.15.11.14.13.13.14.12.14.16.22.27.3.11.14.09.14.09.15.07.15.05.15,0,.16,0,.13,0,.16v.08a.82.82,0,0,0,.12.69.79.79,0,0,0,.31.23v.16l-.16.3-.28.48-.56.88L6.66,50.85l-.15.25-.1.2-.06.17-.07.23,0,.3.1.36,0,.06a.9.9,0,0,0,.19.23l0,0,.2.11.21.06.11,0h1l.46-.06.71-.06.72,0,.72,0,.73,0h6.09l7,0,14-.1H42V52h0l.1.5V52l.16.5,6.19.15,3.08.06h1.32l.69,0,.23,0,.2,0,.24-.08a2.89,2.89,0,0,0,.73-.45h0ZM10.76,48.32l.33-.67.19-.42.08-.2L13,47h1.72l2.89,0,2.67.06,4.66.14,7,.12,4.46.05,1.22,0,4.24.15.87,0,.87,0h.87l.88,0,.88,0,.87-.06.65-.05.44,0,.44-.05.44-.06.44-.07.43-.08.26,0,.07,0,1.15,2.26-7.85-.22H32.94L19,49.16l-3.89,0-.82,0-.83.06-.82.08-.82.09-.83.11-.81.13-.22,0,.34-.6ZM43.94,19.61H43.8l-2.56.21.12-.3.69-1.69,1.61-3.68.38-.92L45.82,8.7l.35,0,4.08-.31L52,8.24l1.43-.07h1l.08.28.2,1,1,5.29.1.42.08.24.5-.08h0l-.45.25,1.15,3.15.44,1.26L56.2,20H54.92l-2.05,0-2.09-.06Zm11,22.8,0,.52L55,43l.15.09.18.13.18.17.17.17.05.06,0,.08.09.17.07.2,0,.12.06.26,0,.3,0,.32v.72l0,.71-.05.42,0,.44-.07.45-.07.46-.09.46-.09.47-.18-.39-.85-1.7L53.52,45l.08-.25.07-.23.08-.22.09-.22.09-.21.09-.2.1-.18.1-.16.08-.14.08-.11.07-.09.15-.13,0-.5h0l.11.51.2-.47Z"/></svg>