<svg xmlns="http://www.w3.org/2000/svg" width="64" height="64" viewBox="0 0 64 64" fill="#1FA28F"><path d="M54.49,34.32V33.7l0-.75-.06-.87-.07-.82-.08-.65h-.12l.12,0-.24,0h-.22l.44-.18L54,28.28l-.17-1.7-.09-.69-.05-.22-.09-.23,0-.08-.08-.09-.22-.21-.22-.2-.29-.24-.3-.23-.31-.21L51.86,24l-.46-.29-1-.65-.58-.37-.27-.19-.23-.16.09-1.15.09-1.24.07-1.22.06-1.48.06-1.16.09-1.16.05-.57.11-.85-.33-.05h.33l-.34,0-.15,0h0l.51,0-.49-.09h0l.51,0-.49-.09h0l.52-.07.18-1,.08-.59,0-.39v-.27l0-.15-.08-.22-.15-.2,0,0-.21-.14-.09,0-.11,0-.17,0-.3,0-1.18-.08-1.3,0-2.14,0H42.58l-.8,0-.32,0h-.12l-.24.06-.62.34a2.83,2.83,0,0,0-.63.66l-.13.2-.13.26-.09.26,0,.22,0,.18v.7l0,.38.07.69.06.45.05.25-.43-.33-1-.7-1-.63-1-.63-1-.62-1-.6-.46-.27a.68.68,0,0,0-.42-.13,1.23,1.23,0,0,0-.79.34l0,0a.69.69,0,0,0-.59-.3,1.21,1.21,0,0,0-.79.34l-.7.56-.47.35-.47.34-.48.34-.48.33-.49.32-.5.31-.49.32-.52.31-1.8,1.16-3.19,2-1.08.68L19,18.78,18,19.51l-.54.37-.54.38-.53.39-.53.4-.52.41-.87.7.28.41h0l-.4-.34-.25.15L12.86,23l-.34.19-.35.21-.28.18-.2.13-.19.14-.19.15-.2.17-.2.18-.2.2-.2.22-.2.24-.18.27-.16.27-.12.28-.09.22,0,.12-.08.27-.05.29,0,.29,0,.28,0,.28v.84l0,.57.07.71.07.58L10,32.38l.08.77,0,.48v.63l0,.28.5.05h0v0H10l0,.17-.08,1-.13,2.51-.06,2.55,0,1.45v1.49l0,1.49,0,.74,0,.72L9.84,48l.09,1.32.1,1.22.12,1.1.1.72.09.5a.84.84,0,0,0,0,.77.66.66,0,0,0,.57.34h0a.58.58,0,0,0,.19,0h.09l.57,0,1.78.12,2.72.07,3.75-.14,7.48-.35,2.8-.12,1.86-.06,1.87-.06,3.74-.1,2.87-.06,3.46-.13,1.36-.09.7-.06.94-.09,1.15-.13.89-.12.83-.13.68-.12.53-.11.48-.12.41-.13a.62.62,0,0,0,.42.15.92.92,0,0,0,.46-.13,1.17,1.17,0,0,0,.57-.87l.09-1.46.09-1.24.36-4.37.11-1.4.09-1.4.07-1.4,0-1,.05-1.37,0-1.34V34.32ZM31.77,48.07l0-.66,0-.69,0-.68v-.65l0-.65,0-.66,0-.64L32,42.8l.06-.47.08-.62.11-.61.13-.58.15-.57.16-.54.09-.26.09-.25.1-.25.11-.23.1-.23.11-.21.12-.21.11-.19.12-.19.12-.17.12-.16.12-.15.13-.14.12-.13.13-.12.14-.12.14-.11.14-.11.16-.11.17-.1.18-.1.19-.09.21-.09.23-.09.24-.08.38-.1.18,0,.18,0,.18,0h.53l.17,0,.17,0,.17,0,.12.05.15.06.14.07.15.09.13.11.11.09.29.3.18.21.18.21.16.21.16.21.15.22.14.22.13.21.13.23.11.22.11.23.2.46.09.24.09.23.15.48.12.49.11.5.09.5,0,.39.06.52,0,.53,0,.54,0,.53,0,.55v1.95l0,1.12,0,.84,0,.56,0,.56,0,.56.05.55,0,.25-1.31,0H36.94l-1.87,0-1.87,0-1.42.05,0-1V48.07ZM42.4,12.86l0-.22h3.08l1.26,0,.68,0L47.19,14l.49.13h0l-.5,0,0,.4-.05.61,0,.6,0,.61v1.18l0,.59,0,.58.06.87.1,1-1.09-.9L44.3,18.2l-1.38-1.12L42,16.33l.07-.19.06-.21.05-.2,0-.21,0-.21,0-.44,0-.46.06-1.07ZM36,15.92l.91.75.92.74L42,20.71l1.84,1.47,1.37,1.11,1.28,1.05.53.42.31.22.32.21.31.2,1.38.83.43.28.28.18.26.19.26.19.25.2.18.16,0,.18.43,4.27V32l0,0,.06.51.08.77.07.8.07,1.3,0,1.21,0,1.26v1.3l0,1.67,0,2.7v3.63l0,1.88,0,1.44-.41.06-.7.06-.71,0-1.18,0h-5v-.87l0-.56,0-.57,0-.57,0-.57.17-2.07.08-1.19,0-.89V41.64l0-.6,0-.58,0-.44-.08-.59,0-.3-.06-.29-.06-.29-.07-.29L43.74,38l-.09-.28-.09-.29-.1-.28-.1-.28-.12-.28-.13-.27L43,36l-.14-.27-.16-.26-.16-.27L42.35,35l-.18-.26-.2-.25-.2-.25-.21-.25-.23-.24,0,0-.09-.11L41,33.4l-.13-.1-.12-.09-.14-.09L40.38,33l-.15-.07-.13-.06-.16-.06-.22-.07-.3-.08-.29,0-.3,0h-.6l-.3,0-.29,0-.29,0-.29.06-.27.06-.35.1-.38.13-.38.15-.36.16-.37.18-.35.2-.35.21-.34.23-.33.25-.33.26-.31.28-.29.28-.28.3-.27.3-.25.31-.23.32-.22.31-.21.32-.19.33-.18.32-.17.33-.16.33-.15.33L30.2,39l-.12.33L30,39.7l-.11.34-.11.34-.09.35-.09.34-.08.35-.08.35-.13.7-.1.71-.07.53-.06.7-.05.71,0,.7v1.4l.05.69.08.63.09.62.11.61.08.44.13.67-4.69.17-3.73.14-3.75.16-2.91.28L12,51.91l0-.4,0-1V49l0-2.24.18-4.51.1-2.22.12-2.24.2-2.8.12-1.21,0-.42,0-.27v-.83l0-.28,0-.57-.08-.71L12.45,29l-.06-.54,0-.4,0-.5,0-.47v-.62l0-.17,0-.16,0-.13,0-.07.29-.2.24-.14.27-.15,1.25-.66.41-.24.36-.23.19-.13.23-.18.67-.54.46-.35.46-.35.48-.35.49-.34.49-.34,1-.66L21,20.22l3.21-2,1.08-.68.82-.52.55-.36.55-.38.54-.4.54-.41.53-.41.52-.42.53-.43.51-.44.51-.45.49-.45.48-.47.19-.18a.61.61,0,0,0,.14.17Z"/><path d="M28.5,26.48l0-.13,0-.16L28.31,26l-.12-.14,0,0A.57.57,0,0,0,28,25.7l-.1,0-.12,0-.2,0-.24,0-1,0-2.36,0H21.8l-1.64,0-1.7.06-1.2.07-.21,0-.17,0-.27.09-.77.55a2.45,2.45,0,0,0-.48.69l-.07.17-.06.19,0,.16,0,.14,0,.14v.23l0,.3,0,.22,0,.21.11.53.22.88.5-.05-.47.19,0,.31,0,.43,0,.32v1.37l0,.72-.07,1,0,.75,0,.52v1l0,.39,0,.26,0,.27,0,.36.28,0-.27.06h.49l-.51.11-.09.89,0,.42V40l0,.22,0,.12,0,.13.08.16.15.21.08.07L16,41l.13.08.13.06.16,0,.12,0,.14,0,.25,0,.4,0h.73l.74,0,.7-.06.75-.09.39-.07.57-.12.76-.16.92-.21L25.26,40l0-.51h0l.2.46,0-.5h0l.17.47a1.54,1.54,0,0,0,1.05-.83l0,0a.59.59,0,0,0,.23,0,.94.94,0,0,0,.46-.14,1.14,1.14,0,0,0,.57-.86l0-.92V36l0-3V31.79l0-1.15,0-.56.06-.56.05-.41.06-.42-.44-.07.45,0-.48-.17h0l.5.07.17-.7.06-.29,0-.21,0-.34,0-.21v-.33ZM22.65,38.17l-1.2.07-.35,0-.35,0-1,.09-.5,0h-.8l-.08.29v0h-.06v-.1l.06,0v-.12l0-.29.08-.86v-.46l0-.19-.05-.33,0-.42,0-.33V34.23l0-.71.05-1,0-.74,0-.51v-1l0-.39-.05-.53L18.37,29l-.05-.28-.1-.36,3.54-.11,2.4,0h1.72l0,.21-.12.59-.06.34-.05.46,0,.46,0,.6v.6l0,.6,0,.59,0,.58.06.58.1.85.14,1.13.17,1.38.07.81a.65.65,0,0,0-.2,0Z"/></svg>