<?xml version="1.0" encoding="utf-8"?>
<!-- Generator: Adobe Illustrator 24.0.0, SVG Export Plug-In . SVG Version: 6.00 Build 0)  -->
<svg version="1.1" id="Layer_1" xmlns="http://www.w3.org/2000/svg" xmlns:xlink="http://www.w3.org/1999/xlink" x="0px" y="0px"
	 width="64px" height="64px" viewBox="0 0 64 64" enable-background="new 0 0 64 64" xml:space="preserve">
<g>
	<path fill="#2E343D" d="M32.94,51.68c-0.11-0.07-0.23-0.15-0.42-0.25l-0.12-0.06c-0.11-0.05-0.22-0.1-0.39-0.16l-0.32-0.09
		l-0.31,0.1c-0.17,0.05-0.27,0.1-0.37,0.15l-0.19,0.08c-0.15,0.08-0.3,0.17-0.37,0.22c-0.25,0.16-0.43,0.34-0.58,0.57
		c-0.2,0.34-0.19,0.72,0.03,1.06l0.1,0.14c0.04,0.05,0.07,0.1,0.1,0.14l0.45,0.87l0.05,0.08c0.14,0.22,0.28,0.45,0.48,0.69
		l0.33,0.35H32l0.3-0.37c0.19-0.23,0.35-0.47,0.53-0.75l0.47-0.9c0.02-0.03,0.05-0.08,0.1-0.15l0.09-0.12
		c0.21-0.33,0.22-0.71,0.02-1.05C33.36,52.03,33.18,51.84,32.94,51.68z"/>
	<path fill="#2E343D" d="M59.08,56c0.04-0.24,0.09-0.5,0.15-0.78l0.03-0.12c0.07-0.32,0.14-0.66,0.2-1.03
		c0.08-0.47,0.11-0.91,0.1-1.31c0-0.44-0.04-0.86-0.11-1.34l0,0c-0.12-0.73-0.31-1.39-0.47-1.94l-0.07-0.25
		c-0.18-0.63-0.4-1.41-0.81-2.18c-0.23-0.42-0.5-0.82-0.79-1.15c-0.16-0.19-0.34-0.35-0.53-0.52c-0.08-0.06-0.14-0.12-0.21-0.18
		c-0.07-0.06-0.14-0.12-0.22-0.19c-0.61-0.49-1.24-0.92-1.86-1.27c-0.35-0.2-0.66-0.37-1.07-0.54c-0.34-0.15-0.71-0.27-1.15-0.39
		l-0.17-0.04c-0.21-0.05-0.43-0.11-0.63-0.16c-0.35-0.08-0.72-0.17-1.06-0.29c-0.24-0.08-0.48-0.17-0.73-0.26l-0.33-0.12
		c-0.27-0.1-0.54-0.2-0.82-0.29c-0.35-0.12-0.75-0.21-1.05-0.28c0.25-0.07,0.54-0.16,0.84-0.27c0.48-0.17,0.93-0.38,1.36-0.66
		c0.09-0.06,0.2-0.13,0.36-0.25l0.26-0.21c0.19-0.15,0.37-0.3,0.51-0.45c0.32-0.29,0.63-0.62,0.92-0.97
		c0.28-0.32,0.54-0.67,0.81-1.06l0.86-1.27l-1.17-1.29c-0.5-0.55-1-1.1-1.46-1.64c-0.21-0.25-0.45-0.57-0.71-0.94
		c-0.21-0.3-0.45-0.64-0.65-0.98c-0.1-0.17-0.2-0.33-0.28-0.5l-0.63-1.19c-0.1-0.17-0.19-0.34-0.27-0.52
		c-0.19-0.38-0.33-0.69-0.45-1c-0.12-0.34-0.22-0.71-0.32-1.11l-0.18-0.74c-0.04-0.18-0.09-0.37-0.14-0.55
		c-0.11-0.41-0.25-0.84-0.43-1.33l-0.14-0.39c-0.1-0.27-0.19-0.52-0.27-0.79c-0.09-0.29-0.17-0.6-0.24-1l0.15-0.68
		c0.09-0.38,0.18-0.79,0.26-1.23c0.05-0.3,0.1-0.64,0.12-1l0.06-0.93c0.04-0.49,0.08-1.06,0.07-1.69c-0.01-0.32-0.02-0.65-0.08-1.06
		c-0.05-0.36-0.14-0.73-0.28-1.14c-0.14-0.4-0.28-0.75-0.43-1.08c-0.08-0.18-0.15-0.34-0.21-0.5c-0.03-0.07-0.05-0.14-0.07-0.21
		l-0.22-0.71c-0.06-0.19-0.13-0.39-0.2-0.59c-0.25-0.69-0.51-1.27-0.79-1.77c-0.64-1.17-1.51-2.13-2.27-2.92
		c-0.1-0.1-0.2-0.22-0.3-0.35l-0.16-0.19c-0.18-0.22-0.38-0.46-0.6-0.7c-0.27-0.3-0.54-0.54-0.76-0.74c-0.15-0.12-0.3-0.24-0.5-0.38
		l-0.4-0.25c-0.6-0.35-1.12-0.63-1.62-0.86c-0.31-0.14-0.6-0.26-0.88-0.36c-0.33-0.12-0.61-0.22-0.98-0.3
		c-0.76-0.17-1.48-0.19-2.03-0.18l-0.58,0.01c-0.34,0.01-0.66,0.02-0.97,0.01l-0.52-0.02c-0.88-0.04-1.98-0.09-3.13,0.16
		c-1.19,0.25-2.25,0.7-3.1,1.06L25.33,3.8l-0.14,0.08c-1.6,0.91-3.02,2.06-4.22,3.4c-0.35,0.39-0.64,0.75-0.88,1.08
		c-0.3,0.42-0.55,0.78-0.76,1.11c-0.24,0.38-0.47,0.79-0.67,1.19c-0.2,0.4-0.38,0.82-0.55,1.23c-0.33,0.79-0.66,1.66-0.86,2.6
		c-0.17,0.81-0.18,1.54-0.19,2.24l-0.02,1.11c0,0.24,0.01,0.49,0.02,0.73c0.02,0.21,0.04,0.41,0.06,0.6l0.14,1.25
		c0.01,0.16,0.02,0.31,0.01,0.49c0,0.13-0.01,0.26-0.02,0.39l-0.04,0.83c-0.01,0.27-0.01,0.52,0.01,0.75l0,0.02l-0.14,0.59
		c-0.1,0.42-0.21,0.83-0.32,1.23c-0.21,0.76-0.47,1.44-0.86,2.22l-1.17,2.39c-0.17,0.36-0.35,0.73-0.55,1.07
		c-0.21,0.36-0.35,0.58-0.57,0.83c-0.18,0.21-0.37,0.41-0.59,0.63l-0.24,0.26c-0.17,0.17-0.37,0.39-0.58,0.65l-0.1,0.12
		c-0.09,0.1-0.17,0.2-0.26,0.29c-0.57,0.62-1.13,1.28-1.68,1.98l-1.1,1.4l1.23,1.23c0.53,0.53,1.12,1.13,1.8,1.68
		c0.34,0.29,0.72,0.57,1.13,0.83c0.4,0.25,0.8,0.47,1.21,0.65c0.06,0.03,0.12,0.06,0.18,0.08l-0.06,0.02
		c-0.44,0.12-0.91,0.25-1.36,0.39c-0.56,0.17-1.08,0.38-1.59,0.58l-1.14,0.46c-0.43,0.17-0.87,0.34-1.35,0.56
		c-0.69,0.36-1.34,0.85-1.97,1.5c-0.2,0.2-0.37,0.39-0.58,0.62l-0.17,0.18c-0.24,0.26-0.52,0.59-0.77,0.99
		c-0.28,0.44-0.47,0.88-0.57,1.35c-0.09,0.4-0.14,0.78-0.19,1.16c-0.07,0.6-0.11,1.19-0.15,1.71l-0.03,0.45
		c-0.02,0.5-0.02,0.99-0.02,1.47l0,0.9c0,0.25,0,0.49-0.02,0.74l-0.01,0.07c-0.02,0.24-0.04,0.48-0.06,0.74l-0.02,0.23
		c-0.03,0.35-0.06,0.7-0.08,1.09c-0.01,0.41,0,0.81,0.04,1.2c0.02,0.21,0.04,0.43,0.07,0.63l0.02,0.22
		c0.04,0.39,0.08,0.75,0.08,1.08l-0.02,1.45l1.47-0.1c0.39-0.02,0.85,0.04,1.33,0.11c0.29,0.04,0.6,0.08,0.91,0.09
		c0.35,0.02,0.71,0,0.95-0.02c0.39-0.02,0.77-0.04,1.16-0.07l0.4-0.03c0.53-0.03,1.07-0.07,1.61-0.08l3.24-0.07l1.6-0.07
		c0.25-0.01,0.48-0.01,0.75-0.01c0.28,0,0.6-0.01,0.88-0.03l0.68-0.04c0.31-0.02,0.61-0.04,0.9-0.04c0.48-0.01,0.97,0.01,1.46,0.05
		l0.5,0.04c0.37,0.03,0.75,0.06,1.14,0.08c0.65,0.03,1.29,0.02,1.71,0l0.56-0.01c0.33-0.01,0.66-0.02,0.98-0.01
		c0.42,0.01,0.88,0.04,1.55,0.11c0.49,0.05,1.05,0.1,1.62,0.12c0.36,0.02,0.73,0.06,1.15,0.1l0.32,0.03
		c0.27,0.03,0.55,0.06,0.85,0.09c0.25,0.02,0.55,0.04,0.79,0.05l2.92,0.13h0.51c0.45-0.02,0.85-0.06,1.23-0.1l0.47-0.05
		c0.19-0.02,0.37-0.03,0.53-0.03l0.08,0l2.35,0.1c0.53,0.03,1.06,0.04,1.59,0.06l4.86,0.14c0.7,0.01,1.41,0,2.11-0.01
		c0.38-0.01,0.75-0.01,1.13-0.01c0,0,0,0,0,0c0.44,0,0.94,0.02,1.58,0.05c0.6,0.03,1.12,0.05,1.66,0.05c0,0,0,0,0,0
		c0.3-0.01,0.66,0.02,1.04,0.04l0.26,0.02c0.53,0.04,1.11,0.08,1.73,0.08l2.32-0.04l-0.3-2.72C59.07,57.81,58.95,56.81,59.08,56z
		 M55.2,57.59c-0.37-0.02-0.74-0.03-1.09-0.03c0,0,0,0,0,0c-0.32,0.01-0.66,0-1.01-0.01l-0.39-0.01c-0.62-0.02-1.22-0.04-1.81-0.02
		l-1.13,0.03c-0.69,0.02-1.38,0.04-2.05,0.04l-3.21-0.02l-1.62,0c-0.52,0-1.05,0-1.57-0.01l-2.22-0.04h-0.26
		c-0.31,0.01-0.63,0.04-0.96,0.08l-0.54,0.07c-0.34,0.05-0.66,0.09-0.96,0.11c-0.09,0.01-0.19,0.01-0.27,0.01l-2.94-0.06
		c-0.18,0-0.35-0.01-0.52-0.02l-1.23-0.1c-0.42-0.04-0.86-0.07-1.33-0.08c-0.43,0-0.88-0.03-1.35-0.07l-0.16-0.01
		c-1.12-0.08-1.97-0.08-2.81-0.04l-0.59,0.03c-0.47,0.03-0.98,0.05-1.49,0.04l-0.12,0c-0.31-0.01-0.63-0.02-0.95-0.04l-0.5-0.02
		c-0.55-0.02-1.15-0.04-1.75,0c-0.38,0.02-0.74,0.05-1.11,0.08l-0.57,0.04c-0.23,0.02-0.46,0.04-0.69,0.04l-0.07,0
		c-0.25,0.01-0.53,0.02-0.78,0.04l-4.79,0.26c-0.68,0.03-1.35,0.09-2.09,0.15l-0.4,0.03c-0.25,0.02-0.5,0.04-0.75,0.06l-0.14,0.01
		c-0.19,0.01-0.35,0.03-0.52,0.02C8.24,58.14,8,58.12,7.72,58.09c-0.1-0.01-0.21-0.02-0.31-0.03c-0.06-0.01-0.11-0.01-0.17-0.02
		c-0.01-0.05-0.01-0.1-0.02-0.14L7.2,57.72c-0.03-0.18-0.05-0.37-0.07-0.56c-0.08-0.59-0.06-1.15,0-1.82l0.01-0.2
		c0.02-0.28,0.04-0.59,0.05-0.88c0.02-0.4,0.01-0.79,0-1.13l-0.01-0.43c-0.02-0.54-0.04-1.05-0.01-1.54l0.04-0.54
		c0.04-0.49,0.08-1,0.14-1.47c0.04-0.3,0.09-0.62,0.15-0.89c0.04-0.17,0.12-0.35,0.25-0.55c0.12-0.18,0.27-0.37,0.51-0.65
		c0.22-0.24,0.46-0.48,0.67-0.7c0.41-0.4,0.88-0.75,1.3-0.96l0.51-0.2c0.23-0.09,0.46-0.17,0.68-0.26l1.21-0.45
		c0.36-0.14,0.84-0.32,1.33-0.46c0.43-0.12,0.86-0.24,1.3-0.36l0.68-0.18c0.29-0.08,0.72-0.19,1.1-0.34
		c0.35-0.13,0.7-0.26,1.01-0.39c0.28-0.12,0.59-0.24,0.89-0.33c0.13-0.05,0.27-0.09,0.42-0.13c0.05-0.02,0.11-0.03,0.17-0.04
		l2.65-0.59c0.2-0.05,0.42-0.1,0.61-0.13c0.15-0.03,0.31-0.05,0.48-0.07l0.48-0.06c0.41-0.06,0.8-0.2,1.13-0.33
		c0.17,0.44,0.36,0.86,0.58,1.25c0.17,0.32,0.41,0.7,0.72,1.11c0.23,0.32,0.48,0.62,0.74,0.94c0.46,0.55,1.02,1.11,1.7,1.69
		l0.74,0.62c0.34,0.28,0.67,0.55,0.99,0.85l1.07,0.97l1.04-0.81c0.67-0.52,1.28-1.04,1.88-1.6c0.5-0.48,1.01-1.01,1.74-1.85
		c0.47-0.57,1.01-1.22,1.44-2c0.2-0.35,0.37-0.7,0.52-1.05l0.25,0.13c0.5,0.26,1.03,0.52,1.57,0.77c0.68,0.3,1.41,0.55,2.09,0.71
		c0.19,0.05,0.39,0.1,0.58,0.14l0.3,0.07c0.36,0.08,0.7,0.17,1.04,0.26l2.87,0.84c0.29,0.09,0.53,0.17,0.8,0.27
		c0.28,0.11,0.55,0.24,0.84,0.38l0.17,0.08c0.26,0.12,0.53,0.24,0.81,0.36c0.5,0.21,1.02,0.37,1.39,0.49
		c0.14,0.04,0.27,0.09,0.4,0.13l0.2,0.06c0.52,0.17,0.86,0.34,1.39,0.7c0.47,0.31,0.92,0.67,1.35,1.06l0.32,0.32
		c0.07,0.06,0.12,0.12,0.18,0.21c0.12,0.16,0.23,0.32,0.31,0.49c0.2,0.4,0.33,0.89,0.5,1.56c0.16,0.62,0.3,1.2,0.37,1.71
		c0.03,0.24,0.05,0.48,0.04,0.71c0,0.19-0.03,0.38-0.06,0.6l-0.01,0.09c-0.03,0.21-0.08,0.43-0.13,0.65l-0.05,0.24
		c-0.07,0.34-0.15,0.7-0.22,1.09C55.18,56.06,55.15,56.8,55.2,57.59z M37.34,38.73c0.01,0.17,0.01,0.34,0.02,0.51l-0.08,0.1
		c-0.15,0.18-0.3,0.36-0.44,0.54c-0.09,0.12-0.19,0.23-0.28,0.35l-0.2,0.25c-0.18,0.22-0.36,0.45-0.54,0.66
		c-0.44,0.5-0.98,0.94-1.58,1.42c-0.73,0.57-1.28,0.97-1.78,1.3l-0.58,0.38l-0.58-0.76c-0.44-0.59-1-1.16-1.73-1.75
		c-0.31-0.24-0.63-0.49-0.96-0.72l-1.38-0.95c-0.17-0.12-0.31-0.22-0.56-0.37c-0.04-0.1-0.08-0.32-0.06-0.44
		c0.16-0.39,0.11-0.82,0.07-1.13l-0.02-0.18c-0.07-0.46-0.15-0.99-0.19-1.5c-0.02-0.37-0.05-0.73-0.08-1.14l-0.01-0.12
		c0.15,0.04,0.29,0.08,0.43,0.12l0.56,0.17c0.13,0.04,0.25,0.08,0.38,0.13l0.58,0.21c0.4,0.14,0.82,0.28,1.24,0.41
		c0.21,0.06,0.44,0.11,0.71,0.17c0.1,0.02,0.21,0.04,0.29,0.05l0.11,0.02c0.35,0.07,0.67-0.05,0.8-0.11l0.27-0.01
		c0.29-0.01,0.58-0.02,0.87-0.05c0.52-0.05,1.12-0.14,1.74-0.25c0.62-0.13,1.15-0.24,1.69-0.39c0.39-0.11,0.83-0.27,1.31-0.49
		c-0.01,0.54-0.02,1.09-0.06,1.63C37.29,37.44,37.34,38.73,37.34,38.73z M46.84,38.16l-1.05,0.69c-0.16,0.1-0.33,0.23-0.45,0.32
		c-0.14,0.11-0.27,0.21-0.41,0.31c-0.4,0.28-0.85,0.57-1.37,0.9l-0.21,0.14c-0.29-0.05-0.59-0.1-0.88-0.15
		c-0.98-0.16-1.91-0.52-2.85-0.92l-0.04-1.05c-0.01-0.54-0.02-1.04,0.01-1.54c0.04-0.68,0-1.33-0.05-1.82
		c-0.03-0.27-0.07-0.59-0.17-0.94c0.01-0.01,0.02-0.01,0.03-0.02c0.2-0.13,0.41-0.28,0.59-0.41l0.81-0.59
		c0.45-0.32,0.97-0.72,1.46-1.24c0.13-0.13,0.26-0.28,0.36-0.41c0.1-0.12,0.21-0.26,0.3-0.38c0.18-0.25,0.36-0.51,0.53-0.79
		c0.3-0.5,0.58-1.01,0.87-1.6l0.38-0.85c0.05,0.37,0.12,0.79,0.22,1.23c0.13,0.48,0.28,0.93,0.48,1.41c0.1,0.28,0.21,0.57,0.33,0.82
		l0.41,0.97c0.09,0.22,0.18,0.45,0.29,0.66c0.2,0.42,0.4,0.85,0.65,1.32c0.23,0.45,0.43,0.81,0.65,1.17
		c0.22,0.36,0.46,0.72,0.72,1.08l-0.05,0.06c-0.1,0.14-0.2,0.27-0.32,0.41C47.62,37.53,47.38,37.81,46.84,38.16z M42.5,15.9
		c-0.12-0.08-0.24-0.16-0.36-0.22c-0.21-0.11-0.4-0.22-0.58-0.3l-0.45-0.21c-0.13-0.06-0.25-0.12-0.38-0.18l-0.21-0.1
		c-0.26-0.13-0.52-0.28-0.73-0.43c-0.19-0.14-0.43-0.36-0.71-0.6c-0.32-0.28-0.62-0.57-0.94-0.88l-1.99-1.86l-1.63,1.54
		c-0.39,0.38-0.8,0.77-1.23,1.11c-0.46,0.38-0.99,0.71-1.67,1.03c-0.62,0.29-1.3,0.56-1.96,0.79c-0.61,0.19-1.32,0.37-2.1,0.53
		c-0.81,0.17-1.5,0.3-2.18,0.38c-0.32,0.04-0.69,0.08-1.01,0.08c-0.3,0-0.65-0.02-1.03-0.07l-1.61-0.18
		c-0.23-0.02-0.45-0.04-0.68-0.08c-0.42-0.06-0.86-0.14-1.36-0.24c0.03-0.37,0.08-0.67,0.14-0.93c0.18-0.74,0.5-1.47,0.78-2.08
		l0.07-0.16c0.14-0.3,0.27-0.59,0.42-0.87c0.15-0.28,0.34-0.59,0.58-0.95c0.19-0.29,0.41-0.59,0.67-0.91
		c0.21-0.27,0.45-0.54,0.72-0.82c1.04-1.07,2.22-1.96,3.49-2.63l0.17-0.07c0.9-0.34,1.76-0.67,2.57-0.8
		c0.68-0.13,1.45-0.07,2.34-0.01l0.51,0.04c0.4,0.03,0.81,0.04,1.27,0.04h0c0.66,0.01,1.22,0.02,1.65,0.14
		c0.14,0.03,0.32,0.11,0.5,0.18l0.06,0.02c0.21,0.09,0.41,0.18,0.62,0.28c0.45,0.22,0.85,0.46,1.22,0.71l0.26,0.17l0.18,0.15
		c0.13,0.12,0.25,0.26,0.4,0.43c0.08,0.1,0.16,0.2,0.25,0.31c0.05,0.07,0.11,0.14,0.16,0.21l0.17,0.22
		c0.13,0.17,0.27,0.35,0.42,0.54l0.52,0.61c0.16,0.19,0.3,0.37,0.45,0.57c0.31,0.41,0.54,0.77,0.71,1.11
		c0.18,0.35,0.34,0.75,0.51,1.24c0.04,0.13,0.09,0.26,0.13,0.4c0.03,0.11,0.07,0.21,0.1,0.31l0.12,0.4
		c0.03,0.12,0.07,0.23,0.11,0.34l0.05,0.16c0.08,0.24,0.18,0.45,0.26,0.66l0.05,0.13c0.11,0.24,0.2,0.47,0.27,0.68
		c0.02,0.06,0.04,0.14,0.07,0.21L42.5,15.9z M22.98,18.68L22.98,18.68c0.49,0.12,0.88,0.2,1.27,0.27c1.23,0.16,2.65,0.05,3.74-0.04
		c1.59-0.1,3.3-0.47,4.93-1.05c0.91-0.32,1.7-0.67,2.42-1.08c0.24-0.14,0.48-0.28,0.72-0.44c0.23,0.18,0.47,0.37,0.71,0.54
		c0.18,0.12,0.37,0.25,0.56,0.36c0.18,0.11,0.46,0.27,0.7,0.37c0.52,0.24,1.03,0.38,1.42,0.47c0.41,0.09,0.79,0.15,1.17,0.2
		l0.06,0.01c0.37,0.05,0.67,0.09,1.07,0.17c0.31,0.06,0.66,0.14,1.04,0.18l-0.03,0.49c-0.01,0.23-0.03,0.43-0.07,0.63
		c-0.04,0.31-0.1,0.64-0.18,1.03l-0.17,0.94c-0.03,0.14-0.04,0.29-0.06,0.43l-0.01,0.08c-0.03,0.27-0.04,0.54-0.06,0.78l-0.01,0.11
		c-0.02,0.45-0.06,0.95-0.14,1.32l-0.19,0.69c-0.04,0.14-0.08,0.28-0.13,0.42l-0.59,1.72c-0.23,0.54-0.44,0.98-0.62,1.33
		c-0.11,0.21-0.23,0.41-0.34,0.62c-0.06,0.1-0.11,0.18-0.18,0.28c-0.04,0.06-0.07,0.1-0.11,0.15l-0.06,0.07
		c-0.27,0.34-0.64,0.67-0.97,0.95l-0.63,0.55c-0.21,0.19-0.37,0.33-0.55,0.48c-0.36,0.29-0.75,0.56-1.19,0.82
		c-0.48,0.29-0.86,0.5-1.28,0.67c-0.5,0.21-1.06,0.4-1.46,0.53c-0.52,0.18-0.98,0.32-1.47,0.42c-0.25,0.06-0.5,0.12-0.75,0.17
		l-0.49,0.1c-0.14,0-0.26,0.04-0.36,0.09l-0.05-0.01c-0.12-0.03-0.24-0.06-0.37-0.1l-0.16-0.05c-0.31-0.1-0.71-0.24-1.1-0.4
		l-0.58-0.23c-0.21-0.08-0.43-0.15-0.64-0.22l-0.41-0.13c-0.26-0.08-0.51-0.16-0.74-0.24c-0.23-0.08-0.44-0.17-0.63-0.27l-0.59-0.43
		c-0.13-0.11-0.26-0.24-0.39-0.39c-0.18-0.2-0.34-0.41-0.51-0.63l-0.24-0.3c-0.27-0.34-0.6-0.7-0.92-1.01l-0.33-0.32
		c-0.51-0.48-0.92-0.87-1.19-1.29c-0.49-0.78-0.87-1.45-1.16-2.04c-0.27-0.55-0.49-1.21-0.73-2.12c-0.1-0.38-0.18-0.76-0.26-1.15
		c-0.04-0.18-0.05-0.29-0.05-0.43c-0.01-0.15,0-0.31,0.01-0.49l0.02-0.21c0.01-0.1,0.02-0.2,0.02-0.29L19.73,21
		c0.01-0.24,0.01-0.51,0-0.74c-0.01-0.22-0.03-0.45-0.05-0.67l-0.02-0.29c-0.03-0.31-0.06-0.6-0.07-0.89c-0.01-0.17-0.01-0.34,0-0.5
		l0.01-0.17c0.39,0.15,0.73,0.25,1.06,0.35c0.25,0.07,0.52,0.14,0.77,0.2L22.98,18.68z M21.88,31.69c0.28,0.25,0.52,0.5,0.76,0.79
		l0.41,0.49c0.14,0.16,0.28,0.33,0.43,0.5c0.35,0.37,0.65,0.64,0.94,0.84l-0.1,0.98c-0.04,0.39-0.07,0.77-0.09,1.17
		c-0.03,0.62,0.02,1.19,0.08,1.87c0.01,0.19,0.03,0.39,0.08,0.59c-0.28-0.05-0.59-0.1-0.9-0.09c-0.8,0.02-1.67,0.2-2.25,0.33
		l-2.22,0.47c-0.12,0.02-0.24,0.05-0.36,0.08c-0.15,0.03-0.3,0.07-0.44,0.12c-0.1-0.06-0.2-0.13-0.28-0.19l-1.81-1.43
		c-0.59-0.47-1.03-0.89-1.49-1.4l-0.46-0.5c0.2-0.29,0.4-0.57,0.58-0.85c0.14-0.19,0.24-0.35,0.33-0.51
		c0.1-0.17,0.21-0.33,0.36-0.53c0.1-0.14,0.21-0.29,0.32-0.43c0.16-0.21,0.32-0.43,0.5-0.68c0.29-0.42,0.59-0.95,0.79-1.42
		c0.19-0.43,0.36-0.85,0.51-1.26l0.94-2.52c0.06-0.17,0.12-0.32,0.17-0.47c0.42,0.81,0.9,1.53,1.31,2.14
		c0.48,0.66,1.06,1.18,1.52,1.6L21.88,31.69z"/>
</g>
</svg>
