<svg xmlns="http://www.w3.org/2000/svg" width="64" height="64" viewBox="0 0 64 64" fill="#2E343D"><path d="M48.52,52.59a1.05,1.05,0,0,0-1.11.42A.86.86,0,0,0,47,53l-.33.09-1.83.18L43,53.17l-1.8-.32-6-1.86-1.8-.62-1.49-.74-1.83-1.27-1.7-1.45-1.5-1.58-1.31-1.69-1.4-2.26L23,39l-.9-2.52-.79-3.15-.54-3.81-.18-4.15.1-3.33.91-9.17L22.17,8l.57-2.52.64-1.78a.94.94,0,0,0,0-.92A1.51,1.51,0,0,0,24,1.72a.71.71,0,0,0-.35-.63,1,1,0,0,0-1,.1L21.29,2,18.72,3.71l-2.45,2L14,7.9l-1.7,1.92-1.9,2.55L8.7,15.05,7,18.38l-1.4,3.44L4.49,25.36,3.71,29l-.47,3.67L3,38.13V39l.13,2.41.31,2.18L4,45.78l.82,2.15,1.88,3.39,2,2.68L11,56.37l2.52,2.05,2.89,1.81,2.16,1.05,2.23.86,2.29.65,2.34.45,1.57.18,2.38.09.8,0,1.59-.11,1.58-.22,1.59-.32,1.77-.5,2.69-1.06,2.6-1.4,2.47-1.74,2.28-2.08,1.91-2.21a1,1,0,0,0,.24-.83A.62.62,0,0,0,48.52,52.59ZM38.67,59.3l-3.19.9-2.1.33-2.13.13h-.72l-2.15-.14-2.15-.33-2.13-.52L22,59l-2-.89-1.81-1-2.8-1.92-2.56-2.3L10.53,50.2,8.8,47.55,7.55,45,6.92,43l-.45-2.37-.21-3.87V36l.23-4.46L7,28.06l.74-3.34,1-3.23L10,18.4l1.51-2.92,1.73-2.73,2.63-3.37L18,7l2.5-2.18.26-.18-.64,1.4L19.3,8.62,18.53,12l-.27,2-.89,9.28-.08,3.48.08,2.32.21,2.6.54,3.43.68,2.79.92,2.7.92,2.08,1.11,2,1.3,1.88,1.51,1.77,1.71,1.62L27.7,51l1.56,1,1.81.91,5.3,1.48,4.3.83,2.07.12.87,0,1.68-.2L43.64,56.6l-2.42,1.54Z"/><path d="M49.31,20.68l-.11-1.16-.34-1.41-.56-1.25-.72-1.08-.87-.91-1-.74-1.36-.69L42.88,13l-1.23-.11-1.55.13-1.22.32-1.2.54-1.48,1-1,.87-.86,1-.72,1.09-.38.77-.39,1.13-.24,1.12L32.58,22v.37l.15,1.07.49,1.47.5,1,.62.84.71.72,1.06.76,1.16.54,1.23.34,1.6.16h.33l1.63-.19,1.63-.47L45,28l1.26-.84.89-.8.8-.94.63-1,.44-1,.24-1,.08-1.24Zm-9.23-5.22,1.55.29,1.3.56,1.17.86.83.94.65,1.12L46,20.54,46.17,22,46.1,23.2l.48.05v0l-.48,0-.07.34-.31.75-1,.94-1.52.58L41.54,26l-.48,0-1.41-.29-1.1-.5-1-.74-.66-.79-.52-1-.34-1-.14-1.08.08-1,.39-1.33L37,17.13l.79-.84.9-.56a1.53,1.53,0,0,0,.41-.23l.78-.05Z"/><path d="M31.07,31.49l-.61.42-.33.37-.8,1.06-.84,1.46-.26.66-.08.45,0,.29a.81.81,0,0,0,0,.71.62.62,0,0,0,.51.35h.07a1.27,1.27,0,0,0,.92-.53l1-.89.45-.57.58-.84.65-.8.3-.75A1.31,1.31,0,0,0,33,31.51a.72.72,0,0,0-.49-.39,1.19,1.19,0,0,0-.9.24Z"/><path d="M40.22,39.31l.57.6.15.1a.55.55,0,0,0,.28.24.75.75,0,0,0,.26,0,1,1,0,0,0,.58-.21,1.29,1.29,0,0,0,.56-.92L43,37.91l0-.75,0-.7-.15-1.3-.16-.83-.39-.55-.59-.14a.72.72,0,0,0-.26-.14,1.17,1.17,0,0,0-1,.28A1.61,1.61,0,0,0,39.72,35l-.26.65-.07.58.43,1.94.18.63Z"/><path d="M56.36,32.5l-.45-.76-.66-.63L52.57,29.3,51.51,29l-.55.09a1.4,1.4,0,0,0-1.29.55,1.34,1.34,0,0,0-.39,1,.53.53,0,0,0,.12.3l.06.47.53.71.79.55,1.38.77,1,.42.94.22h.51l.69,0a1.14,1.14,0,0,0,1-.47,1,1,0,0,0,.25-.83A.67.67,0,0,0,56.36,32.5Z"/><path d="M58.34,12.31a.79.79,0,0,0-.58-.19L57.59,12h-.71L55,12.66l-1.09.55-.77.52-.82.84a1.24,1.24,0,0,0-.54,1,.63.63,0,0,0,.35.52.73.73,0,0,0,.29.07,1,1,0,0,0,.4-.1h.51l3.07-1,.79-.47.41-.4a2,2,0,0,0,1-1.07A.8.8,0,0,0,58.34,12.31Z"/><path d="M47.58,8.31a.68.68,0,0,0,.17.57.67.67,0,0,0,.47.19,1.27,1.27,0,0,0,.26,0,1.43,1.43,0,0,0,.79-.72l.58-.59,1.69-2.15.34-.73,0-.24A1.09,1.09,0,0,0,52,3.73a.69.69,0,0,0-.46-.45,1.38,1.38,0,0,0-1.32.55L50,4l-.59.44-1.1,1.47-.55,1-.22.73,0,.42Z"/><path d="M36.74,7.58l.34.68.34.46.45.35a.69.69,0,0,0,.25.26.72.72,0,0,0,.32.08A1,1,0,0,0,39,9.25a1.33,1.33,0,0,0,.63-.88l.24-.64.12-.49,0-.44-.06-.75-.26-1-.21-1.17-.3-.53-.31-.08a.62.62,0,0,0-.24-.29.92.92,0,0,0-1,0A1.93,1.93,0,0,0,36.72,4l-.45.72-.16.63.06.47Z"/><path d="M26.15,9.77l0,.59.23.36,2.07,1.71.53.33.68.22.5.07a.73.73,0,0,0,.28.06,1.13,1.13,0,0,0,.77-.36,1,1,0,0,0,.32-1.05l-.17-1.06L31,9.89l-.4-.57-1-1.08-.55-.42-.64-.17-.83.21a1.51,1.51,0,0,0-1.22.62,1.25,1.25,0,0,0-.34,1A.71.71,0,0,0,26.15,9.77Z"/><path d="M24.84,20.74l.14.15.73.07,1.7-.39,1.32-.35,1.09-.49a1.35,1.35,0,0,0,.86-.64.81.81,0,0,0,.06-.83.59.59,0,0,0-.33-.27l-.63-.44L29,17.39l-.65,0-1.3.21-.64.16-.81.45-.42.4a1.94,1.94,0,0,0-1,1.05.82.82,0,0,0,.15.85A.63.63,0,0,0,24.84,20.74Z"/></svg>