<svg xmlns="http://www.w3.org/2000/svg" width="48" height="48" viewBox="0 0 48 48" fill="#899BB5"><path d="M33.22,17.38,33,17.24l-.2-.19-.18-.23-.16-.27-.15-.33-.14-.38L32,15.41l-.14-.49-.21-.86a1.93,1.93,0,0,1,.94-1.65,1.58,1.58,0,0,1,.89-.35.49.49,0,0,1,.52.38l.07.3.13.53.13.46.13.4.13.32.12.26.11.18.13-.16.83-1.16.52-.72.6-.77.68-.81.77-.83.46-.44A1.87,1.87,0,0,1,40,9.41a.52.52,0,0,1,.42.18c.28.34,0,1.05-.57,1.62l-.25.24L39,12l-.54.63-.51.67-.49.67-.47.66-.47.64-.36.47-.28.32-.31.33-.37.34-.44.32-.47.24-.44.12H33.5Z"/><path d="M34.55,23.35l-.36-.06-.35-.12L33.5,23l-.33-.2-.32-.22-.3-.26-.28-.27-.24-.3-.21-.31-.16-.33-.31.16-.56.21-.58.15-.59.06-.57,0-.55-.16-.39-.21-.25-.18-.23-.21-.21-.24-.11-.14-.08-.15L27.11,20l0-.42,0-.44.08-.45.12-.45.22-.63.14-.33L27.28,17l-.37-.34-.36-.38-.34-.41-.32-.44L25.61,15l-.24-.45-.17-.46-.1-.47v-.4l0-.33.07-.23a1.07,1.07,0,0,1,.07-.19l.05-.11.36-.54.58-.59.42-.3-.12-.24-.22-.54-.17-.57-.1-.6V8.34l.11-.69L26.39,7l.23-.46.16-.27.1-.15L27,6l.53-.57.78-.55L29,4.64l.53,0,.43.09.36.16.34.21.45.35.37.37.06-.11.31-.55.39-.55L32.74,4l.57-.52L34,3.06l.69-.32.66-.17.62,0,.58.12.31.11.18.09.31.26.27.34.22.38.19.42.17.44.21.66,0,.09.39-.26.52-.27.51-.2.48-.13.46-.08.45,0h.43l.41.06.38.12.35.16L43,5l.18.13.28.24.26.24.21.23.19.22.15.23.12.23.09.23.07.35v.5l-.17.6L44,8.79l-.6.74-.17.17h.19l.33.05.23.1.13.09.18.2.31.4.29.49.26.53.21.56.14.58.07.58v.48l-.06.35,0,.22-.06.17-.06.14-.38.62-.62.67-.55.42.12.15.22.35.16.38.08.44-.05.54L44,19l-.55.73-.48.45-.27.2-.2.13-.33.2-.49.26-.63.25-.59.15-.53.06-.47,0L39,21.25l-.23-.09,0,.06-.3.43-.51.51-.71.52-.68.33L36,23.2l-.53.1-.48.05h-.42ZM34,19.5l.15.23.19.23.22.23.24.2.25.19.26.16.24.11.2.08L36,21l.17.1V21l.31,0,.28-.05h0l-.2-.64-.07-.39.07-.52.58-.91.9-.63.38-.1h.13l.27,0,.26.09.22.13.2.14.28.23.39.31.32.19.21.09.21.06.21,0h.21l.23,0,.27-.09.06,0,0-.07-.16-.26-.2-.27-.39-.41-.42-.39L40.15,17l-.23-.2-.2-.22-.16-.28a.81.81,0,0,1,0-.28l.06-.31.79-1.12.94-.48h.34l.21.07.21.11.42.28.17.11.11.06H43l.21,0,0-.36L43,13.85l-.17-.47-.21-.45-.24-.41-.25-.33L42,12l-.06,0-.6.09-.39,0-.32,0L40.41,12l-.17-.22-.08-.25a.61.61,0,0,1,0-.2l.07-.4.29-.66.4-.56.39-.43.39-.37L42,8.66l.12-.06h0l0-.15,0-.11L42,8.19,41.91,8l-.14-.18-.17-.18-.22-.2-.26-.22L41,7.15,40.72,7l-.23-.07-.24,0h-.52l-.24,0L39.27,7l-.18,0L39,7.07h0v.36L37.48,9.21,36.6,9l-.12-.21L36.2,7.67,36,7.08l-.19-.61-.14-.38-.15-.34-.16-.29-.16-.21-.15-.14L35,5.06l-.12,0-.31-.08-.22,0h-.14l-.14-.1L34,5l-.11.1-.14.19-.16.25-.15.3-.14.33-.12.34-.08.33-.06.32,0,.31V7.6A2.29,2.29,0,0,1,31.9,9.21a1.36,1.36,0,0,1-.67.21.62.62,0,0,1-.31-.07h-.07a.45.45,0,0,1-.37-.16l-.39-.51-.19-.24-.33-.38-.47-.47-.37-.3-.23-.14,0,0,0,.35.07.45.13.46.18.45.23.44.25.42.27.38.2.25.18,0,.3.12.27.18.21.25.15.34,0,.27a1.62,1.62,0,0,1,0,.21L30,13,29,13.42l-.26-.06-.19-.12-.25-.2L28,12.78l-.18-.2-.08,0h-.13l0,.08.19.38.25.39.28.39.31.37.32.34.32.3.13.1.06-.05.92-.18.36.31.07.27v.27l0,.24-.14.42-.51.72-.56.41,0,.11-.07.26-.05.25,0,.2v.16l0,.14v.18l.07-.06.16.18.15.14.14.12.21.12.3.1.28,0,.27,0,.27-.05.26-.09.25-.12.24-.13.21-.13.52-.53.52-.35.25-.12h.06l.83.06-.25,1.24Z"/><path d="M29,28a.5.5,0,0,1-.44-.25,1.1,1.1,0,0,1,.19-1l.84-1.33.28-.43a2.21,2.21,0,0,1,1.57-1.07.53.53,0,0,1,.48.27,1.17,1.17,0,0,1-.22,1.05l-.28.42-.79,1.27a2.26,2.26,0,0,1-1.6,1.1Z"/><path d="M40.06,28.38a.52.52,0,0,1-.49-.27l-.3-.65-.5-1-.35-.62-.2-.31c-.23-.38.06-1.09.67-1.64a1.81,1.81,0,0,1,1.1-.52.51.51,0,0,1,.45.22l.2.31.38.65.51,1,.32.68c.19.41-.14,1.13-.76,1.65a1.79,1.79,0,0,1-1,.46Z"/><path d="M32.18,45.92a.49.49,0,0,1-.53-.44l-.06-.37-.67.1-1.62.2-1.67.15-1.73.13-1.77.09-1.8.07-1.83,0-1.86,0h-2.8l-3.75,0-6.4-.09-2.63,0L3,45.64l0,.09a.72.72,0,0,1-.27.05.56.56,0,0,1-.41-.15.58.58,0,0,1-.12-.44l0-.37.07-.74.16-1.14.29-1.55.41-1.58.5-1.58.45-1.18.34-.79.38-.78.4-.77.44-.77.47-.76.51-.74.55-.73L7.75,31l.63-.68L9,29.66l.7-.62.73-.57.77-.53.78-.48.81-.42.46-.2-.36-.23-.6-.49-.55-.53L11.3,25l-.42-.62-.34-.66-.27-.7-.19-.73L10,21.53l0-.79.07-.81.18-.84.3-.87.21-.49.21-.41.38-.7.43-.68.45-.64.48-.61.52-.56.54-.51.57-.46.58-.4.57-.34.57-.26.56-.2.54-.14.52-.09.51,0h.49l.47,0,.47.08.45.12.44.14.43.18.42.21.59.35.75.56.7.64.64.71.56.78.48.82.4.87.3.9.2.92L26,20l0,.73-.06.5-.1.5-.14.5-.2.51-.25.52-.3.53-.39.54-.44.53-.51.5-.56.47-.36.25.06,0,.8.27.76.33.72.39.69.43.66.48.62.52.59.57.57.59.53.63.51.66.47.69.45.71.42.73.4.74.37.76.51,1.16.59,1.56.51,1.56.41,1.54.26,1.13.15.73.12.71.11.68L34,44a2.1,2.1,0,0,1-1,1.64,1.53,1.53,0,0,1-.82.31ZM7,43.4l6.42.09,3.73,0H20l1.84,0,1.81,0,1.78-.06,1.74-.09,1.69-.13L30.45,43l.75-.09L31,42l-.4-1.49L30.1,39l-.57-1.51L29,36.41l-.36-.73L28.3,35l-.4-.7-.43-.67L27,32.93l-.48-.62-.5-.6-.53-.56L25,30.63l-.58-.49-.6-.44-.63-.4L22.49,29l-.68-.3-.71-.25-.74-.19-.76-.13L18.81,28H18l-.44,0,0-.1,0,.11a.64.64,0,0,1-.23.05l-.45,0-.82.07-.78.12-.74.17-.69.2-.66.25-.62.28-.58.31-.55.34-.51.37-.49.39L9.92,31l-.44.45-.43.47-.4.5-.4.53-.38.56-.36.59-.35.61-.33.64-.3.66-.29.67-.4,1-.45,1.42L5,40.56,4.77,42l-.14,1,0,.37ZM16.6,14.09l-.33.05-.3.07-.29.09-.26.12-.25.13-.24.15-.25.18-.25.23-.26.28-.28.33-.3.41-.3.47-.31.56-.24.49-.21.56-.14.59-.06.61V20l.08.62.16.61.23.6.29.58.36.54.42.52.48.47.53.43.58.38.62.32.68.27.37.11a.24.24,0,0,1,.12.09l.64,0,.74-.08.68-.09.63-.12.56-.15.5-.16.44-.17.37-.17.31-.17.25-.16.2-.15.17-.15.15-.16.14-.17.13-.21.12-.25.12-.27.09-.31.07-.33,0-.34,0-.54-.06-.78-.17-.8L23.15,19l-.36-.78-.43-.75-.51-.71-.57-.65-.63-.58-.67-.5-.53-.32-.36-.18-.36-.15-.37-.12-.36-.1-.36-.06-.36,0h-.34Z"/></svg>