<?xml version="1.0" encoding="utf-8"?>
<!-- Generator: Adobe Illustrator 24.2.0, SVG Export Plug-In . SVG Version: 6.00 Build 0)  -->
<svg version="1.1" id="Layer_1" xmlns="http://www.w3.org/2000/svg" xmlns:xlink="http://www.w3.org/1999/xlink" x="0px" y="0px"
	 width="32px" height="32px" viewBox="0 0 32 32" enable-background="new 0 0 32 32" xml:space="preserve">
<g>
	<path fill="#1FA28F" d="M23,29.63c-0.33,0.17-0.66,0.33-1,0.47c-1.85,0.79-3.87,1.23-6,1.23s-4.15-0.44-6-1.23
		c-0.34-0.14-0.67-0.3-1-0.47c-3.51-1.8-6.23-4.93-7.51-8.71c-0.12-0.33-0.22-0.66-0.31-1.01C0.85,18.66,0.67,17.35,0.67,16
		C0.67,7.55,7.55,0.67,16,0.67S31.33,7.55,31.33,16c0,1.35-0.18,2.65-0.51,3.9v0.01c-0.09,0.35-0.19,0.68-0.31,1.01
		C29.23,24.7,26.51,27.83,23,29.63z"/>
	<path fill="#FFFFFF" d="M30.38,19.68l-1.37-0.51L28,18.79v-1.15c0.61-0.55,1-1.34,1-2.22V14.5c0.06-0.06,0.09-0.13,0.11-0.21
		l0.47-2.17c0.08-0.45-0.02-0.91-0.28-1.29c-0.27-0.37-0.67-0.62-1.12-0.7l-2.85-0.47c-0.49-0.09-0.99,0.05-1.37,0.37
		c-0.27,0.23-0.46,0.54-0.54,0.89c-0.27,0.09-0.52,0.25-0.7,0.48c-0.28,0.35-0.39,0.8-0.29,1.26l0.45,1.65
		c0.02,0.08,0.07,0.15,0.12,0.21v0.9c0,0.88,0.39,1.67,1,2.22v1.15l-1.01,0.38l-1.37,0.51c-0.14,0.06-0.28,0.12-0.4,0.2
		c-0.01,0.01-0.02,0.01-0.03,0.02l-0.52-0.32c0.22-0.1,0.41-0.24,0.57-0.43c0.32-0.37,0.46-0.87,0.38-1.35
		c-0.24-1.51-0.37-3.04-0.37-4.57v-1.65c0-1.44-0.59-2.74-1.53-3.69c-0.94-0.95-2.24-1.53-3.68-1.53c-2.88,0-5.22,2.34-5.22,5.22
		v1.65c0,1.53-0.12,3.06-0.36,4.57c-0.08,0.48,0.06,0.98,0.38,1.35c0.14,0.18,0.32,0.31,0.52,0.41l-0.55,0.34
		c-0.01-0.01-0.02-0.01-0.03-0.02c-0.13-0.08-0.26-0.14-0.4-0.2l-1.37-0.51L8,18.79v-1.15c0.61-0.55,1-1.34,1-2.22V14.5
		c0.06-0.06,0.09-0.13,0.11-0.21l0.47-2.17c0.08-0.45-0.02-0.91-0.28-1.29c-0.27-0.37-0.67-0.62-1.12-0.7L5.33,9.66
		c-0.49-0.09-0.99,0.05-1.37,0.37c-0.27,0.23-0.46,0.54-0.54,0.89c-0.27,0.09-0.52,0.25-0.7,0.48c-0.28,0.35-0.39,0.8-0.29,1.26
		l0.45,1.65C2.9,14.39,2.95,14.46,3,14.52v0.9c0,0.88,0.39,1.67,1,2.22v1.15l-1.01,0.38l-1.37,0.51c-0.16,0.06-0.3,0.13-0.44,0.23
		c0.09,0.35,0.19,0.68,0.31,1.01c1.28,3.78,4,6.91,7.51,8.71c0.33,0.17,0.66,0.33,1,0.47c1.85,0.79,3.87,1.23,6,1.23
		s4.15-0.44,6-1.23c0.34-0.14,0.67-0.3,1-0.47c3.51-1.8,6.23-4.93,7.51-8.71c0.12-0.33,0.22-0.66,0.31-1.01V19.9
		C30.68,19.81,30.54,19.74,30.38,19.68z"/>
	<path fill="#164A58" d="M16,0C7.18,0,0,7.18,0,16c0,1.52,0.21,3,0.62,4.39c0.12,0.44,0.26,0.87,0.43,1.29
		c1.44,3.81,4.31,6.93,7.95,8.7c0.33,0.16,0.66,0.31,1,0.45c1.85,0.75,3.88,1.17,6,1.17s4.15-0.42,6-1.17
		c0.34-0.14,0.67-0.29,1-0.45c3.64-1.77,6.51-4.89,7.95-8.7v-0.01c0.17-0.42,0.31-0.84,0.43-1.28C31.79,19,32,17.52,32,16
		C32,7.18,24.82,0,16,0z M23,29.63c-0.33,0.17-0.66,0.33-1,0.47c-1.85,0.79-3.87,1.23-6,1.23s-4.15-0.44-6-1.23
		c-0.34-0.14-0.67-0.3-1-0.47c-3.51-1.8-6.23-4.93-7.51-8.71c-0.12-0.33-0.22-0.66-0.31-1.01C0.85,18.66,0.67,17.35,0.67,16
		C0.67,7.55,7.55,0.67,16,0.67S31.33,7.55,31.33,16c0,1.35-0.18,2.65-0.51,3.9v0.01c-0.09,0.35-0.19,0.68-0.31,1.01
		C29.23,24.7,26.51,27.83,23,29.63z"/>
	<path fill="#164A58" d="M30.82,19.91V19.9c-0.14-0.09-0.28-0.16-0.44-0.22l-1.37-0.51L28,18.79v-1.15c0.61-0.55,1-1.34,1-2.22V14.5
		c0.06-0.06,0.09-0.13,0.11-0.21l0.47-2.17c0.08-0.45-0.02-0.91-0.28-1.29c-0.27-0.37-0.67-0.62-1.12-0.7l-2.85-0.47
		c-0.49-0.09-0.99,0.05-1.37,0.37c-0.27,0.23-0.46,0.54-0.54,0.89c-0.27,0.09-0.52,0.25-0.7,0.48c-0.28,0.35-0.39,0.8-0.29,1.26
		l0.45,1.65c0.02,0.08,0.07,0.15,0.12,0.21v0.9c0,0.88,0.39,1.67,1,2.22v1.15l-1.01,0.38l-1.37,0.51c-0.14,0.06-0.28,0.12-0.4,0.2
		c-0.01,0.01-0.02,0.01-0.03,0.02l-0.52-0.32c0.22-0.1,0.41-0.24,0.57-0.43c0.32-0.37,0.46-0.87,0.38-1.35
		c-0.24-1.51-0.37-3.04-0.37-4.57v-1.65c0-1.44-0.59-2.74-1.53-3.69c-0.94-0.95-2.24-1.53-3.68-1.53c-2.88,0-5.22,2.34-5.22,5.22
		v1.65c0,1.53-0.12,3.06-0.36,4.57c-0.08,0.48,0.06,0.98,0.38,1.35c0.14,0.18,0.32,0.31,0.52,0.41l-0.55,0.34
		c-0.01-0.01-0.02-0.01-0.03-0.02c-0.13-0.08-0.26-0.14-0.4-0.2l-1.37-0.51L8,18.79v-1.15c0.61-0.55,1-1.34,1-2.22V14.5
		c0.06-0.06,0.09-0.13,0.11-0.21l0.47-2.17c0.08-0.45-0.02-0.91-0.28-1.29c-0.27-0.37-0.67-0.62-1.12-0.7L5.33,9.66
		c-0.49-0.09-0.99,0.05-1.37,0.37c-0.27,0.23-0.46,0.54-0.54,0.89c-0.27,0.09-0.52,0.25-0.7,0.48c-0.28,0.35-0.39,0.8-0.29,1.26
		l0.45,1.65C2.9,14.39,2.95,14.46,3,14.52v0.9c0,0.88,0.39,1.67,1,2.22v1.15l-1.01,0.38l-1.37,0.51c-0.16,0.06-0.3,0.13-0.44,0.23
		c-0.22,0.13-0.41,0.29-0.56,0.48c0.12,0.44,0.26,0.87,0.43,1.29c0.06-0.29,0.22-0.56,0.44-0.76c0.14-0.13,0.3-0.23,0.48-0.3l1-0.37
		c0.76,0.87,1.86,1.39,3.03,1.39s2.27-0.52,3.02-1.39h0.01l0.85,0.31C9.32,21.09,9,21.82,9,22.62v7.76c0.33,0.16,0.66,0.31,1,0.45
		v-8.22c0-0.64,0.33-1.23,0.88-1.57l2.19-1.37l0.03-0.02c0.76,0.79,1.8,1.27,2.9,1.27s2.14-0.48,2.9-1.27l0.03,0.02l2.19,1.37
		c0.55,0.34,0.88,0.93,0.88,1.58v8.21c0.34-0.14,0.67-0.29,1-0.45v-7.76c0-0.8-0.32-1.53-0.88-2.06l0.85-0.31
		c0.76,0.87,1.86,1.39,3.03,1.39s2.27-0.52,3.02-1.39h0.01l1,0.37c0.18,0.07,0.34,0.17,0.48,0.3c0.22,0.2,0.38,0.46,0.44,0.75
		c0.17-0.42,0.31-0.84,0.43-1.28C31.23,20.2,31.04,20.04,30.82,19.91z M8,15.42c0,0.65-0.32,1.23-0.8,1.59
		c-0.08,0.06-0.15,0.1-0.23,0.15c-0.03,0.01-0.06,0.03-0.1,0.05c-0.06,0.03-0.12,0.06-0.19,0.08c-0.06,0.02-0.12,0.04-0.19,0.06
		c-0.05,0.01-0.11,0.03-0.17,0.04C6.22,17.4,6.11,17.42,6,17.42c-0.01,0-0.02,0-0.02,0c-0.1,0-0.2-0.02-0.3-0.03
		c-0.06-0.01-0.12-0.03-0.18-0.04c-0.06-0.02-0.12-0.03-0.18-0.06c-0.07-0.02-0.14-0.05-0.2-0.08c-0.03-0.02-0.06-0.03-0.08-0.05
		c-0.08-0.04-0.16-0.09-0.24-0.15C4.32,16.64,4,16.07,4,15.42v-1.24l0.42-0.52h3.15L8,14.19V15.42z M3.79,12.85l-0.2,0.25L3.4,12.42
		c-0.03-0.14,0.01-0.28,0.1-0.39c0.09-0.12,0.22-0.18,0.37-0.18c0.28,0,0.5-0.26,0.5-0.53c0-0.21,0.09-0.4,0.24-0.53
		c0.12-0.1,0.28-0.16,0.44-0.16c0.04,0,0.08,0.01,0.12,0.01l2.85,0.48c0.18,0.03,0.35,0.13,0.46,0.29c0.11,0.15,0.15,0.34,0.12,0.52
		l-0.24,1.12l-0.16-0.2c-0.1-0.12-0.24-0.19-0.39-0.19H4.18C4.03,12.66,3.89,12.73,3.79,12.85z M6,20.64c-0.75,0-1.46-0.28-2-0.77
		l0.68-0.26C4.87,19.53,5,19.35,5,19.14v-0.89c0.04,0.01,0.07,0.02,0.11,0.03c0.11,0.04,0.21,0.07,0.32,0.09
		c0.09,0.01,0.18,0.03,0.26,0.03c0.1,0.01,0.21,0.02,0.31,0.02s0.2-0.01,0.3-0.02c0.1-0.01,0.19-0.02,0.28-0.04
		c0.03,0,0.05-0.01,0.08-0.02c0.07-0.01,0.15-0.03,0.23-0.06c0.04-0.01,0.07-0.02,0.11-0.03v0.89c0,0.21,0.13,0.39,0.32,0.47
		L8,19.86C7.46,20.35,6.75,20.64,6,20.64z M13.73,18.09l-0.84,0.53c-0.01,0-0.01,0-0.01,0l-0.2,0.12h-0.57
		c-0.19,0-0.38-0.08-0.51-0.24c-0.13-0.15-0.19-0.34-0.15-0.54c0.25-1.56,0.37-3.15,0.37-4.73v-1.65c0-2.33,1.89-4.22,4.22-4.22
		c2.32,0,4.21,1.89,4.21,4.22v0.43c-0.47-0.4-1.06-0.65-1.72-0.65h-0.24c-1.43,0-2.79-0.45-3.95-1.28
		c-0.22-0.17-0.53-0.11-0.69,0.11c-0.09,0.12-0.11,0.27-0.08,0.41c-0.77,0.53-1.26,1.38-1.33,2.33c0,0.02-0.01,0.05-0.01,0.07v0.11
		c0,0.01,0,0.01,0,0.01c0,0.01,0,0.01,0,0.01v0.62c0,1.23,0.59,2.3,1.5,2.99V18.09z M18.76,12.39v1.36c0,1.53-1.24,2.77-2.77,2.77
		c-1.52,0-2.76-1.24-2.76-2.77v-0.63c0-0.79,0.47-1.5,1.17-1.84c1.18,0.69,2.5,1.08,3.88,1.08h0.23
		C18.6,12.36,18.68,12.38,18.76,12.39z M16,19.92c-0.76,0-1.49-0.3-2.04-0.81l0.53-0.33c0.15-0.09,0.24-0.25,0.24-0.42v-1.08
		c0.4,0.15,0.82,0.24,1.26,0.24c0.45,0,0.88-0.09,1.28-0.24v1.08c0,0.17,0.08,0.33,0.23,0.42l0.54,0.34
		C17.48,19.62,16.76,19.92,16,19.92z M20.47,18.51c-0.13,0.15-0.31,0.23-0.51,0.23h-0.64l-0.2-0.12c0,0,0,0-0.01,0l-0.84-0.53v-1.36
		c0.9-0.69,1.49-1.76,1.49-2.98V12.9c0.29,0.31,0.48,0.72,0.48,1.19c0,0.08,0.02,0.15,0.06,0.22c0.04,1.22,0.14,2.44,0.33,3.65
		C20.66,18.15,20.6,18.35,20.47,18.51z M28,15.42c0,0.65-0.32,1.23-0.8,1.59c-0.08,0.06-0.15,0.1-0.23,0.15
		c-0.03,0.01-0.06,0.03-0.1,0.05c-0.06,0.03-0.12,0.06-0.19,0.08c-0.06,0.02-0.12,0.04-0.19,0.06c-0.05,0.01-0.11,0.03-0.17,0.04
		c-0.1,0.01-0.21,0.03-0.32,0.03c-0.01,0-0.02,0-0.02,0c-0.1,0-0.2-0.02-0.3-0.03c-0.06-0.01-0.12-0.03-0.18-0.04
		c-0.06-0.02-0.12-0.03-0.18-0.06c-0.07-0.02-0.14-0.05-0.2-0.08c-0.03-0.02-0.06-0.03-0.08-0.05c-0.08-0.04-0.16-0.09-0.24-0.15
		c-0.48-0.37-0.8-0.94-0.8-1.59v-1.24l0.42-0.52h3.15L28,14.19V15.42z M23.79,12.85l-0.2,0.25l-0.19-0.68
		c-0.03-0.14,0.01-0.28,0.1-0.39c0.09-0.12,0.22-0.18,0.37-0.18c0.27,0,0.5-0.26,0.5-0.53c0-0.21,0.09-0.4,0.24-0.53
		c0.12-0.1,0.28-0.16,0.44-0.16c0.04,0,0.08,0.01,0.12,0.01l2.85,0.48c0.18,0.03,0.35,0.13,0.46,0.29c0.11,0.15,0.15,0.34,0.12,0.52
		l-0.24,1.12l-0.17-0.2c-0.09-0.12-0.23-0.19-0.38-0.19h-3.63C24.03,12.66,23.88,12.73,23.79,12.85z M26,20.64
		c-0.75,0-1.46-0.28-2-0.77l0.68-0.26c0.19-0.08,0.32-0.26,0.32-0.47v-0.89c0.04,0.01,0.07,0.02,0.11,0.03
		c0.06,0.02,0.12,0.03,0.19,0.05c0.05,0.01,0.1,0.02,0.15,0.03c0.08,0.02,0.16,0.03,0.25,0.04c0.1,0.01,0.2,0.02,0.3,0.02
		s0.2-0.01,0.3-0.02c0.1-0.01,0.19-0.02,0.28-0.04c0.03,0,0.05-0.01,0.08-0.02c0.07-0.01,0.15-0.03,0.23-0.06
		c0.04-0.01,0.07-0.02,0.11-0.03v0.89c0,0.21,0.13,0.39,0.32,0.47L28,19.86C27.46,20.35,26.75,20.64,26,20.64z"/>
</g>
</svg>
