<svg xmlns="http://www.w3.org/2000/svg" width="64" height="64" viewBox="0 0 64 64" fill="#2E343D"><path d="M55.59,22.12l0-.25-.06-.24,0-.12-.06-.11-.06-.12-.08-.12L55.12,21,55.05,21l-.2-.13-.19-.09-.17-.05-.16,0-.17,0-.16,0-.33,0h-.8l-.73,0-1.85.15-.11.06v0h-.76l-1.52,0-1.52,0-1.52.05L42.58,21,41.05,21l.45-4.25.08-.91,0-.6.08-1.16.08-1.49,0-1.39v-.77l0-.49,0-.3,0-.16-.06-.17-.06-.15L41.46,9l-.11-.13-.14-.12-.09-.07L41,8.62l-.12-.07-.12-.06-.13-.06-.13,0-.2-.06L40,8.26l-.26,0-.26,0-.26,0h-.82l-.56.05-.41,0-.55.07-.53.08-.88.14-.87.13-.35,0H34l-1.24-.06-4.42-.1H25.56l-1.08,0-1.12.05-.89.06-.61.06-.37.06-.36.07-.18,0L20.76,9l-.23.08-.27.13-.34.2-.51.43-.43.56-.12.23-.08.17-.09.25-.07.22-.05.22,0,.2,0,.2v.95l.05.38.07.38.1.49.1.39.11.39.12.4.12.4.34,1,.28.82.23.59.29.72.13.34.12.34.12.4.08.3.06.27,0,.26,0,.22v.35l0,.14a1.26,1.26,0,0,0-.15.34l-5.55.16L12.71,22h-.1l-2.11-.08H9l-.4,0-.37,0-.18,0-.17,0-.11,0-.13.05-.12.05-.17.11-.18.14L7,22.6l-.19.29-.07.21,0,.19v.24l0,.08.05.12.06.11L7,24a.76.76,0,0,0,.54.22h.09a.83.83,0,0,0,0,.35l.24,2.25.27,2.25.37,3,.38,3,.78,6,.76,5.09.31,2.18.39,0-.38.08,0,.23.12,2.15.05.5,0,.38,0,.26.08.5.06.25.06.25.06.24.08.24.09.24.1.23.12.22.13.22.15.2.17.19.15.13.11.09.1.07.18.1.13.05.1,0,.13,0,.13,0h.33l.5,0,5.35-.49.72,0,0-.6.13.6h1.32l.89,0,.89,0,.89,0,.9.07,1.36.11,1.81.17,1.82.18,2.28.21.91.08,1.43.1,0-.6h0l.08.61,7.62.44,2,.09,2,.05h.15l.52,0,.25,0,.2,0,.26-.09.53-.3a4.18,4.18,0,0,0,.46-.42L49,55l.2-.31.15-.31.09-.24.07-.22.11-.43.15-.69.18-1,.59-4L51,46l.56-2.5L52.05,41l.26-1.27.26-1.27.25-1.27.23-1.27.23-1.27.22-1.27.21-1.27.2-1.27.18-1.27.17-1.27.08-.63h-.05l.07-.12.07-.23.65-2.16.13-.48.16-.63.1-.48.05-.25,0-.24,0-.23v-.71Zm-3.45,3.35-.14.44-.49,1.58-.15.55-.06.3-.1.73L51,30.31l-.19,1.25-.2,1.25-.21,1.25-.22,1.25L50,36.56l-.24,1.25-.24,1.26-.26,1.25-.53,2.5-.55,2.49-.7,3.1-.07.36-.51,3.39-.14.88-2-.08-3.89-.21-4.66-.3,0,.6L36,52.44,36,53l-.06-.6-1.34-.1-.89-.08-.9-.09-3.18-.32-1.83-.17-1.37-.12-.92-.08-.93-.06-.92,0-.92,0-.92,0h-.73l-.75,0-3.65.33-1.94.16-.09-.13-.06-.11-.05-.12-.06-.15-.05-.15,0-.17-.08-.37-.07-.41-.07-.53,0-.45,0-.45L14,47.65l0-.73,0-.23-.33-2.19-.33-2.18-.48-2.91-1.63-8.59L10.65,28l-.4-2.14-.33-1.88,2.24.16,2.44,0,2.43,0,5.66,0,3.19,0h3l1.51,0,2.25-.05,3-.09L38.87,24V24a.73.73,0,0,0,.74.75,1,1,0,0,0,.53-.16,1.43,1.43,0,0,0,.58-.69l.91,0,2.25-.06,1.49,0h3.89l1.93-.14.65,0h.71l0,.36-.07.36-.09.39ZM32.52,11.24v.6h.55l.24,0,.47-.05.5-.06,1.91-.32.5-.08.36,0,.22,0,.43,0h.71l.14,0,.12,0,.13.05,0,.34,0,.65,0,1,0,3.33v4.45l-5.34.25-2.27.09-3,.11-1.52,0-1.58,0L23,21.71l.08-.16.1-.22.07-.21.07-.22.05-.21,0-.2,0-.21,0-.21,0-.21V19l0-.43-.05-.54-.06-.44-.08-.43-.08-.45-.09-.46-.16-.68-.25-.84-.32-1L22.12,13l-.1-.36-.09-.34-.09-.41.93-.07,1.66-.06,1.09,0,1.67,0h1.09l2.09,0,2,.08.12-.59Z"/></svg>