<svg xmlns="http://www.w3.org/2000/svg" width="64" height="64" viewBox="0 0 64 64" fill="#2E343D"><path d="M35.64,40.82l.81-.21L37,40.3a3.26,3.26,0,0,0,.67-.67l.32-.55.14-.44,0-.32-3-7-.46.2h0l.4-.35-.46.18h0l.4-.28h0a.83.83,0,0,0,0-.15l.45-.42,2.29-3.08.45-.83.18-.54.18-1.65,0-.83L38,22l-.5-.91-.65-.75-.77-.6-.86-.44L34,18.94l-1.31-.12-.68,0-1.37.23-1.41.5-1.09.6L27.07,21l-.66.7-.57.77-.43.78L25.1,24l-.18.78-.07.76,0,.77.24,1.16.74,1.76.69.95.71.65.5.31.68.25a1.73,1.73,0,0,0-.23.5l-.75,1.92L27.09,35l0,.21.49.1h0v0h0l-.51,0,.49.11-.53,0-.92,2.87-.14,1.06L26,40a.93.93,0,0,0,.73.72l6.71.14Zm-.94-13-.59,1.29-.77,1a1.17,1.17,0,0,0-.51,1.18.63.63,0,0,0,.26.32s0,0,0,0v.13l1.12,5.63-4.66-.15.88-2.66.13-.81V31.92l0-.47a.77.77,0,0,0-.27-.7,1.29,1.29,0,0,0,.26-.95.7.7,0,0,0-.33-.47L30,29.18,28.51,25l-.12-.94,0-.37.2-.59-.44-.24.51.15-.3-.4.42.3,1-.48,1.47-.21,1.34.19,1,.42.68.52.54.69.35.81.18,1.36,0,.56.27,0,.22.07h-.53Zm.9,12.47Zm2-2.25Zm-.05-.17Zm-2.61-6.83-.27.09,0,0,.07-.06Zm1.43-2.5-.06,0,.34.14Zm-9,11.71Z"/><path d="M55.49,31.26l-.31-4.94-.28-2.6-.23-1.37-.44-3.58a.71.71,0,0,0-.23-.58.81.81,0,0,0,.08-.58.64.64,0,0,0-.38-.45L48,12.82l-3.26-2.35L39.33,7.9l-1.17-.62-.07.13.07-.13-.25.44h0l.24-.44L35,4.81l-1.11-.74L32.8,3.61l-.57-.08-.74.1-1.37.47L10.58,16.64a2,2,0,0,0-1,1.3.85.85,0,0,0,.09.5,1.43,1.43,0,0,0-.39.92l-.49,5.81-.19,4-.08,4,.11,3.59.28,2.66L9.15,41l.79,3,1,2.47.76,1.35,1.34,1.67,3.45,3,2.68,1.89,3.59,2.2,3.4,1.77,4.35,1.95a.62.62,0,0,0,.44.16H31a1,1,0,0,0,.36-.09h.06l0,0a1.73,1.73,0,0,0,.28-.19l9.4-6.36h0l3.36-2.47,2.39-1.82L48.73,48l1.94-2,1.41-1.8L53,42.75l1-2,.67-1.94.59-2.91.16-1.54L55.5,32ZM31.6,58.44,20.31,50.59,17.55,48.3l-2.17-2.24-1-1.61-1-2.22-.75-2.73L12.15,36,12,32.58l.21-8v-.9l-.07-.83-.36-3.3-.2-1.12a.7.7,0,0,0-.06-.19l12.25-7.43L28.27,8.1l2.47-1.16,0-.3,0,.31,3.36,2.3,2.15,1.43,3.53,1.43,1.77.72.18-.37-.13.4,5.87,3.45,3.58,2,1.08.47a1.43,1.43,0,0,0-.28.69l-.24,1.94-.19,4,.37,5.29L52,34.29l-.09,2.07-.25,1.83-.37,1.56-.8,2-1.2,1.92-1.56,1.79-6.47,5.25-6.15,5.15-2.4,1.88Zm9.27-5h0l.08.11Zm.29.33,0,0,.07.08Z"/></svg>