<svg xmlns="http://www.w3.org/2000/svg" width="64" height="64" viewBox="0 0 64 64" fill="#2E343D"><path d="M60,51.14a.82.82,0,0,0-.13-.33,1,1,0,0,0,.13-.18.88.88,0,0,0,.08-.89.65.65,0,0,0-.56-.33l-3.24-.22-.55,0,.2-.21.33-.39.29-.39.27-.41.21-.37.12-.23.07-.18.08-.19.11-.37L57.5,46l.17-.71.27-1.24.11-.58.18-1,.14-.81.09-.72,0-.42V40l0-.11-.07-.22-.09-.19-.26-.28L57.67,39H56.22l-.8,0-.8,0-1.2.06-4.71.32-1.17.06-.77,0-.78,0-.77,0h-.74l-.66,0-.65,0-.66,0-1,.09-.69.09h0l.34-.15.23-.12.24-.15.4-.31.42-.38.36-.4.29-.37.23-.36.21-.33.17-.32.31-.59L44.72,35l.16-.3.1-.19v0l.13.05.07,0,0,0,.06,0,.05.06,0,.08,0,.09.1.22.05.13.07.23.19.72.11.4.1.32.08.22.09.22.1.22.13.22.14.21.16.2.19.2.21.17.23.16.19.1.14.07.14.06L48,39l.15,0,.16,0,.16,0,.16,0,.14-.49h0l0,.5h.75l.34,0,.36-.07.3-.09.24-.08.23-.11.24-.12.26-.16.27-.2.17-.13.15-.14.2-.19.21-.23.19-.23.23-.31.26-.4.22-.38.17-.36.2-.45L54,35l.14-.3.13-.24,0-.05.1-.08-.21-.46h0l.31.4-.18-.47.33.4-.2-.46h0l.3.42,0-.5.14.48,0-.5.11.49H55l.12,0,.12,0,.13.06.13.07.12.08.14.11.13.13.13.14.13.15.12.17.12.18.11.19.1.2.1.21.1.21.08.22.08.22.07.22.06.21.05.22,0,.21,0,.2,0,.26a.67.67,0,0,0,.68.68,1,1,0,0,0,.54-.18,1.4,1.4,0,0,0,.67-1l0-.42v-.58l0-.3,0-.3,0-.3-.05-.3-.06-.3-.07-.3-.08-.29-.09-.29-.11-.29-.11-.28-.13-.27-.14-.26-.16-.25-.17-.23-.19-.23-.21-.2-.23-.19L57,31.56l-.27-.13-.28-.1-.23-.06-.16,0h-.54l-.19,0-.19,0-.2.05-.21.06-.2.08-.21.09-.21.1-.21.12-.22.13-.21.14-.32.23-.15.12-.22.2-.22.2-.21.24-.27.33-.28.39-.23.36-.19.35-.23.45-.23.49-.18.37h-.28l-.12,0-.18.48h0l0-.5-.21.46h0l.09-.5-.26.44.12-.5-.06,0-.08,0-.08-.06-.07-.08-.06-.08-.06-.09-.06-.12L49.43,35l0-.13-.05-.14-.07-.24-.19-.76L49,33.33,48.87,33l-.08-.22-.09-.22-.11-.22-.12-.21-.15-.21-.17-.2-.2-.18-.22-.17-.22-.12-.3.41h0l.18-.47-.22-.09H49.3l4.42,0h.82l.26,0,.34-.09.43-.2.5-.35.47-.45.34-.45.21-.38.12-.29.07-.24,0-.2,0-.18v-.49l0-.27,0-.27L57.26,27l-.06-.27-.13-.55-.17-.57-.13-.42-.2-.56-.2-.55-.26-.64-.29-.67-.18-.38-.16-.3-.13-.21-.14-.19-.28-.35L54.64,21l-.31-.32L54,20.37l-.33-.28-.34-.26L53,19.6l-.36-.22-.37-.2L51.88,19l-.39-.16-.39-.14-.4-.13-.4-.1-.41-.09-.42-.08-.42-.05-.42,0-.43,0h-.87l-.43,0-.44,0-.44.05-.44.07-.44.08-.44.1-.44.11-.44.12-.44.14-.43.14-.44.17-.43.17-.43.19-.43.2L40.8,20l-.42.23-.41.24-.41.25-.4.26-.4.27-.39.28-.38.3-.37.31-.36.32-.35.33-.34.34-.33.34-.31.36-.3.36-.28.36-.27.37-.25.38-.24.38-.21.38-.2.38-.18.39-.16.39-.14.39-.12.39-.1.39-.08.39-.06.38,0,.16a.73.73,0,0,0,.14.6.7.7,0,0,0,.53.24h0a.74.74,0,0,0,.11.44.78.78,0,0,0,.71.36h.71l.93,0,.7.05.95.08,2,.18,1,0,1.06,0,.5,0h.1l1-.06,1.09,0h.14l-.23.1-.28.15-.38.25-.43.33-.38.37-.32.35-.27.35-.24.34-.21.32-.18.31-.18.32-.22.43L41.14,36,41,35.8l-.18-.27-.18-.3-.47-.83-.3-.52-.22-.34-.23-.34L39.25,33l-.13-.16L39,32.65l-.14-.15-.15-.14-.16-.14-.17-.13L38.17,32l-.2-.1-.23-.09-.24-.06-.26,0H37l-.3,0-.33.07L36,31.9l-.35.16-.36.2-.35.24-.34.27-.33.31-.29.31-.26.33-.25.33-.22.33-.22.35-.2.36-.2.38-.19.38-.13.3-.19.44-.21.46-.17.41-.1.32-.07.32,0,.24v.15a.81.81,0,0,0,.18.67.76.76,0,0,0,.58.25,1.2,1.2,0,0,0,.55-.15,2,2,0,0,0,1-1.31l.05-.15,0-.1.07-.11.38-.54.15-.23.33-.5.2-.29.18-.24.17-.2.18-.21v0l.13.09.15.13.17.19.22.29.18.27.19.29L37.41,38l.2.33.22.32.17.23.12.16.13.14.13.14.14.13.15.13.17.12.18.1.19.1.22.07.23.05.13,0-.88.13-1,.14-.64.09-.65.08-.64.06-.64.06-.66,0-.34,0a1.54,1.54,0,0,0-1,.42,1,1,0,0,0-.37.15,1.4,1.4,0,0,0-.7,1.06v.43l0,.26,0,.26,0,.25,0,.24.08.34.22.84.07.3,0,.19,0,.19,0,.19,0,.66.05.35,0,.34.06.32.08.31.09.3.09.29.09.22H29.38L29.5,48l.31-1.44.29-1.44.27-1.45.26-1.45.24-1.46.33-2.16.39-2.86.65-5,.19-1.4.2-1.4.21-1.38.1-.69.38-1.61.21-1,.1-.5.06-.37.08-.5,0-.5v-.95l0-.25L33.73,20l-.11-.25-.11-.2-.13-.14-.1-.09-.1-.08L33,19.18l-.21-.1L32.58,19,32.35,19l-.22-.05-.24,0-.23,0h-.73l-.5,0-.38,0-.5.06-.49.08-.48.08-.47.09L27,19.44l-.8.14-.82.1-.55.06-.56,0-.56,0-.56,0-.85,0H21l.71-.76.19-.23.17-.24.33-.47.94-1.43L27.72,10l.48.21.41.18.43.17,2.45.93a.73.73,0,0,0,.33.08,1.31,1.31,0,0,0,.9-.47,1.18,1.18,0,0,0,.34-.88.78.78,0,0,0-.3-.5l-1.1-1.08L31,8l-.33-.3-.35-.28-.41-.31-.45-.31-.41-.26-.25-.14-.14-.06-.18-.05a.85.85,0,0,0-.23,0L28,6.3H28l-.81.37-.48.41-.18.19-.21.26-.49.64L24.73,9.69l-2,3-3.46,5.2-.15.24-.13.24-.64,1.45v0l0,0-2,0H13.94l-1.26.11-.95.12-.64.08-.63.1-.64.11-.63.12-.64.13-.63.15-.63.16L7,21a2,2,0,0,0-1.32,1.08,1,1,0,0,0,0,1,.18.18,0,0,0,0,.07,1.41,1.41,0,0,0-.33,1l0,.92,0,1.94.24,1.77,1,4.95.32,1.64L7.39,37,8,40.3l.46,2.47L9.08,46,9.87,49l-2.4.28-1.73.23a1.91,1.91,0,0,0-1.4,1,1.1,1.1,0,0,0-.11,1l-.23.2a1.58,1.58,0,0,0-.5,1.11.69.69,0,0,0,.2.48l.5-.08-.46.23V54l0,.28-.08.93,0,.32v.59l0,.17,0,.17,0,.18,0,.17.08.19.12.18.08.1.16.14.08.07.21.1.18.05.16,0,.15,0H6l.67,0,.69,0,.34,0,1-.13,0-.51.06.49.05-.4v.4h2.06l1.38,0,1.39,0L15,57.33l1.38-.06,1.39-.07L21.05,57l2.37-.12,2.37-.09,2.36-.06,2.37,0,2.37,0,4.77,0,8.43-.06L51,56.45l3.69-.15,2.46-.14.75,0a.66.66,0,0,0,.62.37,1,1,0,0,0,.53-.16,1.47,1.47,0,0,0,.71-1l.8-2.49ZM57.09,54l-1.6-.11L52,53.71l-4.65-.25-4.71-.16-3.54-.08-2.38,0H32l-2.39,0-2.38.05-2.38.07-2.38.09-3.21.15-1.35.05-1.36,0-1.36,0-1.37,0-1.36,0-2.13,0-.27,0-.27,0-1,.16-.35.08-1,.23-.52.1-.31.05,0-.17,0-.24-.09-.87,0-.31,0-.23,0-.16,0-.16,0-.16L6.19,52l.29,0,3.2.23,3.3,0,6.73-.12,3.38,0,3.37,0,3.37,0h5.06l2.83,0,.45.1.4.07.53.07.55,0,.54,0h1.66l.56,0,.83,0,1.1-.08,1.06-.09L46.68,52l1.65-.1.6,0,.6-.06,5.9-.27,2.36-.14a1.29,1.29,0,0,0-.22.61ZM25,23.15l.45-.08,2.15-.44.44-.08.42-.07.42-.05.29,0,.36,0h.32l.28,0,.2,0v.2l0,.32-.05.38-.09.52-.08.44-.09.45-.49,2.15-.11.79-.19,1.4-.13,1L27.67,30h-5.8l-4.65.08-1.34,0-1.34,0-1.37.09-1.11.15-.76.22-.76.24L10.2,31,10,30l-.32-1.69-.36-1.71-.5-1.65L8.14,23.5,8,23.3H9.4l.53,0,.54,0,1.95.12h1.16l3,.05,1.79,0h1.2l1.21,0,.91,0,.61,0,.61-.05.61-.05.61-.07ZM10.84,33.93l1,0,1.31-.09,1.31-.08,1.33-.07,2-.07,2.69-.09,2-.11,1.38-.1,1.4-.15,1.43-.2,1.09-.23.72-.17.3-.08L28.64,34l-.25,2.79-.19,2.27-.44-.1-2.11-.37-2.21-.2-2.26-.1-1.71,0-2.28,0H16.05l-1.16,0-1.2.06-1.3.21-.91.29-.06-.42-.26-1.69-.46-2.82ZM12.3,42l2.25-.1,1.14,0,1.13,0,1.13,0h1.72l2.33,0,2.41-.13,2.51-.32L28,41.12l0,.51-.18,2.71-.1,1.35L27.62,47l-.14,1.51H21.26l-3.37,0-3.39.07-2.24.13v-.71l-.15-3.61L11.85,42Zm42.54.81-.18,1.12L54.46,45l-.19.91-.2.85-.11.39-.07.12,0,.08-.08.09.27.43-.4-.33-.08.05-.19.11-.28.13-.17.06-.18.07-.2.06-.21.06-.46.1-.24.05-.39.06-.53.07-.54.06-.56,0-1.12.08-1.09.1-.71.08-3.59-.1-5.19-.07-.11,0-.34-.18-.16-.1-.16-.1L37,48l-.14-.12-.14-.12-.14-.14-.13-.14-.12-.15-.12-.16L36.07,47,36,46.85l-.1-.19-.1-.21-.09-.21L35.59,46l-.08-.24-.08-.24-.06-.27-.09-.43-.08-.37-.07-.24L35.05,44l-.12-.32-.19-.46.23,0,.62.06.62,0,.61,0,.91,0,1.22,0,1.23,0,1.53-.07.6,0h1.32l.81,0,.82,0,.81,0,1.21-.07,1.6-.12,1.59-.13L52,42.74l1.17-.08.78,0,.88,0ZM43.69,27.62l-1,0-1.07.06L39.41,28l-1.11.13-.84.11-.56.09-.57.1-.56.12-.22.05-.2,0,.1-.29.11-.3.13-.3.14-.29.15-.28.15-.28.17-.26.18-.26.18-.25.2-.25.2-.23.21-.23.21-.22.22-.22.23-.21.24-.21.25-.19.25-.2.53-.37.27-.18.28-.18.28-.16.3-.17.3-.15.3-.15.31-.14.32-.14.32-.12.33-.12.33-.11.33-.1.33-.09.34-.08.34-.08.34-.06.34,0,.34,0,.34,0,.34,0h1l.33,0,.33,0,.33.05.32.07.32.07.31.09.32.11.3.12.3.13.29.14.29.16.28.17.27.19.27.21.26.21.25.24.24.25.24.27.23.29.12.17.32-.24-.3.27.05.09.21.44.26.61.24.59.18.5.22.66-2.49,0-1.48,0H47.92l-1.5,0-1.12,0-.75,0Z"/></svg>