<?xml version="1.0" encoding="utf-8"?>
<!-- Generator: Adobe Illustrator 24.0.1, SVG Export Plug-In . SVG Version: 6.00 Build 0)  -->
<svg version="1.1" id="Layer_1" xmlns="http://www.w3.org/2000/svg" xmlns:xlink="http://www.w3.org/1999/xlink" x="0px" y="0px"
	 width="51px" height="100px" viewBox="0 0 51 100" enable-background="new 0 0 51 100" xml:space="preserve">
<g>
	<path fill="#E0E5EB" d="M50.56,76.37c-6.23,0-12.46,0-18.53,0c-1.24,5.94-3.58,8.18-7.37,7.65c-3.25-0.45-4.82-2.69-4.63-6.9
		c-5.24,0-10.48,0.09-15.71-0.06c-1.35-0.04-2.68-0.85-4.02-1.3c0.84-1.17,1.45-2.68,2.57-3.47c6.28-4.44,12.61-8.8,19.07-12.98
		c1.84-1.19,2.57-2.41,2.59-4.59c0.14-16.57,0.41-33.13,0.63-49.7C25.18,4,25,2.93,25.23,1.96c0.17-0.72,0.85-1.31,1.3-1.96
		c0.55,0.61,1.48,1.18,1.57,1.85c0.27,2.03,0.26,4.1,0.26,6.15c-0.06,15.55-0.21,31.09-0.15,46.64c0.01,1.52,0.83,3.49,1.95,4.47
		c5.78,5.01,11.76,9.79,17.71,14.6c0.84,0.68,1.88,1.1,2.82,1.64C50.65,75.69,50.61,76.03,50.56,76.37z M42.3,73.82
		c0.16-0.34,0.33-0.68,0.49-1.02c-3.48-2.77-7.33-5.19-10.36-8.39c-4.94-5.21-8.91-3.49-13.5,0.43c-3.78,3.23-8.13,5.81-12.66,8.98
		C18.77,73.82,30.53,73.82,42.3,73.82z M29.3,79.17c-1.74-1.13-2.65-2.21-3.44-2.13c-1,0.11-1.9,1.16-2.85,1.81
		c0.69,0.66,1.36,1.82,2.07,1.85C26.15,80.73,27.25,79.97,29.3,79.17z"/>
	<path fill="#E0E5EB" d="M19.33,88.59c-2.03,1.34-3.99,2.82-6.14,3.94c-0.6,0.31-1.75-0.45-2.65-0.71c1.37-1.78,2.59-3.71,4.18-5.27
		c0.6-0.58,2.04-0.3,3.1-0.42C18.32,86.95,18.83,87.77,19.33,88.59z"/>
	<path fill="#E0E5EB" d="M31.18,86.93c3.95-1.5,8.5,1.06,8.68,3.73c0.04,0.56-0.24,1.55-0.57,1.65c-0.63,0.19-1.6,0.11-2.1-0.28
		C35.29,90.57,33.52,88.95,31.18,86.93z"/>
	<path fill="#E0E5EB" d="M26.69,90.22c0,3.34,0.11,5.63-0.07,7.9c-0.05,0.66-0.94,1.26-1.44,1.88c-0.53-0.59-1.55-1.21-1.52-1.76
		C23.82,95.71,22.71,92.68,26.69,90.22z"/>
</g>
</svg>
