<svg xmlns="http://www.w3.org/2000/svg" width="48" height="48" viewBox="0 0 48 48" fill="#899BB5"><path d="M48,11.47l-.08-1.79,0-.68c.18-.48,0-.84-.37-.84l-5.62-.05-11.28,0-8.46,0-5.64.07-5.63.1-5.62.15-2.8.09a1.47,1.47,0,0,0-.64.23,1.55,1.55,0,0,0-.7.27A2.21,2.21,0,0,0,0,10.68l.1.86.16,1.71.16,2.58.1,3.44v3.46L.4,27.92.21,33.13.09,36.6l0,1.73s0,0,0,.05c-.14.46,0,.79.4.8l2.78.06,5.59.09,8.4.09,11.2.11,8.38.15,5.57.16,2.78.1a2.36,2.36,0,0,0,1.66-1.15c.4-.65.32-1.2-.19-1.21h-.06c0-.06,0-.12,0-.18l.11-1.77L47,32.07l.42-5.35.37-5.37.16-3.59.06-3.6Zm-4.12,26-5.59-.16-8.39-.15-11.2-.11L10.28,37l-5.59-.09-2.28,0,0-1.6.12-3.46.19-5.22.13-5.24v-3.5l-.11-3.49-.17-2.61-.08-.89,1.32,0,5.61-.15,5.62-.1,5.63-.07,8.45,0,11.26.05,5.07,0,0,.67L45.6,13l0,2.65-.06,3.55-.16,3.54L45.05,28l-.42,5.34-.26,3.56,0,.57Z"/><path d="M23.58,28.92l-.06-.78-.09-.77-.13-.74-.18-.71-.24-.69-.29-.64-.37-.6-.43-.56-.52-.51-.6-.46-.69-.4-.58-.26L19,21.65l-.35-.12.23-.25.5-.71.36-.7L20,19.2l.18-.66.11-.64.06-.63v-.62l-.06-.6-.1-.57L20,14.92l-.2-.52-.26-.48-.32-.43-.36-.38-.42-.32L18,12.55l-.55-.17-.61-.07-.69,0-.58.12-.43.12-.42.15-.43.19-.45.23-.46.26-.25.16a2.82,2.82,0,0,0-.82.79l-.29.28-.65.85-.48.86-.31.85-.19.84-.06.44h0a.11.11,0,0,0,0,.05l0,.27v.61l.07.62.14.59.22.56.25.43-.34.17-.68.41-.86.66-.83.8-.71.87-.59.89-.46.91-.37.9-.28.9-.21.9-.15.91-.1.9,0,.91,0,.9v.45c0,.52.54.62,1.2.22l.21-.17,1.64,0,3.69,0,3.7,0,3.71.09,1.85,0a2.15,2.15,0,0,0,1.44-.88A2.19,2.19,0,0,0,23.63,31v-.83ZM16.05,14.8l.37.18.33.23.3.3.25.35.22.39.18.43.13.45.09.47,0,.48v.48l0,.46-.07.44-.09.39-.11.32-.1.24-.07.15,0,.08,0,.07-.11.11-.24.12-.36.09-.45,0L15.73,21l-.46-.1L15,20.83l-.33-.13-.35-.15-.18-.09-.09,0-.2-.12-.26-.22-.31-.34-.24-.4-.18-.43-.12-.46L12.63,18v-.48l0-.25,0-.24.1-.51.12-.4.11-.27.07-.16.1-.15.21-.19.41-.23.33-.13a2.28,2.28,0,0,0,.3-.17l.08,0,.32-.08.44,0,.41,0Zm1.14,16-3.73,0-3.73,0-1.84.05a.87.87,0,0,0-.22.05v-.43l0-.81.09-.8L7.93,28l.17-.72.2-.68.23-.6.25-.53L9,25.08l.26-.37.29-.32.4-.33.38-.24.26-.15.3-.13.34-.13.36-.12.42-.1.24-.05a1.73,1.73,0,0,0,.44-.17h0l.38.14.37.12.53.11.69.07.68,0,.44-.09a.4.4,0,0,0,.3.36l.24.05.43.12.39.12.38.14.52.24.61.36.52.4.44.45.38.49.31.52.25.57.2.59.16.64.12.67.08.7,0,.73,0,.41h-.33Z"/><path d="M28.07,18h1.51l3,0,3-.06,2.28-.09,1.53-.11.76-.07a2.48,2.48,0,0,0,1.64-1.26c.35-.65.19-1.14-.36-1.09l-.73.06-1.49.11L37,15.56l-3,.06-3,0H29.47a2.41,2.41,0,0,0-1.65,1.19C27.43,17.5,27.54,18,28.07,18Z"/><path d="M38,21.38l-4.14,0-2.76-.07-1.39-.08a2.31,2.31,0,0,0-1.66,1.13c-.41.65-.34,1.2.17,1.23l1.39.08,2.8.07,4.19,0,2.79-.07A2.37,2.37,0,0,0,41,22.47c.39-.65.26-1.17-.26-1.16Z"/><path d="M41.7,27.13l-.78,0-1.55,0H37.06l-3.06,0-2.28,0-1.52-.08-.76-.07A2.24,2.24,0,0,0,27.77,28c-.42.65-.37,1.22.13,1.26l.76.06,1.56.09,2.34,0H38l1.51,0,.75,0a2.28,2.28,0,0,0,1.66-1.13C42.28,27.7,42.2,27.15,41.7,27.13Z"/></svg>