<svg xmlns="http://www.w3.org/2000/svg" width="48" height="48" viewBox="0 0 48 48" fill="#899BB5"><path d="M14.29,44.64l-1-4.59-2-9.2L9.77,23.92,8.84,19.3,8,14.67,7.19,10l-.14-.92.67-.27,1.62-.57L11,7.77l1.68-.47,1.71-.43,2.6-.6,3.49-.73L24,4.79l2.62-.62,1.74-.46,1.74-.51,1.71-.56.87-.32A2.69,2.69,0,0,0,34.15.78c.19-.62-.17-.94-.81-.7l-.78.28L30.93.9l-1.65.48-1.69.45L25,2.43l-3.5.75L18,3.93l-2.65.6L13.57,5l-1.77.49L10,6l-1.75.63-1.72.69-.09,0a1.32,1.32,0,0,0-1,.29,2.78,2.78,0,0,0-.92,1.09,1.66,1.66,0,0,0-.23.54.52.52,0,0,0,.18.61l.28,1.78.79,4.64L6.47,21l.92,4.63,1.47,6.94,2,9.22,1,4.59c.1.46.71.45,1.37,0A2.09,2.09,0,0,0,14.29,44.64Z"/><path d="M43,37.78l-1.3-4.7-1.21-4.73-1.14-4.78-1.09-4.79-1-4.8-1.52-7.2L34.66,2c-.1-.47-.71-.47-1.36,0a2.08,2.08,0,0,0-1,1.69l1,4.78,1.52,7.2,1,4.81L37,25.3l1.14,4.78,1.22,4.76,1.3,4.71.08.25-3.17.67-5.3,1.08-5.32,1.1-3.56.78-3.55.83-3.54.9-1.75.48a2.71,2.71,0,0,0-1.56,1.47c-.25.64.05,1,.66.85l1.75-.48,3.49-.89,3.51-.82L25.87,45l5.29-1.1,5.29-1.08L40,42.08l1.3-.28,0,.09c.13.44.76.4,1.41-.09s1.07-1.25.94-1.7Z"/><path d="M34.05,18.12l-.16-.94-.24-.92-.29-.91L33,14.47l-.41-.86-.47-.83L31.62,12l-.56-.76-.6-.72-.65-.67-.68-.62-.72-.57-.75-.51-.79-.45-.81-.38L25.22,7l-.87-.23-.89-.16-.91-.06-.94,0-1,.14-1,.24-1,.37-1,.5L17,8.17a2.85,2.85,0,0,0-1.09,1.21l-.47.39-.71.65-.66.67-.61.69-.55.7-.48.72-.43.71-.35.71-.3.7-.24.7L11,16.7l-.14.67-.08.66,0,.64v.64l.05.63.08.61.12.6.16.6.19.58.21.57.25.56L12,24l.47.79.71,1,.8.95.88.87.95.8,1,.71,1.07.63,1.1.52,1.14.42,1.16.3,1.17.18a.74.74,0,0,0,.69,0l.52,0,.91-.06.63-.09.61-.13.62-.18.62-.23.63-.28.64-.34.63-.41.64-.46.62-.54.59-.59.57-.64.52-.68.48-.73.25-.4s0,0,0-.08l.22-.41.44-1,.35-1L34,22l.15-1,.06-1,0-1ZM31.29,18l0,.09-.15.16-.46.47-.71.6-.76.56-.84.51-.38.19-.18-.87L27.5,18.4l-.41-1.3-.46-1.27-.51-1.27,0,0,.29,0,1.07-.08,1.09,0h.54a1.31,1.31,0,0,0,.45-.1l.32.5.44.78.38.8.34.83ZM21.15,22.63l-.2,0-.42-1-.4-1.18-.34-1.18-.27-1.2-.2-1.23-.05-.49.22-.1.92-.38.93-.33,1-.3.83-.21.12.24.55,1.21.51,1.22L24.76,19l.39,1.25.33,1.28,0,.15-1,.31-1.09.26-1.11.23Zm3-13,.75.35.73.42.71.47.68.54.65.58.11.12-.15,0-1.13.13-1.13.19-.24.05-.19-.38-.67-1.2-.72-1.18-.27-.42.1,0ZM20.23,9h.13c-.26.42-.36.83-.2,1.07l.39.56.75,1.14L22,12.9l.19.34-.15,0L21,13.68l-1.08.45-.74.35v-.15l0-1.29.08-1.33.17-1.37.11-.72a.47.47,0,0,0-.16-.49l.12,0ZM13.12,16.8l.06-.52.09-.51.13-.5.16-.48.19-.47.22-.46.26-.45.28-.44.33-.43.37-.44.42-.43.48-.45.54-.45.6-.45.07-.05a1.46,1.46,0,0,0-.19.51L17,11.5,16.84,13l-.1,1.42v1.44h0l-1,.69-1,.75-.95.78-.43.38a1.85,1.85,0,0,0-.14.14l0-.17,0-.54v-.53ZM13.84,21l-.2-.52-.13-.39a2.4,2.4,0,0,0,.58-.38l.43-.37.79-.65.79-.58.75-.49.08.77.21,1.29L17.42,21l.35,1.24L18,23l-1,.1-1.18.11a1.66,1.66,0,0,0-.64.25l-.47-.66-.44-.75-.26-.51Zm5.07,5.86-1-.67L17,25.48l-.09-.1,1.2-.13.75-.1.32.7L19.83,27l.33.58-.25-.12Zm6.29,1.93-.75,0-.21-.3-.76-1.14-.71-1.14-.65-1.15-.22-.43.43-.09,1.18-.29,1.17-.34,1.15-.41h0l.09.55.13,1.31.07,1.32V28l0,.73-.15,0Zm6.53-6.62-.11.79-.17.75-.23.71-.31.7-.21.38-.09.16-.28.45-.28.38-.28.34-.29.29-.3.27-.31.25-.34.23-.06,0,.07-1.35V25.18l-.07-1.39-.14-1.38v-.06l.91-.54,1.1-.77,1.08-.9.27-.26.07.67,0,.84Z"/><path d="M33.53,34.38l-.35.17-.77.33-.79.3-.82.27-1.28.35-1.77.4-1.82.35-1.85.33-1.87.37-1.86.44-.88.26a2.65,2.65,0,0,0-1.56,1.47c-.24.64.06,1,.67.84l.89-.25,1.75-.42L23,39.24l1.82-.33,1.84-.34,1.85-.42,1.39-.38.94-.31.92-.34.93-.4.49-.24a2.55,2.55,0,0,0,1.36-1.62C34.64,34.28,34.19,34.06,33.53,34.38Z"/></svg>