<?xml version="1.0" encoding="utf-8"?>
<!-- Generator: Adobe Illustrator 24.2.0, SVG Export Plug-In . SVG Version: 6.00 Build 0)  -->
<svg version="1.1" id="Layer_1" xmlns="http://www.w3.org/2000/svg" xmlns:xlink="http://www.w3.org/1999/xlink" x="0px" y="0px"
	 width="64px" height="64px" viewBox="0 0 64 64" enable-background="new 0 0 64 64" xml:space="preserve">
<g>
	<path fill="#FFFFFF" d="M49.1,43.8c-0.6,0-1.3-0.2-1.8-0.7c-0.6-0.5-0.9-1.3-0.8-2c-0.2-0.8,0.2-1.7,0.7-2.2
		c0.5-0.6,1.2-0.9,2.1-0.9c0.7,0,1.5,0.5,2,1.2c0.5,0.6,0.5,1.5,0.5,2c-0.1,1.2-1,2.5-2.5,2.6H49.1z M49.1,39.9
		c-0.3,0.1-0.5,0.2-0.7,0.3c-0.2,0.1-0.7,0.4-0.7,0.9c0,0.4,0,0.8,0.1,1l0,0.1l0,0c0.4,0.3,0.8,0.6,1.2,0.6c0.1,0,0.2,0,0.3,0
		c0.5,0,0.8-0.2,1.1-0.4c0.3-0.2,0.5-0.7,0.5-1.3c0-0.7-0.4-1-0.8-1.1c-0.2-0.1-0.4-0.1-0.6-0.1L49.1,39.9L49.1,39.9z"/>
	<path fill="#FFFFFF" d="M54.9,21.2c-0.5-0.1-1-0.3-1.3-0.5c-0.2-0.1-0.3-0.2-0.3-0.2c-0.1-0.1-0.2-0.2-0.3-0.2
		c-0.2-0.1-0.3-0.2-0.3-0.2c-0.1-0.1-0.2-0.1-0.3-0.2c-0.7-0.3-1.5-0.4-2.4-0.4c-0.3,0-0.5,0-0.8,0c-0.5,0.1-1.1,0.3-1.6,0.5
		l-1.2,0.4l-0.4,0.1c-0.8,0.2-1.6,0.4-2.7,0.6l0,0L43,21v-0.2c0.3-1.2,1.2-2.2,2.4-2.9c0.4-0.3,0.9-0.4,1.5-0.4c0.4,0,0.8,0,1.3,0.1
		l0.8,0c1.1,0.2,2.2,0.5,3.4,1c0.1,0.1,0.2,0.2,0.4,0.2c0.1,0,0.2,0.1,0.3,0.1c0.3,0.1,0.6,0.3,0.8,0.4l0.2,0.1
		c0.6,0.3,0.9,0.8,1,1.4l0,0.1l-0.1,0.1H54.9z"/>
	<path fill="#FFFFFF" d="M52.1,24.3c-0.3,0-0.6,0-0.7-0.1c-0.1-0.1-0.2-0.2-0.2-0.3c0,0-0.1-0.1-0.1-0.1l-0.2-0.2h-2l-0.1,0.1
		c0,0-0.5,0-0.5,0l-0.1,0.1c0,0,0,0,0,0c-0.1,0-0.2,0-0.3,0.1c0,0-0.1,0-0.2,0c-0.2,0-0.3,0-0.5,0.1c0,0-0.1,0-0.2,0l-0.6,0.1
		l-0.1-0.1V24c0.1-0.5,0.5-1,1.1-1.4c0.4-0.3,1.1-0.5,2-0.5c0.5,0,0.9,0.2,1.4,0.4l0.3,0.2h0c0.1,0,0.1,0.1,0.2,0.1
		c0.1,0.1,0.1,0.1,0.2,0.1l0.1,0.1l0.1,0c0,0,0.1,0,0.1,0.1l0.1,0.1c0.3,0.3,0.3,0.6,0.3,0.9L52.1,24.3z"/>
	<path fill="#FFFFFF" d="M49.3,28.4c-0.4,0-0.4-0.2-0.5-0.4c-0.2-0.3-0.4-0.5-0.4-0.7c0-0.1,0.1-0.3,0.1-0.3c0-0.5,0.2-0.8,0.7-0.8
		c0.3,0,0.6,0.1,0.9,0.3c0.2,0.2,0.3,0.5,0.3,0.6l0,0.1l0,0.1c0.1,0.4-0.1,0.6-0.3,0.9C49.7,28.4,49.5,28.4,49.3,28.4z"/>
	<path fill="#FFFFFF" d="M38.6,60.9c-2.2-0.2-4.6-0.3-7-0.3l-13.9-0.1c-2.1,0-9.2-0.2-14-0.2H3.5V60c-0.1-0.9-0.2-1.6-0.2-2.3
		c-0.1-0.5-0.1-0.9-0.1-1.3v-0.5l-2.9-0.1v0c-0.1-0.8,0-1.9,0-3c0.1-0.9,0.1-1.8,0.1-2.5c0-0.1,0.1-0.1,0.3-0.2
		c0.4-0.2,0.8-0.2,1.1-0.2h0.9l-0.4-0.7c-0.3-0.6-0.5-1.2-0.6-1.9l0-0.7l-0.1-6.2c0-1.4,0.4-2.8,1.1-4c0.7-1.1,1.6-2,2.6-2.9
		C5.7,33.2,5.8,33,6,33l0.8-0.4L6,32.1c-0.5-0.3-0.9-0.6-1.4-1.1c-1-1-1.6-2.4-1.7-3.8c-0.1-0.6-0.1-1.4,0-2.2
		c0.2-0.8,0.6-1.6,1.1-2.1c0.3-0.5,0.8-0.8,1.2-1l0.5-0.2l-0.2-0.5c0-0.1-0.1-0.3-0.1-0.6c-0.1-0.9,0.1-1.8,0.5-2.5
		c0.5-0.8,1.2-1.4,2-1.7l0.7-0.4l0-0.3c-0.1-0.9-0.1-1.8-0.1-2.7v-0.3C8.5,11,9.1,9.4,9.9,8c1.2-2.9,4.5-5,8-5.1
		c1.6,0,3.3,0.4,4.9,1.3l0.5,0.3c0.5,0.4,1.1,0.8,1.6,1.3L25,5.9c0.2,0.3,0.3,0.4,0.4,0.5c0.1,0.1,0.2,0.2,0.2,0.2l0,0l0.1,0.2
		c0.1,0.1,0.1,0.2,0.1,0.3l0,0.5l0,0.1c1.3,2.1,1.1,4.3,1.1,4.6l-0.4,4.1h0.8c0.7,0.1,1.6,0.5,2.3,1.2c0.8,0.8,1.2,1.7,1.1,2.5
		c-0.1,0.6-0.3,1.1-0.7,1.4L29.5,22l0.8,0.6c0.3,0.2,0.4,0.3,0.6,0.4c0.9,0.8,1.5,2.1,1.7,3.8l0,0.2c0.1,0.6,0.2,1.5,0.1,2.2
		c0,0.8-0.4,1.7-1,2.2c-0.3,0.4-0.7,0.7-1.2,0.9l-0.8,0.3l0.7,0.5c1,0.7,1.6,1.4,2.3,2.4c0.7,0.9,1.1,1.7,1.2,2.7l0.1,0.4
		c0,0,0,0.2,0,0.4c0,0.1,0,0.3,0,0.4v0.3l-0.1,1.4l0,0.1C34,41.5,34,41.8,34,42c0.1,0.4,0.1,0.6,0.1,0.9c0,0.2,0,0.4,0,0.6
		c0,0.2,0.1,0.4,0.1,0.7c0.1,0.4,0.1,0.6,0.1,0.9v0.5h1.8l-0.3-12.1l0.1-0.1v-0.5c0.2-1.4,1.4-2.7,2.8-2.8l1.7,0l1.3,0.1l10.4,0.4
		c1.1,0.1,2,0.1,2.9,0.1h3.6c0.3,0,0.9,0,1.3,0.1l0,0c0.1,0,0.1,0.1,0.2,0.1c0.7,0.3,1,0.5,1.3,0.8c0.3,0.4,0.7,1.3,0.7,1.9
		c0.1,3.1-0.1,6.3-0.3,9.6l0,0.8c-0.1,0.5-0.1,1.2-0.1,1.7v2.6c0,0.4,0,0.6-0.1,1l-0.2,0.6h1.7c0.2,0,0.3,0,0.5,0l0,0
		c0,0,0,5.5,0,5.5c0,0.1,0,0.3,0,0.4c0,0.2,0,0.5,0,0.6c0,0,0,0,0,0c0,0-0.1,0-0.2,0h-2.3v3.2c0,0.6-0.5,1.1-1,1.1h-0.1
		c-2.1,0.1-4.2,0.2-6.4,0.2c-1.5,0-2.9,0-4.2-0.1c-1.2-0.1-2.3-0.1-3.4-0.1c-1.1,0-2.1,0-3.2,0.1c-1,0.1-1.9,0.1-2.9,0.1H38.6z
		 M4.8,57.2c-0.1,0.2-0.1,0.5-0.1,0.7v0.9l0.1,0.1c0.2,0.3,0.5,0.3,0.7,0.3c0.1,0,0.2,0,0.4,0c0.2,0,0.4,0.1,0.5,0.1
		c0.1,0,0.2,0,0.3-0.1h0l0.1,0c0.5-0.1,0.8-0.1,0.9-0.1h1.4c2.6,0,4.9,0,7.5-0.1l1.7-0.1l14-0.3c0.5,0,1,0,1.4,0.1
		c0.5,0,0.9,0.1,1.4,0.1c0.4,0,0.9,0,1.3,0c0.4,0,0.9,0,1.3,0c0.5,0,0.9,0,1.4,0c1.9-0.2,4.7-0.4,7-0.4c1,0,1.9,0,2.7-0.1
		c0.8,0,1.5,0,2.2,0c1.3-0.1,2.6-0.1,3.8-0.1c1.2,0,2.4,0,3.5,0.1l0.5,0v-2l-0.5,0c-3.9,0.1-7.5,0.1-10.6,0.1l0,0
		c-0.3-0.1-1.2-0.1-3.2-0.2c-1.3,0-2.5-0.1-3-0.1c-0.2,0-0.2,0-0.3,0l-9.8,0.2l-15.6-0.1L11.6,56l-3.3,0c-1,0.1-2,0.1-3,0.1H4.8
		V57.2z M1.5,52.6c0,0.5,0,0.9-0.1,1.3l0,0.7h1.9l0.1-0.1c0.1-0.1,0.3-0.2,0.5-0.2h3.5c1.5,0.1,3,0.1,4.6,0.1l4.8-0.1l15.6-0.2
		c2.6,0,15.5,0.2,15.5,0.2c2.1,0,4.1,0,6.1-0.1c2.6-0.1,5.1-0.1,7.5-0.1H62v-2h-2.1l-1.3,0c-3.8-0.1-7-0.2-10.2-0.2L39.1,52
		c-0.2,0-0.5-0.1-0.8-0.2l-12.6,0c-0.6,0.1-1,0.1-1.6,0.1L16.2,52c-2.7,0.1-5.6,0.1-7.9,0.1H1.5V52.6z M25.2,48.8
		c-0.1,0.3,0,0.7,0.2,0.9c0.2,0.2,0.5,0.5,0.9,0.5H32l4.9,0.2l-0.2-0.7c-0.1-0.3-0.2-0.6-0.3-0.8v-1.2l-0.4,0
		c-0.9-0.1-2-0.2-3.4-0.2c-0.6-0.1-1.2-0.1-1.8-0.1c-0.8,0-1.9,0-3.2,0.1c0,0,0,0,0,0c-0.1,0-0.3,0-0.5,0c-0.2,0-0.4,0.1-0.6,0.1
		h-0.1l-0.1,0c-0.1,0.1-0.4,0.1-0.5,0.1h-0.5V48.8z M39.4,32.9c-0.4,0-0.7,0.3-0.7,0.7l-0.1,4.8l-0.4,10.4c0,0.4,0.2,0.9,0.7,1.1
		l0.9,0c0,0,8.8,0.1,8.8,0.1c3.6,0,7.3,0,10.8-0.1l0.1,0l0.2-0.1c0.4-0.4,0.5-0.7,0.5-0.9v-4.1c-0.1-0.4-0.1-0.6-0.1-0.9
		c-0.2-3.5-0.4-6.9-0.4-10v-0.7l-0.3-0.5c-0.3-0.4-0.6-0.4-1.1-0.4H57c-1.6,0-3.2,0-5.2,0.1L39.4,32.9z M13.5,48.1
		c0,0.2,0,0.4,0.1,0.5c0,0.3,0.1,0.4,0.1,0.5l0,0.8v0.3H18v-0.5c0-0.2-0.2-0.5-0.3-0.7c-0.2-0.5-0.7-0.9-1.5-1.2l-0.1,0
		c0,0-0.1-0.1-0.2-0.1c-0.1,0-0.2-0.1-0.4-0.1l-0.2-0.1l-1.7,0V48.1z M10.2,40.4c-0.1,0.4-0.1,0.7-0.1,1.1v3.8l0.4,0.1
		c0.6,0.1,1,0.1,1.5,0.1c0.7,0,1.3,0,1.8,0.1l0.3,0c0,0,0.1,0,0.2,0c0.1,0,0.3,0.1,0.4,0.1h0.5c0.3,0,0.6,0.1,1,0.2l0.1,0
		c0,0,0.2,0.1,0.3,0.1c0.8,0.4,1.6,1.2,1.9,1.6c0.5,0.4,0.8,1,0.9,1.6l0.1,0.4l4.4,0.1l-0.2-0.7c-0.1-0.2-0.1-0.4-0.1-0.6
		c0-0.3,0-0.5-0.1-0.7c0-0.2,0-0.3,0-0.4c0-0.2,0-0.5-0.1-0.7c0-0.1,0-0.2,0-0.4v-0.8l0.2-0.3l0.1-0.1c0.2-0.1,0.4-0.3,0.5-0.3h1.4
		v-0.5c0.1-0.1,0.1-0.3,0.1-0.4v-0.2l0.1-0.2v-0.1c0-0.1,0-0.2,0-0.2c0-0.1,0.1-0.3,0.1-0.4v-0.2c0.1-0.3,0.1-0.9,0.1-1.3
		c0-0.1,0-0.3-0.1-0.4c0-0.1,0-0.3,0-0.4c0-0.2,0-0.4-0.1-0.5c0-0.1,0-0.1,0-0.2v-0.2H26l0.1-0.1l0.4-0.1c0.3-0.1,0.5-0.2,0.7-0.2
		c0,0,0.1,0,0.1,0c0.2,0,0.3,0.3,0.3,0.5l-0.1,0.5c-0.1,0.4-0.1,0.7-0.1,1v0.8c0.1,0.4,0.1,0.6,0.1,0.8c0,0.2,0,0.3,0.1,0.4
		c0,0.2,0.1,0.3,0.1,0.5l0,0.6v0.1l0.1,0.1c0,0,0,0.9,0,0.9l0.4,0.1c0.8,0.1,1.7,0.1,2.8,0.1h0.5l0.1-0.3c0.1-0.4,0.1-0.7,0.1-1.1
		c0-0.4,0-0.9,0.1-1.3l0-0.1l0-0.2c0-0.1,0-0.2,0-0.3c0-0.1,0-0.2,0-0.4v-2.3c-0.1-0.4-0.1-0.6-0.1-0.8c0-0.8-0.3-1.6-0.6-2.1
		c-0.6-1.3-1.6-2.4-3.1-3.4c-1.1-0.9-2.4-1.5-4.1-1.7l-0.4-0.1l-0.1,0.4c-0.3,0.8-0.8,1.7-1.4,2.6C22.1,34.8,22,34.9,22,35
		c-0.1,0.1-0.2,0.3-0.3,0.5l0,0c0,0-0.5,0.7-0.7,0.9c-0.7,0.9-1.3,1.7-2.3,2.4L18.5,39c-0.2,0.2-0.5,0.2-0.7,0.2
		c-0.4,0-0.5-0.2-0.6-0.3L17,38.5c-0.1-0.2-0.4-0.5-0.6-0.8c-0.2-0.3-0.4-0.5-0.6-0.8l-0.3-0.5c-0.2-0.3-0.4-0.5-0.6-0.8
		c-0.1-0.1-0.1-0.1-0.1-0.2c-0.1-0.1-0.2-0.2-0.2-0.3l-1.3-1.7c0-0.1-0.1-0.2-0.1-0.2c0-0.1-0.1-0.3-0.2-0.4
		c-0.1-0.4-0.3-0.7-0.5-0.9l-0.2-0.2l-0.3,0C10,32,8,33,6.5,34.5C4.8,36,3.9,38.1,4,40.1l-0.1,6.2L4,46.9c0.1,0.6,0.3,1.2,0.6,1.6
		c0.3,0.5,0.9,0.9,1.4,1l0.1,0c0,0,0.2,0.1,0.3,0.1h5.1v-0.5c0.2-0.1,0.3-0.3,0.3-0.5c0-0.1,0-0.4,0-0.5l0.4-0.7h-0.8
		c-0.5,0-1,0-1.5,0.1l-0.6,0.1l-0.7-0.3c-0.1-0.1-0.3-0.2-0.3-0.4c0-0.1,0-0.1,0-0.2l0-0.1c0-0.1,0.1-0.2,0.1-0.4
		c0.1-0.2,0.1-0.7,0.1-1v-3.9c0-0.4,0-0.7-0.2-1l0-0.1v-0.1c0,0,0.1,0,0.1,0c0.2,0,0.3-0.1,0.4-0.2l0.1-0.1c0.1-0.1,0.4-0.2,0.4-0.2
		c0.2,0,0.2,0,0.2,0c0.1,0,0.1,0,0.1,0l0.1,0.1l0.1,0.1l0.1,0l0.3,0.5L10.2,40.4L10.2,40.4z M14.2,32.5l0.3,0.3l1.3,1.7
		c0.1,0.1,0.2,0.2,0.2,0.3c0.1,0.1,0.2,0.2,0.3,0.4c0.2,0.1,0.2,0.2,0.3,0.3c0.1,0.1,0.1,0.2,0.2,0.2l1,1l0.4-0.4
		c0.5-0.6,1-1.2,1.4-1.7l0.2-0.3c0.7-0.6,1.2-1.2,1.9-1.7l0.2-0.2V32c0-0.3-0.2-0.5-0.4-0.6c-0.5-0.4-0.8-1-0.8-1.8v-1.9l-0.6,0.1
		c-0.6,0.1-1.3,0.2-2,0.2h-2.5l0.2,0.7c0.1,0.2,0.1,0.6,0.1,1c0,0.7-0.5,1.4-1.2,1.9c0,0-0.1,0.1-0.2,0.1l-0.6,0h-0.6L14.2,32.5z
		 M23.3,31.2h0.8c1,0,2.1,0.2,3.3,0.5l0.4,0.1l0.2-0.3c0.2-0.3,0.4-0.5,0.5-0.7c0.3-0.5,0.6-0.9,0.8-1.3c0.3-0.5,0.5-0.7,0.9-1.1
		c0.4-0.3,0.7-0.9,0.7-1.2c0.2-0.9,0-1.9-0.7-3.2c-0.9-1-1.8-1.7-2.7-2l-0.3,0l0.1-0.4h0.1c0,0,0.1,0,0.2,0c0.1,0,0.3,0.1,0.5,0.1
		h0.5V21c0-0.2,0-0.4-0.2-0.7c0-0.2,0-0.4,0-0.6v-0.5l0-0.1c-0.3-0.6-0.8-0.9-1.1-1.2l-0.1,0l-0.1,0c-0.1-0.1-0.2-0.1-0.4-0.1h-0.4
		l-0.1,0.3c-0.1,0.4-0.1,0.7-0.1,1v0.7c0,0.6,0,1.1-0.1,1.5c0,0.8-0.3,1.3-0.6,1.9l-0.2,0.4c-0.7,1.3-1.9,2.4-3.3,3.1l-0.1,0.1
		l-0.2,0L21.8,27l0,0.5c0.1,0.3,0,0.4,0,0.6c0,0.1,0,0.2,0,0.4v0.9c0,0.3,0.1,0.6,0.4,0.9l0,0.1c0.2,0.3,0.6,0.5,0.9,0.6L23.3,31.2z
		 M9.1,22c-0.1,0.1-0.2,0.2-0.3,0.2c-0.2,0.1-0.3,0.3-0.5,0.3l-0.2,0.1L8,22.8c0,0-0.1,0.1-0.1,0.1c-0.1,0-0.1,0.1-0.2,0.1
		c-0.6,0.5-1.1,1-1.5,1.5c-0.2,0.4-0.4,0.7-0.8,1.1l0,0l-0.1,0.1l-0.1,0.2c-0.2,0.5-0.4,0.9-0.3,1.4c-0.1,1,0.2,2.2,0.6,2.8
		c0.6,0.9,1.2,1.4,1.7,1.5l0.1,0l0.2,0c1.3-0.6,2.6-0.9,3.9-0.9c0.2,0,0.4,0,0.5,0c0.5-0.1,1-0.3,1.2-0.7c0.2-0.3,0.2-0.6,0.2-0.9
		V29c0-0.5,0.1-1,0.2-1.6l0-0.2l-0.1-0.4l-0.1-0.1c-1.3-0.8-2.3-1.9-3-3.4L10.2,23c-0.1-0.2-0.2-0.5-0.3-0.7l-0.2-0.7l-0.1,0.1v-1
		l-0.1-0.1c0,0,0-0.4,0-0.4c0-0.1,0-0.3-0.1-0.3l0-0.1c-0.1-0.4-0.1-0.5-0.1-0.6v-0.5H8.6c-0.6,0-1,0.4-1.2,0.6
		c-0.4,0.3-0.6,0.9-0.7,1.2c-0.1,0.1-0.1,0.4-0.1,0.5v0.5H7c0.2,0,0.4,0,0.5,0c0.2,0,0.5,0.1,0.7,0.1l0.6,0.3l0.3,0.1L9.1,22z
		 M11.2,19.9v0.8c0.2,0.9,0.5,1.4,0.8,2c1,1.2,1.7,2,2.7,2.3l0.3,0.1H15c0,0,0.1,0,0.1,0.1c1.1,0.8,1.9,1.2,2.9,1.2
		c1.4,0,2.6-0.6,3.4-1.1c1.1-0.9,1.8-1.7,2.3-2.7c0.1-0.2,0.1-0.3,0.2-0.4c0.1-0.1,0.1-0.3,0.2-0.4c0-0.1,0.1-0.2,0.1-0.4
		c0.1-0.1,0.1-0.3,0.2-0.4c0.1-0.1,0.2-0.2,0.2-0.5l0.1-0.1v-1c0-0.8-0.1-1.4-0.2-2.1l-0.1-0.7h-0.8c-0.8-0.1-1.5-0.3-2.3-0.6
		c-0.8-0.4-1.5-1-1.7-1.3l-0.4-0.4l-0.6,0.6c-0.8,0.7-1.7,1.1-2.8,1.2c-0.2,0-0.2,0-0.2,0c-0.1,0-0.2,0-0.3,0c-0.2,0-0.4,0-0.6,0
		h-0.3L11,15.8l0.1,0.6c0.1,0.5,0.1,0.7,0.1,1.1c0,0.6,0,1.2,0.1,1.8l0,0.4L11.2,19.9z M17.6,5.8c-1,0-2.1,0.3-3.3,0.9
		c-1.3,0.7-2.2,1.5-3.1,2.6c-0.8,0.7-1.1,2-1.1,3.9v1.5l5.1-0.1l0.1-0.1c0,0,0.1,0,0.1,0c0.6-0.2,1.3-0.7,1.7-1.1
		c0.4-0.3,0.9-1,1.2-1.8l0,0c0.1-0.1,0.1-0.1,0.1-0.2l0.1-0.1v-0.3c0,0,0.1-0.1,0.2-0.2c0.1,0,0.1-0.1,0.2-0.1c0.1,0,0.2,0,0.2,0.1
		c0.6,0.2,0.8,0.3,1,0.4l0.1,0.2l0,0.3l0,0.1l0.1,0.1c0.8,1,1.5,1.7,2.1,2c0.4,0.2,1.1,0.4,1.4,0.4h2.2v-1c-0.1-1.1-0.5-2.3-1.3-3.7
		l-0.1-0.3h-0.1c0,0-0.2-0.2-0.2-0.2V8.7l-0.3-0.1l-0.2-0.1l-0.5-0.4C23,8,22.9,7.9,22.8,7.8l-0.1-0.1c-0.1-0.1-0.2-0.2-0.3-0.3
		c-0.2-0.2-0.5-0.4-0.8-0.5c-0.9-0.6-2-1-3.5-1.1L17.6,5.8z"/>
</g>
</svg>
