<svg xmlns="http://www.w3.org/2000/svg" width="64" height="64" viewBox="0 0 64 64" fill="#2E343D"><path d="M62.28,28.34l0-.52,0-.53,0-.52-.06-.52-.06-.53L62,25.21l-.09-.52-.1-.51-.11-.51-.12-.51-.13-.5-.15-.5-.16-.49L61,21.18l-.17-.48-.2-.48-.2-.47-.22-.46-.23-.46-.24-.44L59.45,18l-.27-.43-.28-.42-.29-.4-.3-.4L58,15.91l-.33-.38-.34-.37L57,14.81l-.36-.34-.37-.33-.39-.32-.4-.3L55,13.23,54.62,13l-.44-.26-.45-.24-.46-.23L52.79,12l-.49-.19-.5-.18-.51-.15-.52-.14-.54-.12-.54-.1-.19,0h0L48,10.9l-.42-.05-.43,0-.43,0h-.62a.86.86,0,0,0-.41-.1l-.44,0-.3,0-.29,0-.29.05-.29.06L43.8,11l-.29.08-.29.09-.28.09-.28.11-.28.11-.41.18-.53.26-.53.28-.52.29-.51.3-.49.3L37,14.59l-.8.52-.79.53-.77.53-.76.55-.74.55-.73.57-.71.58L31,19l-.67.61-.65.63-.48.49-.32.33-.31.33-.6.68-.57.68-.28.36-.28.35-.53.72-.25.36-.25.37-.25.38-.23.37-.23.38-.23.39-.22.39-.21.39-.21.4L24,28l-.19.4-.19.41-.18.41-.17.42-.17.42-.17.42-.15.43-.15.44-.15.43-.14.45-.13.45-.13.45-.12.46-.11.46-.12.47-.1.48-.1.48-.18,1-.16,1-.15,1.13-.07.6-.06.61-.05.62,0,.62,0,.64v.63l0,.63,0,.64.06.63.06.48.05.31.06.32.07.31.08.31.08.31.09.3.1.31.11.3.12.29.14.31.15.3.16.29.18.29.18.27.2.27.21.26.21.24.23.24.23.23.24.23.25.21.25.21.26.21.26.19.27.19.27.18.27.17L26,52l.28.17.43.23.19.1a.67.67,0,0,0,.57.31h.05l.32.16.57.25.56.23.55.21.93.34,1.23.41.79.25.44.12.42.11.41.1.41.08.4.08.39.06.39.05.38,0,.38,0,.38,0h.76l.39,0,.39,0,.39,0,.4-.05.4-.06.41-.06L40,55l.87-.17.93-.2,1.52-.34.88-.22.4-.11.4-.11.78-.25.38-.13.38-.13.37-.15.37-.15.37-.15.35-.16.36-.17.35-.17.34-.18.35-.18.33-.19.34-.2.32-.2.33-.21.32-.21.32-.22.31-.23.3-.23.31-.24.29-.24.3-.25.28-.25.29-.26.27-.27.27-.26.53-.55.26-.28.37-.42.47-.58.46-.59.45-.61.42-.62.41-.62.39-.64.38-.65.36-.66.36-.67.34-.68.33-.69.32-.7.32-.71.31-.73.25-.6.18-.48.18-.48.16-.49.15-.5.13-.5.13-.5.11-.51.1-.51L62,33l.08-.51.07-.52.06-.52,0-.52,0-.53,0-.52V28.34Zm-4.09,8.49-.15.4-.24.59-.44,1-.3.66-.3.64-.31.62-.31.61-.31.58-.31.56-.32.55-.33.52-.33.5-.22.32-.85.32-1,.34-1,.31-1.46.43-.48.13-.61.16,0-.72.07-1,0-.51.1-1,.06-.52.14-1,.12-.77.18-1,.2-1,.1-.5.39-.1.57-.15.57-.17.56-.17.56-.18.56-.19.56-.21.56-.22.55-.23.55-.24.54-.24.54-.26.53-.26.53-.27.53-.28.79-.45-.1.45-.1.44-.12.43-.12.43-.13.41ZM44.34,51l-1.75.4-.87.19-.8.15-.73.13-.68.08-.33,0-.32,0H37.62l-.32,0-.29,0-.18-.46-.08-.21,0-.2,0-.08,0-.15,0-.31,0-.26.39,0,.52,0,.52,0,.52,0h1.56l.53,0,.52,0,.53,0,.53,0,.53-.06.53-.07.53-.08.53-.09.54-.1.53-.11.54-.12.59-.14.1.49.07.32-.48.16-.66.21-.69.19Zm-19-7.39-.94-.27L24.33,43l0-.4-.06-.54,0-.55V40.38l0-.57,0-.56.05-.57.06-.56.1-.8,1.16.44,0,.22-.1.94-.07.94-.06.94,0,.94,0,.93Zm7.09-19.93.18-.33.19-.34.54-.9.8-1.54.29-.61.19-.42.18-.42.78-.62.69-.53.72-.53.74-.54,1.93-1.37.84-.59.42-.28.42-.27.42-.25.43-.24.32-.16.21-.1.43-.19.43-.16.22-.07.23-.07.22-.06.23-.05.22,0,.36,0a1.29,1.29,0,0,0,.5-.17l.43,0,.46,0-.25.26-.41.45-.41.45-.4.46-.39.47-.39.48-.39.49-.37.51-.34.5-.32.51-.32.5-.31.52-.3.51-.29.52-.29.53-.28.52-.27.53-.26.53-.26.53-.25.54-.24.53-.24.54L39,24.83l-.32.81-1.1-.08-1.06-.1-1-.12-1-.14-1-.15-.93-.16-.48-.07-.24,0,.15-.35.21-.45ZM46.72,39.19l-.18,1.08-.15,1.09-.09.81,0,.54,0,.54,0,.54,0,.53v2.11l0,.23-.46.08-.47.07-1,.12-.47,0-1,.08-.48,0h-.47l-.48,0H40l-.48,0-.48,0-.48,0-.48,0-.48,0L37,46.85l.06-.34.08-.55.05-.36.2-1.82.14-1.11.15-1.1.16-1.1.2-1.25h1.08l1.16,0,1.16,0,1.16-.07L43.77,39l.87-.09.58-.08.58-.08.58-.09.46-.07ZM57.54,23.06l-.26.2-.2.14-.23.13-.24.13-.27.13-.28.13-.31.12-.32.11-.4.13.3-.56.22-.44.19-.41.37-.81.39-.8.48-.94a2.53,2.53,0,0,0,.13-.22l.08.14.2.43.19.43.19.43.17.44.16.45.11.31A1.13,1.13,0,0,0,57.54,23.06Zm-2.29-3.47-.17.2-.33.41-.34.42-.33.44-.65.88-.33.46-.33.48-.29.48-.27.47-.26.48-.4.75-.76.13-.5.07-1,.12-.53.06-1.07.1-1.1.08-1.12.07-.85,0-1.14,0H41.63l.22-.56.21-.51.43-1,.45-1,.47-1,.49-.95.25-.46.51-.92.27-.46.53-.89.57-.88.27-.45.25-.43.26-.42.26-.43.28-.42.28-.42.58-.84.38-.51.55.12.46.13.45.14.44.16.42.18.42.19.4.2.4.22.38.24.37.25.36.26.35.27.34.29.33.3.32.31.31.33.3.33.28.35.28.36.26.37.26.37.13.21A1.73,1.73,0,0,0,55.25,19.59ZM34.92,40.26l-.15,1.12-.12,1.12-.1,1.11-.07,1.11-.07,1.09,0,.57-.65-.15-.49-.12L32.76,46l-.48-.14-1-.3-.49-.16-1-.34-.5-.18-1-.38,0-1.17,0-.9,0-.91.06-.91.07-.92.08-.91,0-.25,1.26.18,1.14.14,1.14.12,1.15.09,1.16.08.58,0Zm-7.23-12.4-.32,1-.23.86-.23.87-.21.88-.2.9-.19.9-.17.92-.08.46L24.9,34.6l.08-.37.2-.86.21-.82.12-.4.24-.78.25-.76.28-.72.28-.71.31-.67.32-.66.16-.32.34-.6.26.15Zm.67,20.72.31.1.52.16.52.16.52.14.52.14.53.13.52.12.52.11.52.11.52.09.52.09.36.06,0,.38,0,.38.05.38,0,.25L34,51.27,33.26,51,32,50.58l-.89-.34L30.63,50l-.52-.23-.52-.25-.52-.26-.38-.22-.31-.18Zm4.41-13.14-1.09-.14-1.09-.15L29.48,35l-.38,0,.11-.67.16-.88.17-.87.18-.86.2-.84.21-.83.22-.81.28-.94.09,0,.48.1.48.09.5.08.51.07.53.07.53.07,1.09.1.55.05,1.14.08.94,0-.33,1.08-.33,1.12-.31,1.13-.29,1.13-.27,1.13-.25,1.15L35,35.68l-1.09-.11Zm14,.09-1.08.11-.81.08-1.09.08-1.11.07-1.1,0-1.11,0H39.38l-.7,0,.19-.92.25-1.09.26-1.08.28-1.07.3-1.07.32-1.06.17-.55h.48l1.19,0,1.19,0,.9-.05.59,0,1.18-.1.59-.06.58-.08.58-.07.57-.09.57-.09.56-.1.67-.14-.26.6-.41,1-.3.78-.37,1.05-.36,1-.34,1.07-.32,1.07-.16.6Zm2.42,13.14.55-.2.55-.21L51,48l-.21.16-.44.32-.46.3-.48.29-.47.25v-.53Zm9.71-16.12a.83.83,0,0,0-.38.1l-.69.27-.47.18-.47.16-.47.17-.47.15-.48.15-.48.14-.48.13L53,34.39l-1,.24-.51.11-.79.17.16-.6.31-1,.32-1,.35-1,.36-1,.29-.73.2-.48.4-.94.44-1,.55-.21.47-.2.46-.2.44-.22.42-.22.42-.23.39-.24.38-.25.37-.26.34-.28.33-.28.29-.3.2-.21.15.6.1.47.09.48.08.48.07.48.06.48,0,.49,0,.48,0,.49,0,.49v1.45l0,.48,0,.48,0,.48-.07.63A.85.85,0,0,0,58.92,32.55Z"/><path d="M21.23,19.77a.83.83,0,0,0,.07-.85.63.63,0,0,0-.53-.32l-1.31-.24-1.13-.17-.39,0-.53,0-.56,0-1.17,0h-.61l-1.57,0-.95,0-1.85.1L9,18.38l-.91.08-1,.1-.63.1-.39.07-.38.09-.18.05-.2.07L5.14,19l-.33.17-.32.2-.86.84-.42,1.43.46.55.33.1.16,0h.13l.17,0,.25-.05.41-.11.27-.08L5.7,22l1-.14,1.65-.18,1.14-.11,1.21-.09,1.57-.1,1.59-.11,1.87-.16.6-.06,1-.12,2.87-.49A1.3,1.3,0,0,0,21.23,19.77Z"/><path d="M18.09,34.15l-.16-.08-.41-.18-.41-.16-.43-.14-.46-.13-.47-.1-.48-.07-.48,0-.49,0-.5,0h-.75l-1,0-1,.07-1.95.17-3.41.28-.5,0-.48.13-.47.14-1.07.3a1.84,1.84,0,0,0-1.25.86,1,1,0,0,0-.11,1,.71.71,0,0,0,.5.37l.1,0,.33.14.35.13.4.13.43.09h.51l.45,0,.47,0,.46,0,3.14-.37,1-.09,1-.1,2.22-.19,1.49-.11,1.5-.14.5,0,.69,0h.07a1.28,1.28,0,0,0,1-.58.88.88,0,0,0,.16-.86A.62.62,0,0,0,18.09,34.15Z"/><path d="M17.22,48.37l-.33-.12-.43-.13-.75-.19-.47-.09-.24,0-.52-.05-.4,0-.56,0-.59,0H11.41l-.92,0-3.73,0-.57,0L6,47.8l-.18,0-.24.08-.12,0H5.4l-.29,0L3.65,49.11l.05,1.74.5.14.16-.48,0,.53.16.06.16,0,.19,0h1L9.19,51l.93,0,.93,0,.63,0,.62,0,1-.1.86-.11.27,0,2.08-.39a1.34,1.34,0,0,0,1-.61.89.89,0,0,0,.12-.86A.58.58,0,0,0,17.22,48.37Z"/></svg>