<svg xmlns="http://www.w3.org/2000/svg" width="48" height="48" viewBox="0 0 48 48" fill="#899BB5"><path d="M33,13.74l.15.55.16.48.16.41.16.36.17.29.18.24.21.2.24.14.29.08h.38l.47-.13.51-.26.48-.34.41-.37.35-.37.3-.35.4-.52.53-.72.53-.74.54-.75.58-.74.6-.71.63-.66.28-.26c.61-.59.89-1.33.62-1.66s-1-.12-1.6.46l-.52.5-.85.91-.76.9-.66.87-.59.8-.5.7-.42.59-.23.3-.1-.12-.13-.22-.14-.3-.14-.36-.15-.45L35.35,12l-.15-.6L35.12,11c-.11-.47-.73-.46-1.4,0a2.12,2.12,0,0,0-1,1.72l.08.33Zm3.45.34h0l-.08,0h.07Z"/><path d="M25.51,12.81l.19.5.25.5.31.49.35.49.38.45.4.42.4.38.41.31.07,0-.19.43-.24.7-.13.49-.09.49,0,.48,0,.44.12.37.06.11,0,0,.11.15.23.27.24.22.27.2.42.22.58.17.62,0,.64-.07.63-.16.62-.24.47-.23,0,.11.17.36.22.34.27.32.3.3.33.28.35.25.36.21.37.18.38.13.37.07h.46l.52-.05.58-.12.65-.2.74-.36.78-.56.55-.57.34-.46.08-.16.34.14.43.1.51,0,.57-.06.65-.17.69-.27.54-.28.36-.22.15-.1.08-.05.29-.22.52-.48.6-.79.33-.8,0-.58-.08-.46L46.39,16l-.24-.39-.2-.25.69-.52.68-.73.41-.68.07-.16.06-.17.06-.24.06-.38L48,12l-.08-.64-.16-.63-.23-.62-.28-.58L46.93,9,46.6,8.5l-.16-.17,0,0-.11-.09-.24-.1-.35-.06-.41,0-.1,0,.41-.39.66-.81.37-.69.19-.64V5l-.07-.37-.1-.25-.12-.24-.17-.25-.2-.25-.23-.25-.28-.26-.32-.26-.17-.13h0L45,2.64l-.37-.18-.41-.12-.44-.07-.47,0-.49,0-.5.09-.53.15-.55.21-.58.3-.56.38L40,3.16l-.23-.73L39.57,2l-.21-.46-.24-.42L38.84.71,38.52.44,38.38.36l-.05,0L38,.22,37.37.09l-.66,0L36,.29l-.75.35-.72.5-.63.57-.52.61-.43.6-.35.6-.13.27L32,3.28l-.5-.39-.36-.22L30.7,2.5l-.44-.1h-.57l-.75.26-.86.6-.58.63-.13.17-.11.16-.18.3-.24.5-.23.66-.13.75v.69l.1.66.18.62L27,9l.18.36-.54.38-.63.63-.4.62,0,.1a.77.77,0,0,0-.08.19l-.07.25-.05.35v.42Zm3.73-1.36h0v.09h0Zm-1.42-.94v-.09h0v.1Zm3,4.8.05-.06-.1.15h0ZM35,18.46v-.14h0l0,.14Zm3.48,2.32v0h0l0,.05Zm0,.08v0Zm.29-1.44,0,0,.07,0Zm5.4-.79V18.5l.05-.09v.11Zm.79-5h0Zm.59.2,0,.09,0-.1,0,0Zm0,0,0,.08h0ZM29.83,5.52l.54.54.36.41.22.27.19.26.17.22.07.09a.49.49,0,0,0,.46.15,1,1,0,0,0,1-.15A2.43,2.43,0,0,0,34,5.61v-.2l0-.35.07-.36.1-.39.13-.38.16-.38.17-.34.18-.29.18-.22.14-.13.1-.06h.32l.27,0,.35.09.15.06.12.07.18.17.17.25.19.33.17.39.16.42.22.69.17.66.1.41.08.36.07.3.06.22.06.16.91.17,1.52-1.85V5l0-.21.05,0v0l0,.09v0h0l.14,0,.21-.07.25,0,.29,0,.3,0,.3,0,.28,0,.27.09L43,5l.09.07h0l.17.13.29.24.25.23.2.22.16.2.12.18.08.17,0,.15,0,.19,0,.17h0V6.84l-.1,0-.35.3-.44.41L43,8.06l-.43.6-.31.72-.08.43a.29.29,0,0,0,0,.13V10l.07.24.15.21.23.12.32,0,.43,0,.39-.06.29,0h.16l.16.17.28.39.27.45.25.52.19.53.13.53,0,.49v0l-.14,0-.21,0h-.17l-.1,0-.13-.07-.2-.12-.22-.16-.23-.15L43.94,13l-.2-.07-.32,0-1,.5-.86,1.2-.06.34a.65.65,0,0,0,0,.2v.05l.16.29.22.23.25.23.29.25.31.27.48.44.44.46.24.31.18.31.07.18-.18.08-.31.11-.27.05h-.25l-.26,0-.25-.07-.24-.11L42,18l-.44-.34-.31-.25-.22-.16-.22-.14L40.57,17l-.21,0h-.18l-.39.09-1,.67-.63,1-.08.54.08.42.12.37.11.34,0,.12-.18,0-.32.05-.34,0h-.22l-.2,0-.24-.09-.27-.14-.29-.18-.3-.21-.28-.24-.25-.26-.22-.27-.17-.26-.09-.21.3-.35.25-1.25-.8-.06h0a1.26,1.26,0,0,0-.26.13l-.57.37-.59.59h0l-.24.16-.27.15-.29.13-.31.1-.31.07h-.32l-.34,0L31,18.63l-.25-.15-.17-.14-.17-.17-.18-.2-.06-.09-.05-.09,0-.17v-.19l0-.24.05-.28.09-.31.06-.17.6-.43.54-.77.16-.46,0-.27v-.26L31.55,14l-.31-.32-1,.19-.14.1-.22-.17-.36-.34-.36-.38-.35-.42-.32-.44-.28-.45L28,11.33l-.08-.22.3,0h.16l.2.22.29.28.26.22.19.12.21.07,1.14-.42,1-1.39v0a1.41,1.41,0,0,0,0-.2l0-.26-.14-.35-.22-.26L31,8.91l-.32-.13-.26-.06-.24-.29L29.88,8l-.28-.47L29.34,7l-.21-.52L29,6l-.07-.51V5l0-.07.21.1.26.17ZM44.54,8.7l-.09.11-.09.08,0-.06Zm-.22,1.82h0l0,0h0ZM42,15.34h0ZM29.13,4.4l-.07.07v0l.1-.14Zm0-.09h0l-.08.12,0-.08Z"/><path d="M43,24.62l-.42-.72-.22-.35c-.23-.36-.93-.2-1.56.36s-1,1.32-.73,1.69l.22.34.4.7.55,1.07.35.73c.19.4.87.29,1.51-.25s1-1.3.83-1.7l-.36-.76Z"/><path d="M48,38l-.09-.58-.13-.55-.18-.53-.22-.49-.26-.47-.3-.44-.33-.42-.36-.38-.4-.36-.42-.34-.45-.31-.48-.29-.5-.26-.51-.25-.54-.21L42,31.79l-1.16-.3-1.2-.21-1.22-.13-1.23,0-1.22.05-1,.11v-.09l-.13-.65-.16-.62-.18-.61-.22-.6L34,28.13l-.26-.55L33.43,27l-.32-.52-.34-.5-.41-.55.22-.34c.43-.67.37-1.25-.14-1.29a1.74,1.74,0,0,0-1.11.49l-.78-.73-.93-.73-1-.66-1-.58-1.09-.5-1.12-.42-1.15-.33-1.17-.25L21.87,20l-1.2-.08-1.2,0-1.2.11-1.19.21-1.19.32L14.7,21l-1.15.56-.84.49-.56.4-.56.42-.54.47-.52.5-.49.53-.46.55-.43.58-.39.6-.36.61-.31.63L7.8,28l-.24.66-.22.67-.18.7L7,30.72,7,31.09h0l-.72.11-.7.18-.7.25L4.11,32l-.67.41-.65.5-.61.56L1.63,34l-.46.65-.38.64L.49,36l-.22.62-.15.61L0,37.79l0,.58,0,.56.08.54L.23,40l.19.5L.65,41l.29.44.35.41.4.38.45.33.51.28.57.24.62.18.69.12.74,0h.8l.44,0a1.58,1.58,0,0,0,.73-.29v.06l.08.4.11.38.14.36.17.34.2.32.21.29.37.41.56.46.62.38.69.28.73.19.76.08.81,0,.84-.17.69-.25.51-.24.48-.29.5-.36.48-.42.47-.47.25-.3.08-.1.15-.2.37-.54.33-.59,0-.1.64,0,3,.11,3,.08,3,0h1.52a1.35,1.35,0,0,0,.64-.2l0,.41.1.46.13.44.17.41.2.4.22.37.25.36.27.32.3.31.32.28L32,47l.35.22.37.2.38.16.58.19.82.13h.67l.48-.06.48-.12.51-.17.53-.24.55-.33.56-.42.54-.49.51-.57.45-.6.23-.36a.61.61,0,0,0,.07-.1l.09-.17.24-.52.19-.54,0-.21.58.09.75.07,1.12,0,1.49,0,.74,0a2.53,2.53,0,0,0,1.69-1.27c.24-.43.25-.77.1-1a2.28,2.28,0,0,0,.8-1.3l0-.35,0-.65Zm-32,4.59,0,.25-.06.23-.07.21-.1.2-.15.24-.15.2.07-.1v0l-.09.11-.09.1-.11.09-.15.1-.14.08-.3.13-.52.13-.57,0-.59,0-.59-.14-.57-.23-.53-.31-.48-.39-.31-.34-.18-.24-.16-.25-.14-.27-.11-.28-.09-.28-.06-.29,0-.3v-.3l0-.32,0-.2v0l0-.15.06-.13L9.83,40l.22-.28,0,0,0,0,.16-.14.2-.13.23-.12.25-.11.26-.08.48-.09.51,0,.33,0,.34,0,.33.08.32.11.32.13.3.16.29.18.27.2.25.22.22.24.2.25.18.27.14.27.11.29.09.28,0,.28,0,.28Zm22.46.89,0,.3,0,.26-.06.2-.08.2-.09.17.06-.1,0,.07-.12.19-.11.14-.09.11-.1.1-.14.1-.18.09-.22.09-.25.07-.26,0-.44,0-.66-.09-.49-.16-.31-.13L34.43,45l-.3-.19-.29-.22-.27-.24L33.31,44l-.24-.28-.21-.29-.2-.32-.16-.33-.14-.34-.11-.35-.09-.36,0-.37,0-.36,0-.36,0-.39.05-.23v.07l0-.17.12-.37.15-.34.17-.32.21-.31.21-.28.45-.49.41-.39s0,0,0,0h.28l.29,0,.3.08.31.12.3.15.3.19.3.23.28.24.4.42.5.65.43.71L38,41l.25.77.15.77,0,.55Zm6.24-2.67-1,0-.68-.06-.67-.1-.68-.15-.35-.1a.89.89,0,0,0-.52.06l-.06-.3-.28-.9L40,38.33l-.47-.8L39,36.81l-.46-.49L38.17,36l-.34-.26-.36-.22-.37-.19-.38-.16-.4-.11L35.9,35l-.44,0-.47,0-.51.11-.55.21-.58.31-.61.42-.37.3a2.23,2.23,0,0,0-.82,1.37l-.21.26-.45.62-.39.66-.33.69-.25.7,0,.07H29l-3,0-3-.07-3-.12-1.5-.08a1.29,1.29,0,0,0-.19,0v0L18.31,40l-.11-.4-.15-.38-.18-.36-.21-.33-.25-.32L17.14,38l-.29-.27-.32-.24-.34-.22L15.83,37l-.38-.16-.4-.13-.41-.11-.43-.07-.44,0-.68,0-.72.11-.53.14-.48.19c-.4-.19-1.16.17-1.7.82l-.29.33-.51.57-.5.59-.4.56-.34.61L7.44,41H6.83l-.61,0-.57-.09-.52-.15-.48-.19-.43-.23L3.84,40l-.33-.31-.29-.33L3,39l-.2-.39-.15-.39-.11-.41-.06-.41,0-.41,0-.41,0-.38.08-.36.1-.33.12-.29L2.92,35l.13-.21.13-.17.15-.17.2-.18.26-.17.34-.18.4-.16L5,33.61l.53-.08.62,0h.35a1.66,1.66,0,0,0,1-.4,1.86,1.86,0,0,0,.47-.18,2.55,2.55,0,0,0,1.29-1.69l0-.36.08-.68.1-.64.13-.6.15-.58.17-.53.19-.5.21-.47.22-.43.24-.39.24-.35.25-.33.25-.3.27-.27.28-.26.29-.24.31-.23.32-.22.57-.32.81-.38.87-.31.93-.24,1-.17,1-.08h1.07l1.08.07,1.09.15,1.08.24,1.08.31,1.05.4,1,.47,1,.55.94.62.88.7.82.77.25.28,0,.05c-.42.67-.33,1.23.19,1.26A1.43,1.43,0,0,0,30.4,28l.12.16.32.46.29.49.27.5.25.52.22.53.2.55.17.56.14.58.11.57c-.23.59,0,1,.52.91l.56-.09,1.07-.11,1.11,0,1.12,0,1.12.12,1.11.2,1.07.28.77.26.49.2.47.22.46.25.44.26.4.29.39.3.35.33.33.35.29.36.26.39.22.41.18.42.15.45.11.46.06.48,0,.5,0,.51,0,.11Z"/></svg>