<svg xmlns="http://www.w3.org/2000/svg" width="64" height="64" viewBox="0 0 64 64" fill="#2E343D"><path d="M8.27,19.22A5.89,5.89,0,0,1,9,21.29c.16-.05.18.73.31,1.33l0,.13.07.18.37.45,2.11-.83.66-1.16.05-.29c0-.14,0-.19-.19-.16.71-.77.91-2.25,1.61-3.17a7.8,7.8,0,0,1,2.93-2.35l-.12-.32.23.28L18.12,15l.2-.07.27-.14.86-.78,0,0c.44-.61.63-1.53-.14-2a2.76,2.76,0,0,0-.7-.24,5.87,5.87,0,0,1-1-.43C15.19,10,14.29,7.83,13.1,5.41L13,5.13l-.11-.19-.11-.18-.15-.22A.64.64,0,0,0,12,4.23a1.14,1.14,0,0,0-.72.31,1.29,1.29,0,0,0-.19.21L11,4.8c-1.18.5-1.63,2.59-2.49,3.55a8.56,8.56,0,0,1-3.9,2.54,5.75,5.75,0,0,0-3.18,1.84l-.32.71L1,13.8V14l0,.2.06.21.09.2.12.16.14.14.15.1.15.08.14.05.15,0,.19,0a4.66,4.66,0,0,1,2.57.59,12.15,12.15,0,0,1,2.7,2.3A8.73,8.73,0,0,1,8.27,19.22ZM11,8.79l.2-.36.17-.36.16-.38.26,1,.13.45.13.45.16.44.13.33.09.22.1.21.11.21.12.21.13.2.13.2.15.19.16.18.16.16.53.51.47.44.59.53-.33.22-.32.21-.32.23-.24.18-.23.2-.23.2-.22.2-.22.22-.22.22-.23.24-.32.37-.4.49-.36.48-.05-.13-.12-.25-.13-.25L11,16.18l-.17-.24-.18-.24-.2-.22-1-1L9,14l-.25-.23-.26-.22-.27-.23L8,13.13l-.29-.21-.3-.19-.18-.11.31-.2.34-.22L8.18,12l.34-.25.34-.28.31-.29.31-.31.3-.32.28-.33.27-.33.26-.35.23-.35ZM12.09,21h0Z"/><path d="M45.67,22.71l.08.06.39.19.5.26.32.17.31.18.3.18.3.19.28.2.28.2.26.22.25.22.23.24.17.19.11.13.2.27.19.28.17.3.06.13.44-.17h0l-.4.29.45-.16h0l-.4.31.57,1.78.13.38.07.14.18.21,0,0a1,1,0,0,0,.59.19l.19,0,.36-.08.58-.3.46-.36.31-.33.21-.27.18-.29.17-.31.13-.28.11-.26.17-.47.28-.81.18-.21.27-.28.28-.26.64-.59.36-.34.26-.26-.34-.34h0l.42.27-.3-.37.4.3-.28-.39h0l.39.31.2-.11.2-.09.22-.09L58,23h.58l.17,0,.23-.06.35-.13.52-.32.67-.71.33-.7,0-.34v-.18l0-.17,0-.18L60.79,20l-.08-.14-.06-.08-.12-.13-.12-.1-.18-.11-.2-.1-.21-.07-.2-.05-.27-.06-.53-.09-.18,0-.09,0-.19-.12-.16-.11L58,18.64l-.17-.14-.17-.15L57.33,18l-.57-.6-.19-.21-.36-.43-.27-.34L55.6,16l-.23-.34-.15-.23L54.94,15l-.24-.42-.21-.39-.15-.34-.07-.18v-.3a.71.71,0,0,0-.73-.84,1.17,1.17,0,0,0-.55.15A1.8,1.8,0,0,0,52,13.84l-.11.39-.07.26-.09.25-.08.24-.1.25-.11.23-.1.23-.12.22-.12.21-.11.2-.13.19-.12.18-.12.16-.12.15-.15.17h0l-.43.52-.31.33-.27.26-.27.25-.27.22-.27.19-.25.16.18.42-.25-.39-.6.22-.44.19-.18.09-.28.16-.45.33-.65.77-.36,1,.18.66Zm7.77-5.08.28.57.22.42.16.28.16.28.16.27.17.27.18.27.19.24.19.24.19.22.19.21.2.2.19.18-.24.2-.24.2-.65.61-.73.66-.41.38-.31.31-.21.21L53,23.6l-.11-.2-.12-.19L52.64,23l-.13-.18-.13-.17-.14-.18L52,22.25l-.29-.31-.31-.29-.31-.27-.33-.25-.33-.24-.13-.09.22-.18.27-.24.27-.25.25-.25.25-.25.25-.28.35-.4.4-.5.18-.26.13-.2.19-.32.21-.38Z"/><path d="M62.92,56.55a.65.65,0,0,0-.5-.31l-.47-.1-2.05-.45-1.08-.17-1.65-.22-2.25-.25-.28,0-1-3.12-.93-3.16-.48-1.56-1.72-5.43-2-6.17-1-3.07-1-3.06-1.32-3.82-.54-1.53-.54-1.53-.56-1.52L43,19.54,42.39,18l-.59-1.51L41.18,15l-.64-1.49L39.84,12,39,10.68l-.82-1.35L37.37,8,37,7.4A.71.71,0,0,0,36.31,7a1.45,1.45,0,0,0-.89.37c-.44.37-.8,1-.58,1.43l.81,2.37.52,1.57.52,1.61.6,1.5,1.22,3,.6,1.48.59,1.49.57,1.49.57,1.49.56,1.5.56,1.5.54,1.51.8,2.27,2.1,6.09,1.07,3,1.08,3L48.39,46,49,47.45l.59,1.49.61,1.47.65,1.45.65,1.44.72,1.54-1.3-.08-1.16,0-.87,0H47.67l-.62.05-.68.08-.68.2-.68.22-.68.24-.28.11a1.86,1.86,0,0,0-1.19,1,.93.93,0,0,0,0,.93.72.72,0,0,0,.63.33h0l1.13.22.52.11h.6l1.66,0h2l1.13,0,1.13.06,1.72.11,2.33.12,1.79,0,1.25,0L60,58.31l1.27-.17.56-.09a1.31,1.31,0,0,0,1-.66A.83.83,0,0,0,62.92,56.55Z"/><path d="M37.08,31.8l0-.16,0-.1-.11-.2a.89.89,0,0,0-.42-.34h0l-.35-.06-.17,0-.17,0L32,31.81l-.87.16-.62.09.11-1,.05-.74,0-.74v-.94l0-.38,0-.36,0-.37-.05-.37-.06-.36-.08-.36-.09-.35-.11-.36-.12-.34L30,25l-.15-.33-.17-.32-.2-.32-.21-.31L29,23.45l-.25-.29-.27-.27-.28-.25-.15-.13-.27-.19-.17-.12-.18-.11-.19-.1-.18-.1-.2-.09-.2-.09-.3-.12-.4-.13-.41-.1-.42-.08-.43-.05-.43,0H23.4l-.44,0-.44.06-.45.09-.45.1-.44.13-.45.16-.45.18-.45.2-.45.23-.45.27-.45.29-.44.32-.43.35-.42.39-.38.39-.27.31-.18.22-.18.23L16,25.4l-.16.23-.14.24-.14.24-.13.24-.11.24-.1.21-.12.32-.12.32-.1.31-.09.32-.11.45-.1.56-.08.54-.07.51-.13,1.26v.14l0,.86,0,.44-.36,0-1,.08-.68.06-.67.07-1,.12a1.64,1.64,0,0,0-1,.52.68.68,0,0,0-.35-.09,1.07,1.07,0,0,0-.56.19,1.25,1.25,0,0,0-.6,1L8.31,36l.07.79.09.78.1.79.11.79.17,1.18.25,1.58.27,1.56L9.66,45,10,46.58l.22,1.09.14.65.17.65.17.64.64,2.21.26.94.16.62.15.62.13.61.1.6.09.6,0,.45,0,.29,0,.28v.46h.48l-.49.11v1l0,.18,0,.19.07.2.09.19.17.22.17.13.1,0,.17.07.13,0,.13,0,.25,0,.27,0h.73l.57,0,.34,0,.72-.08.77-.1,1-.15,1.62-.27,3.28-.59.7-.1,0-.39.05.39L23.55,58l.06.45h.09l2.13.06,1.07,0h.67l.52,0,.5,0,.25,0,.24,0,.24,0,.25,0,.29-.08.37-.15.46-.27.44-.36.3-.32a3.14,3.14,0,0,0,.24-.33l.16-.31.09-.2,0-.14L32,55.9l.12-.46.39-1.78,1-5.09,1.65-8.88-.47-.09v0l.47.05,0-.16.09-.41.2-.72.72-2.49.38-1.34.22-.82.11-.51.05-.24,0-.24,0-.22V32Zm-4.71,8.91-.49,0-1.59,8.73-.53,2.79-.59,2.94H27.26l-1.7,0h-.83l-.21,0-1,.17-3.86.73-.79.14-1,.16-.72.11-.66.08-.58.06-.31,0h-.36V56.5l0-.48,0-.51,0-.34,0-.35-.06-.5-.11-.66L14.91,53l-.16-.65-.18-.65-.19-.64-.3-1L13.35,48,13,46.76l-.17-.58-.67-2.47-.38-1.47-.37-1.48L11,39.28l-.25-1.11-.15-.73-.15-.74L10.33,36l-.1-.53h1.9l.92,0,1.23.06.51,0a.8.8,0,0,0,0,.61l.05.22.06.43.06.53.07,1,.05,1,0,1.11.05.58.1.82.3,2.23L15.84,46,16,47l.16.92.11.53.13.58.13.51.1.3.12.28.06.14.1.18.05.06.06.08.2.17.28.13.21.06.2,0,.19,0h1l.56-.05.46,0,.47,0,2.3-.3L23,50l.06.27v0l0,.12v.07h0V50h0l.13.48.19,0,1.4.19.51.07.34,0,.34,0,.25,0h.83l.18,0,.18,0,.21,0,.24-.08.18-.08a2.73,2.73,0,0,0,.4-.23l.05,0,.81-.82.34-.69.07-.37v-.36l0-.27-.05-.27-.11-.5-.16-.59-.25-.83L28.55,44l-.21-.65-.19-.66L28,42l-.18-.69-.18-.69-.49-2.1L27,37.82l-.14-.68-.12-.68-.11-.68.86-.07.66-.07.66-.08.65-.09.66-.11.41-.07.45-.09,2.58-.58-.22.85-1,3.51-.21.81-.11.49-.07.35ZM17.24,32.08l.05-.24.11-.49.29-1.06,0-.27.08-.55.12-1L18,28l.08-.43.07-.3.11-.37.07-.2,0-.1.05-.11.08-.16.09-.15.09-.13.08-.1.08-.1.13-.12.12-.11.14-.11.16-.12.18-.11.2-.12.21-.11.24-.11.25-.1.27-.09.28-.08.28-.07.3-.05.3-.05.3,0h.62l.3,0,.31,0,.3.05.3.07.3.09.21.07.28.12.27.14.27.15.19.13.11.08.24.19.21.19.2.2.18.2.18.22.16.23.14.23.14.23.12.25.12.26.11.26.1.26.09.28.15.56.07.29.18.9.08.45.09.61.08.61.05.44-.28,0-.62.05-.62,0-.94.05-1.26,0-1.28,0H22l-2,0-2.91.11,0-.15Zm4.5,15.43-.84.09-.29,0-.5,0h-.24l-.12-.46-.14-.67-.16-.92-.15-1-.47-3.51L18.67,40l-.13-.84-.12-.55-.15-.48L18,37.23l-.14-.42-.18-.5-.23-.57,1.21.08,1.92.1h2.61l1.33,0,0,.72v1.55l0,.79.05.79.05.81.08.79.11.78.12.77.14.76.15.74.17.73.18.7.14.52.16.54.45-.13-.42.25.46-.13-.41.29.06.22-.81-.11-.42,0-.32,0h-.23l-.27,0Z"/></svg>