<?xml version="1.0" encoding="utf-8"?>
<!-- Generator: Adobe Illustrator 23.1.1, SVG Export Plug-In . SVG Version: 6.00 Build 0)  -->
<svg version="1.1" id="Layer_1" xmlns="http://www.w3.org/2000/svg" xmlns:xlink="http://www.w3.org/1999/xlink" x="0px" y="0px"
	 width="85px" height="85px" viewBox="0 0 85 85" style="enable-background:new 0 0 85 85;" xml:space="preserve">
<style type="text/css">
	.st0{fill-rule:evenodd;clip-rule:evenodd;fill:#5D697A;}
</style>
<title>icon-wipro</title>
<g>
	<path class="st0" d="M36.35,32.34c0.47-0.64,0.89-1.25,1.29-2.03c1.34-2.58-0.15-3.1-0.95-2.64c-1.5,0.86-2.74,3.56-3.26,5.04
		c-0.3,0.84-0.51,1.76-0.56,2.75C33.76,35.31,35.72,33.19,36.35,32.34z"/>
	<path class="st0" d="M52.41,31.4c0.37-0.49,2.16-2.72,1.32-3.59c-0.57-0.58-1.49,0.02-1.83,0.36c-0.33,0.33-0.9,1.18-1.12,1.59
		c-0.68,1.3-1.08,2.55-1.1,4.33C50.25,33.83,52.12,31.78,52.41,31.4z"/>
	<path class="st0" d="M33.67,46.71c-1.17,0.77-2.66,1.89-3.62,2.91c-1.06,1.14-2.14,2.55-2.27,4.22c-0.07,0.87,0.13,1.59,0.57,2.03
		c0.99,1,2.84,0.53,3.94-0.12c2.63-1.56,3.83-5.69,4.41-8.62c0.09-0.45,0.35-1.87,0.31-2.28C35.65,45.52,34.92,45.89,33.67,46.71z"
		/>
	<path class="st0" d="M54.51,18.44c-1.59-0.44-2.94-0.81-4.73-1c-1.64-0.18-3.7-0.01-5.01,0.6c-1.54,0.73-2.42,1.94-3.56,2.19
		c-4.02,0.88-4.86-6.75,5.7-5.54c0.84,0.1,1.68,0.22,2.48,0.4c0.58,0.13,1.78,0.58,2.3,0.55c-0.32-0.29-0.41-0.34-0.91-0.49
		c-3.03-0.9-5.54-1.24-8.8-1.22c-4.74,0.03-9.63,1.42-13.49,3.67c-0.57,0.34-1.21,0.72-1.73,1.12c-1.18,0.89-2.06,1.56-3.09,2.63
		c-0.46,0.48-0.92,0.98-1.35,1.53c-0.97,1.26-1.48,1.99-2.26,3.46c-1.16,2.19-2.4,5.83-2.63,8.81c-0.15,1.87-0.1,3.47,0.56,5.02
		c0.67,1.57,1.76,2.29,2.18,3.54c0.97,2.88-3.76,4.76-5.24-0.32c-0.8-2.76-0.28-6.05,0.37-8.84c0.08-0.32,0.26-0.88,0.28-1.16
		c-0.33,0.16-0.45,0.43-0.54,0.86c-0.09,0.4-0.19,0.75-0.29,1.13c-1.74,7.08-0.86,15.09,2.82,21.24c1.38,2.31,3.19,4.49,5.3,6.14
		c1.03,0.8,2.16,1.61,3.49,2.26c2.46,1.22,5.6,2.3,8.83,2.62c1.88,0.18,3.46,0.03,4.99-0.61c1.29-0.55,2.36-1.92,3.47-2.25
		c1.7-0.5,3.17,0.92,2.82,2.65c-0.28,1.36-1.76,2.2-3.12,2.61c-2.23,0.66-5.4,0.38-7.74-0.11c-0.4-0.08-2.03-0.6-2.34-0.46
		c0.4,0.59,3.43,1.09,4.45,1.26c1.66,0.27,3.6,0.39,5.33,0.34c3.46-0.11,6.8-0.7,9.64-1.81c2.85-1.11,5.28-2.54,7.21-4.23
		c1.92-1.67,3.68-3.75,5.04-6.44c1.77-3.5,3.68-9.79,1.96-13.83c-0.6-1.41-1.88-2.34-2.17-3.58c-0.22-0.92,0.06-1.66,0.54-2.13
		c0.46-0.46,1.28-0.81,2.16-0.54c1.37,0.43,2.15,1.67,2.57,3.15c0.67,2.34,0.41,5.27-0.11,7.69c-0.16,0.73-0.34,1.62-0.56,2.29
		c0.39,0.03,0.46-0.53,0.56-0.84c0.9-3.09,1.19-5.54,1.16-8.86c-0.03-3.35-0.82-6.85-1.84-9.6C66.65,25.41,61.27,20.32,54.51,18.44z
		 M59.7,53.95c-0.87,2.1-2.75,3.93-4.97,4.72c-2.77,0.98-5.69,0.48-7.81-0.86c-4.41-2.79-5.49-9.09-3.04-13.82
		c0.56-1.08,1.38-2.03,2.11-2.73c0.73-0.7,1.99-1.58,2.83-2.01c-0.09-0.18-0.73-0.99-0.87-1.11c-0.77,0.58-1.97,1.39-2.8,1.94
		c-1.35,0.89-2.98,1.88-4.41,2.7c-0.91,0.52-0.86,0.33-0.98,1.39c-0.16,1.45-0.21,2.84-0.44,4.28c-0.43,2.77-1.29,5.01-2.62,6.86
		c-1.17,1.63-2.94,3.37-5.65,3.79c-3.08,0.47-5.25-1.04-5.95-3.34c-0.87-2.85,0.68-5.44,1.96-6.98c2.04-2.45,5.58-4.28,8.4-5.79
		c0.51-0.27,1.07-0.53,1.54-0.83c0.36-0.22,0.37-0.23,0.46-0.73c0.05-0.29,0.11-0.73,0.12-1.03c-0.16,0.07-0.3,0.18-0.48,0.26
		c-1.27,0.64-2.58,1.15-4.07,0.67c-1.36-0.44-2.38-1.82-2.72-3.1c-1.14-0.16-2.13-0.51-2.78-1.12c-0.62-0.57-1.17-1.31-1.45-2.41
		c-0.28-1.08-0.19-2.36,0.16-3.34c0.37-1.02,0.81-1.74,2.14-1.73c0.1,0.22,0.33,0.48,0.32,0.78c-0.01,0.7-1.01,3.13,0.12,4.61
		c0.23,0.3,0.77,0.81,1.38,0.81c0.24-3.88,2.13-8.42,5.41-10.1c1.26-0.65,2.96-0.73,4.05,0.11c1.17,0.89,1.04,2.65,0.71,3.95
		c-0.62,2.46-2.3,4.67-4.11,6.22c-0.77,0.66-2.02,1.57-3.19,1.96c0.06,0.48,0.42,0.92,0.68,1.12c0.4,0.29,0.91,0.28,1.47,0.15
		c0.91-0.21,1.73-0.81,2.28-1.27c1.07-0.89,0.77-1.18,1.26-2.32c0.38-0.88,0.78-1.68,1.33-2.23c1.58-1.58,3.82-0.91,2.06,2.16
		c-0.61,1.07-1.77,2.07-1.9,2.6c-0.2,0.78-0.25,1.55-0.26,2.36c0.46-0.07,3.34-1.94,3.89-2.28c0.94-0.59,1.89-1.2,2.76-1.88
		c0.35-0.27,0.47-0.26,0.36-1.13c-0.44-3.8,1.35-7.4,3.33-8.91c0.56-0.43,1.26-0.83,2.11-1.01c1.72-0.37,3.47,0.37,3.86,2.15
		c0.58,2.7-1.81,5.57-3.6,7.11c-0.26,0.23-0.53,0.48-0.82,0.7l-1.71,1.36c0.21,0.34,0.37,1.04,1,1.43c0.38,0.25,0.47,0.14,0.95,0.05
		c0.34-0.07,0.69-0.13,1.05-0.18c1.27-0.15,3.37,0.27,3.3,1.5c-0.03,0.65-0.66,1.04-1.25,1.19c-1.16,0.3-2.22,0.11-3.36,0.03
		c-0.87-0.06-1.92,0.54-2.55,1c-2.03,1.49-3.19,3.62-3.43,6.28c-0.26,2.79,0.52,5.39,2.48,7.16c1.93,1.75,5.24,1.77,7.08,0.03
		c0.43-0.41,0.74-0.75,1.09-1.35c0.98-1.69,1.11-4.22,0.08-5.78c-1.9-2.88-5.94-0.69-4.28,1.94c0.35,0.56,0.88,1.03,0.99,1.44
		c0.4,1.34-1.32,1.98-2.73,0.94c-1.5-1.11-1.93-3.57-1.11-5.32c1.12-2.44,4.04-3.5,6.55-2.75c1.27,0.38,2.07,0.99,2.83,2.01
		C60.31,48.22,60.78,51.33,59.7,53.95z"/>
	<path class="st0" d="M42.5,10.5c-17.67,0-32,14.33-32,32c0,17.67,14.33,32,32,32c17.67,0,32-14.33,32-32
		C74.5,24.83,60.17,10.5,42.5,10.5z M68.07,59.11c-0.68,1.02-1.64,2.36-2.45,3.27l-0.67,0.76c-0.31,0.36-1.7,1.74-2.16,2.14
		c-0.67,0.59-1.35,1.15-2.11,1.72c-1.23,0.92-2.16,1.48-3.48,2.24c-1.94,1.1-4.5,2.14-6.77,2.74c-2.08,0.55-4.3,0.93-6.62,1.01
		c-4.78,0.16-9.14-0.66-12.94-2.26c-2.61-1.1-5.09-2.51-7.22-4.22c-0.91-0.72-2.2-1.84-3.01-2.72c-0.09-0.1-0.14-0.13-0.24-0.23
		l-0.67-0.75c-0.32-0.34-0.59-0.68-0.89-1.04c-4.04-4.94-6.58-11.26-6.82-17.94c-0.17-4.68,0.69-9.23,2.26-12.95
		c0.88-2.07,1.48-3.12,2.64-4.98c0.48-0.77,1.06-1.56,1.59-2.23c1.02-1.29,1.98-2.33,3.2-3.47l1.53-1.34
		c4.97-4.09,11.09-6.47,17.95-6.82c4.59-0.23,9.3,0.73,12.91,2.28c1.84,0.79,3.41,1.63,4.99,2.63c0.41,0.26,0.75,0.51,1.14,0.79
		c1.26,0.89,2.03,1.58,3.11,2.58c1.25,1.14,2.49,2.54,3.6,4.05c2.89,3.89,4.91,8.47,5.66,13.4c0.17,1.14,0.26,2.28,0.34,3.44
		c0.3,4.46-0.78,9.44-2.26,12.94C69.94,55.92,69.07,57.62,68.07,59.11z"/>
</g>
</svg>
