<svg xmlns="http://www.w3.org/2000/svg" width="64" height="64" viewBox="0 0 64 64" fill="#2E343D"><path d="M57.48,33.85l0-.24,0-.17,0-.17,0-.16-.05-.17-.07-.17-.08-.17-.1-.16-.12-.16-.15-.14-.09-.07-.08,0L56.47,32l-.13-.05-.23,0-.3,0-.65,0h-.55l-1,0-2,.08L50.41,32l-2.49.17-.94.09-1.28.1-1.25.07-1.34.07-1.41,0-2.22.05-3.44,0H34.63a1.39,1.39,0,0,0,.12-.28l0-.16,0-.16,0-.18,0-.24v-.31l0-.29-.07-.29-.09-.26-.12-.26L34.42,30l-.15-.22-.18-.22-.2-.2-.21-.19L33.45,29l-.24-.17L33,28.63l-.27-.16-.28-.15-.29-.14-.3-.14-.31-.13-.33-.12-.33-.12-.34-.12-.71-.21-.74-.2L28.29,27l-.58-.13-.79-.16-.79-.14-.8-.14-.79-.13-.79-.11L23,26l-2-.25-2.18-.28L18,25.39l-.4-.09-.32-.07-.2-.07-.16.47h0l.12-.49-1.19-.38-.3-.11-.29-.12-.21-.1-.24-.13-.19-.13-.15-.12L14.37,24l-.47.18.3-.25.11,0,.19-.29.19-.26.2-.24.21-.22.23-.2.27-.21.29-.2.33-.2.36-.19.39-.18.21-.09.44-.17.47-.15.5-.14L19.1,21l.4-.08.56-.11.58-.08.6-.08.61-.06.63-.05.64,0,.65,0,.67,0h2.07l.7,0,.72,0,.71,0,1.09.07,1.47.11,1.48.12,3,.27,2.56.22,1.44.11,1.41.09.7,0,.69,0h2l.65,0,.65,0,.63-.05.63-.05.6-.07.45-.06.3-.05.59-.12.58-.13.29-.07.58-.18.28-.09.29-.11.28-.11.28-.12.27-.12.33-.17.34-.18.33-.2.32-.21.32-.22.31-.24.31-.25.29-.26.28-.27.27-.29.26-.29.24-.29.22-.3.2-.29.19-.3.16-.3.15-.29.14-.3.12-.28.1-.29.09-.28.08-.28.06-.28L57,14l0-.27,0-.27,0-.26v-.8l0-.4L57,11.47,56.9,11l-.13-.49L56.62,10l-.18-.48L56.23,9,56,8.58l-.26-.45-.28-.44-.3-.43-.34-.42-.27-.28-.19-.18L54,6l-.2-.17-.21-.16-.42-.32-.44-.3-.34-.2-.45-.26-.45-.23L51,4.16,50.52,4l-.47-.18-.49-.15-.49-.13-.5-.11-.5-.09-.51-.06-.52,0H46l-.54,0-.53.07-.22,0a1.93,1.93,0,0,0-1.31,1,1,1,0,0,0-.05,1,.77.77,0,0,0,.71.35h.64l.4,0,.4,0,.39.06.39.08.39.1.38.12.38.14.37.16.37.18.37.19.36.21.36.24.35.24.35.27.17.14.25.21.32.31.31.32.29.33.27.34L52,10l.25.36.22.37.21.37.18.38.16.38.14.38.12.38.09.38.07.38,0,.37,0,.27v.5l0,.32,0,.16-.06.29-.08.26-.09.23-.1.2-.11.17-.1.14-.11.13-.13.12-.17.14-.21.15L52,17l-.21.11-.24.12-.32.13-.36.12-.4.12-.43.11-.46.1-.48.09-.38.05-.53.07-.55.05-.57,0-.59,0H44l-.66,0L42,18.1l-.7-.05L39.85,18l-2.54-.21-3-.25-1.49-.12-1.5-.11-1.11-.07-.74,0-.74,0-.73,0H25.86l-.72,0-.7,0-.7,0-.69.06-.68.08-.67.09-.66.1-.66.13-.48.11-.33.08-.64.17-.62.2-.32.11-.3.11-.62.26-.3.14-.3.14-.3.16-.3.17-.3.17-.3.19-.29.2-.29.2-.29.22-.28.23-.28.24-.28.26-.26.26-.26.28-.25.28-.25.29-.23.3-.22.31-.2.31-.19.31-.14.24-.06.11-.15.34-.13.37-.08.36,0,.33v.31l.06.28.09.25.11.23.13.2.14.18.15.16.17.14.17.13.17.11.18.11.19.1.19.09.28.12.37.14.37.13.35.1.89.25.12,0,.24.07.44.09.49.08.54.07,1.21.13,5.07.41.81.07.82.08.8.09.8.1,1,.14.75.13.71.14.67.16.32.09.31.09.29.09.29.1.26.1.25.1.24.11.22.12.2.11.18.12.16.12.14.12.12.12.11.12.08.12.08.12,0,.12,0,.12,0,.12v.3l.49.17h-.52a.56.56,0,0,0,0,.13l-7.81,0L24,32.7l-1.64.09-2.17.13L18,33.09l-2.16.18-2.16.2-3.23.33L8.32,34a1.66,1.66,0,0,0-1.07.62,1.29,1.29,0,0,0-.5,1l-.22,8.29,0,2v2l0,2,0,1,0,1.21.06,1.4.08,1.32.07.83.08.79.09.73,0,.35.12.65.06.3.07.29.07.27.08.26.09.25.1.23L7.7,60l.13.21.11.14,0,.07.09.08.09.07.17.09.1,0,.24.05.19,0H9.8l.83,0,1.44-.12,1.34-.14,3-.33-.06-.5.19.48L17.76,60l.82-.07.83-.07.83-.06.83,0,.84,0,.83,0,1.26,0,1.69,0,1.69,0h1.71l5.13,0h3.43l1.72,0,1.71,0,1.29,0,1.27-.06,0-.5h0l.09.49h.45l.56,0,3.12.17.82,0h1.46l.42,0,.42,0,.41,0,.41,0,.41-.05.41-.08L53,59.3l.39-.11.3-.1.21-.08.22-.09.22-.11.23-.11.23-.14.25-.16.25-.18.25-.21.26-.23.22-.24.32-.43.21-.39.11-.27.07-.22.05-.2,0-.21,0-.2.06-.44,0-.49.06-.82,0-1.26,0-2V48.24l0-5.74V40.12l0-1.79,0-.89,0-.45,0-.38.12-.82,0-.61,0-.32v-.68Zm-3.64,4,0,.3,0,.41,0,.44,0,.77,0,1.85,0,7.31v3.73l0,1.69,0,.87-.06.84-.14,0-.28,0-.29,0-.32,0-.34,0-.35,0h-1.7l-.78,0-.78,0L47,56.06l-1,0h-.88l-1.4.07-1.26,0-1.69,0-1.7,0-1.71,0-4.29,0-2.59,0-1.73,0-1.73,0-1.73.06L24,56.48l-.87.05-.87.06-.86.06-.86.08-.86.08-.87.09-.86.1-.36.06H17.4l.07.5-.2-.48L13,57.63l-1.4.15-.77.06-.51,0-.07-.17-.07-.16-.06-.19L10,56.91l-.06-.25-.12-.57-.11-.64-.11-.69L9.5,54l-.09-.8-.13-1.27-.11-1.35-.11-1.65L9,48,8.92,46,8.84,44.1l-.07-2.56-.1-5.2,4.11-.12,2.06,0,2.06,0H21l2.59,0,6.73,0,4.2,0,1.55,0,1.92,0,2.25-.07,1.44,0L43.07,36l1.29-.08,1.06-.09,1-.1v-.5l.15.49,0-.5.19.49,1.69-.13L51,35.39l1.21,0,1.18,0H54v0l.13,0,0,.06v-.06l.09,0v0l-.27.14v.14l0,.22v.47l0,.49,0,.47-.06.44.49.08Z"/><path d="M25.24,44.16h0L24.46,44,23.85,44h-.59l-.91,0-1.23.11-.36,0-.15-.66-.28-1.14L20,41.53l-.55-.39-.09,0a.73.73,0,0,0-.66-.36,1.46,1.46,0,0,0-.79.28,1.77,1.77,0,0,0-.79,1.31l-.09.31-.21.83.09,1,0,.07-.34,0L15,45.31a2,2,0,0,0-1.23,1,1,1,0,0,0,0,1,.72.72,0,0,0,.62.35l1,.41,2.06-.2.39-.05.33,1.1.16.48.2.53.51.88a.66.66,0,0,0,.66.51,1.11,1.11,0,0,0,.53-.16,1.43,1.43,0,0,0,.68-1l.09-.3.17-.7.14-.74,0-.65,0-.51.09,0,1-.25.74-.22.73-.29.74-.32.32-.14a1.53,1.53,0,0,0,.89-.79.78.78,0,0,0,0-.77A.66.66,0,0,0,25.24,44.16Z"/><path d="M50,44.51l0-.3,0-.29-.05-.29-.06-.28-.08-.28-.1-.27-.11-.27-.13-.26L49.2,42,49,41.78l-.18-.23-.19-.22-.22-.2-.23-.2L48,40.76l-.26-.16-.28-.14-.3-.13-.32-.1-.33-.09-.34-.06-.36,0h-.7l-.32,0-.41.05-.28,0-.29,0-.3.07-.29.07-.3.09-.3.1-.31.11-.3.14-.3.16-.34.2-.23.1-.23.11-.22.14-.23.15-.23.16L40,42l-.22.19-.21.2-.2.22-.2.22L39,43l-.17.23-.32.48-.14.25-.13.24-.11.25-.12.27-.09.26-.06.25,0,.24,0,.24,0,.24,0,.24v.46l0,.23,0,.23,0,.22.06.22.05.16.08.2.11.22.16.28.17.26.2.23.2.22.21.2.21.19.22.18.22.16,1,.73.4.31.29.22.3.2.3.17.3.15.3.12.31.1.31.08.31,0,.32,0h.3l.35,0,.33,0,.34-.09.34-.11.35-.15.35-.17.35-.21.35-.25.34-.26.32-.29.3-.31.28-.31.25-.32.23-.32.2-.32.19-.32.17-.32.14-.32.13-.31.12-.32.09-.31.09-.31.07-.31,0-.31,0-.31,0-.3,0-.6ZM47,46.7v.24l0,.25,0,.24,0,.23,0,.23-.05.22-.06.21-.07.2-.06.19-.08.18-.07.16-.07.14-.07.13-.07.11-.06.09,0,.07,0,0,0,0,0,0,0,0,0,0,0,0-.06,0-.08,0-.11,0-.12,0-.14,0H45l-.19,0-.21,0-.21-.06-.23-.08-.24-.1-.24-.13-.25-.15-.26-.18L42.94,49l-.14-.12-.11-.09-.21-.18-.33-.25-.44-.34-.33-.25-.21-.17L41,47.45l-.19-.17-.18-.18-.16-.18-.15-.19-.13-.19-.12-.2L40,46.19l0-.11,0-.06,0-.05,0-.15,0-.14,0-.15,0-.14v-.68l0-.13,0-.12,0-.11v-.3l0-.09v-.08l0-.09,0-.07,0-.08,0-.07,0-.07,0-.07.08-.14,0-.07.05-.08.07-.08.08-.08.09-.08.12-.09.09-.06a1.65,1.65,0,0,0,.53-.4h0l.21,0,.22,0,.23,0h.7l.48,0h.19l.16,0,.15,0,.15,0,.21,0,.29.08.26.08.26.11.23.11.23.13.21.14.19.15.18.16.17.17.16.19.14.19.13.2.11.21.1.22.09.22.08.23.07.23,0,.24,0,.24,0,.24,0,.25v.49Z"/></svg>