<?xml version="1.0" encoding="utf-8"?>
<!-- Generator: Adobe Illustrator 23.1.1, SVG Export Plug-In . SVG Version: 6.00 Build 0)  -->
<svg version="1.1" id="Layer_1" xmlns="http://www.w3.org/2000/svg" xmlns:xlink="http://www.w3.org/1999/xlink" x="0px" y="0px"
	 width="85px" height="85px" viewBox="0 0 85 85" style="enable-background:new 0 0 85 85;" xml:space="preserve">
<style type="text/css">
	.st0{fill-rule:evenodd;clip-rule:evenodd;fill:#5D697A;}
</style>
<title>icon-wipro</title>
<g>
	<path class="st0" d="M7.44,45.85c3.43-0.03,3.05-0.21,3.05,1.33v5.66h2.43v-5.81c0-0.8-0.15-1.18,0.71-1.18
		c1.87,0,2.34-0.21,2.34,1.04v5.94c0.65,0.01,1.88,0.05,2.43-0.02c-0.03-1.87,0-3.76,0-5.65c0-0.75,0.12-1.99-0.2-2.58
		c-0.36-0.68-0.9-0.88-1.9-0.88c-3.75,0-7.51,0-11.26,0c-0.07,0.85-0.03,7.62-0.02,8.92v0.2h2.43L7.44,45.85L7.44,45.85z"/>
	<path class="st0" d="M60.83,46.2l0.01,4.96c-1.08,0.02-2.14,0-3.19,0c-0.76,0-0.76-0.11-0.75-0.86c0.02-2.83-0.23-2.38,2.39-2.42
		C60.26,47.86,60.29,46.75,60.83,46.2L60.83,46.2z M60.83,46.15c-0.7-0.04-5.02-0.07-5.4,0.07c-0.73,0.25-0.99,0.8-0.99,1.72
		s0,1.84,0,2.76c0,0.97-0.11,1.65,0.68,2.02c0.43,0.21,4.62,0.12,5.41,0.12c0.79,0,2,0.08,2.74-0.01v-9.12l-2.42-0.01L60.83,46.15
		L60.83,46.15z"/>
	<path class="st0" d="M28.73,52.84c0.01-1.43,0-2.88,0-4.31c0-1.47,0.03-2.38-1.9-2.38c-1.41,0-2.84,0-4.25,0
		c-0.83,0-1.29-0.13-1.67,0.46c-0.16,0.24-0.8,1.09-0.84,1.28c1.61-0.02,3.22,0,4.84,0c0.97,0,1.44-0.09,1.44,0.98
		c0,0.77,0.03,1.59,0,2.36h-4.23c-0.1-1.23,0.01-1.04,1.12-1.04c0.64,0,1.51,0.05,2.12-0.02c-0.01-1.36,0.26-1.35-1.11-1.35
		c-4.89,0-4.26-0.43-4.29,3.03c-0.01,1.07,0.59,0.97,1.53,0.97L28.73,52.84L28.73,52.84z"/>
	<path class="st0" d="M79.99,52.84c0.02-1.44,0-2.88,0-4.31c0-1.45,0.03-2.38-1.89-2.38c-1.41,0-2.84,0-4.26,0
		c-0.86,0-1.26-0.14-1.68,0.45c-0.14,0.2-0.8,1.13-0.84,1.28c1.62-0.01,3.23,0,4.85,0c0.97,0,1.44-0.11,1.43,0.98
		c-0.01,0.76,0.03,1.59-0.02,2.36h-4.24l0.03-0.89c0.13-0.29,2.47-0.08,3.22-0.15c-0.02-1.36,0.26-1.34-1.11-1.34
		c-4.89,0-4.27-0.44-4.28,3.03c0,1.04,0.54,0.97,1.47,0.97C75.08,52.84,77.64,52.8,79.99,52.84L79.99,52.84z"/>
	<path class="st0" d="M16.63,41.27h5.27c0.68,0,0.79-0.27,1.07-0.68c0.13-0.2,0.63-0.87,0.69-1.06c-1.58,0.05-3.22,0-4.81,0
		c-0.92,0-1.44,0.11-1.44-0.93c0-0.8-0.02-1.62,0-2.41h4.23c0,0.92,0.09,1.04-0.52,1.04h-2.68l-0.02,0.75c0,0.8,0.36,0.62,1.12,0.62
		c0.6,0,1.19,0,1.79,0c1.15,0,2.45,0.29,2.45-1.04c0-2.89,0.28-2.96-1.54-2.96H15c0,1.38,0,2.75,0,4.13
		C15.01,39.79,14.81,41.27,16.63,41.27L16.63,41.27z"/>
	<path class="st0" d="M32.71,47.87c0.66,0.05,1.47,0.01,2.15,0.01c0.69,0,1.48-0.12,1.56,0.64c0.05,0.53,0,3.46,0.01,4.31l2.44-0.02
		c-0.03-1.21,0-2.45,0-3.66c0-1.23,0.2-2.33-0.77-2.84c-0.57-0.3-2.67-0.16-3.47-0.16c-0.9,0-0.8,0.12-1.18,0.66
		c-0.22,0.32-0.54,0.72-0.71,1.05c-0.08-0.33-0.04-3.55-0.03-4.14h-2.44v9.13h2.44V47.87L32.71,47.87z"/>
	<path class="st0" d="M46.95,47.88c0.7,0.01,1.42,0,2.13,0c0.72,0,1.32-0.05,1.34,0.74c0.05,1.37,0.01,2.85,0,4.21h2.44
		c-0.01-1.26,0-2.52,0-3.78c0-1.34,0.19-2.4-0.95-2.83c-0.38-0.14-6.62-0.13-7.41-0.08v6.68h2.45V47.88L46.95,47.88z"/>
	<path class="st0" d="M5.01,34.24h3.28v7.01c0.3,0.08,2,0.03,2.43,0.02v-7.03h3.27l0.02-2.1l-9-0.01L5.01,34.24L5.01,34.24z"/>
	<path class="st0" d="M32.81,41.26v-1.66c-0.29-0.07-3.26-0.02-3.8-0.02c-1.63,0-1.38-0.1-1.38-2.46c0-0.72,0.21-0.94,0.94-0.94
		c0.64,0,1.29,0,1.94,0c1.52,0,1.66,0.3,2.27-1.59c-1.8-0.05-3.66,0-5.47,0c-2.45,0-2.12,1.03-2.12,3.36c0,2.35-0.35,3.34,2.12,3.34
		C28.15,41.27,32.38,41.33,32.81,41.26L32.81,41.26z"/>
	<path class="st0" d="M67.35,52.82c0.01-0.9,0-1.8,0-2.7c0-0.94-0.18-2.03,0.47-2.21c0.68-0.19,1.94,0.19,2.45-0.2
		c0.15-0.12,1.04-1.38,1.12-1.55h-4.94c-1.52,0-1.56,0.36-1.56,1.75v4.94L67.35,52.82L67.35,52.82z"/>
	<polygon class="st0" points="34.31,41.27 36.72,41.27 36.72,32.13 34.32,32.13 	"/>
	<path class="st0" d="M36.74,36.31c0.66,0.06,1.5,0.02,2.18,0.02c1.88,0,1.57,0,1.57,2.77c0,0.72,0.01,1.44,0,2.16l2.41,0.02
		c0.01-1.2,0-2.42,0-3.63c0-1.23,0.22-2.36-0.74-2.89c-0.59-0.32-2.65-0.17-3.47-0.17c-0.97,0-0.86,0.1-1.75,1.4L36.74,36.31
		L36.74,36.31z"/>
	<path class="st0" d="M42.9,46.23c-0.26,0.13-0.48,0.29-0.74,0.44c-0.85,0.52-1.66,0.84-1.7,1.64c-0.07,1.45,0.01,3.05,0,4.51h2.44
		V46.23L42.9,46.23z"/>
	<path class="st0" d="M40.46,46.97c0.11-0.04,2.21-1.39,2.42-1.6l0.01-1.67h-2.41L40.46,46.97L40.46,46.97z"/>
</g>
</svg>
