<?xml version="1.0" encoding="utf-8"?>
<!-- Generator: Adobe Illustrator 23.1.1, SVG Export Plug-In . SVG Version: 6.00 Build 0)  -->
<svg version="1.1" id="Layer_1" xmlns="http://www.w3.org/2000/svg" xmlns:xlink="http://www.w3.org/1999/xlink" x="0px" y="0px"
	 width="100px" height="100px" viewBox="0 0 100 100" enable-background="new 0 0 100 100" xml:space="preserve">
<g>
	<rect fill="none" width="100" height="100"/>
	<g>
		<path fill="none" d="M49.65,49.99c0,3.84-1.99,6.22-5.42,6.22c-3.43,0-5.41-2.29-5.41-6.22c0-3.84,1.97-6.2,5.41-6.2
			C47.66,43.79,49.65,46.06,49.65,49.99z M42.09,49.99c0,2.86,0.71,3.96,2.14,3.96c1.48,0,2.14-1.1,2.14-3.96s-0.68-3.94-2.14-3.94
			C42.78,46.05,42.09,47.14,42.09,49.99z"/>
		<path fill="none" d="M54.5,51.56v4.35h-3.14V44.09h4.1c3.3,0,4.96,1.16,4.96,3.67c0,1.53-0.7,2.43-2.18,3.21l2.94,4.93h-3.5
			l-2.31-4.35L54.5,51.56L54.5,51.56z M55.55,49.41c1.07,0,1.63-0.51,1.63-1.65c0-1.02-0.61-1.48-1.8-1.48H54.5v3.13H55.55z"/>
	</g>
	<g>
		<path fill="#899BB5" d="M26.93,61.55c-0.31-0.45-0.94-0.57-1.39-0.25l-12.07,8.37c-0.12,0.09-0.22,0.2-0.29,0.32
			c-0.19,0.33-0.19,0.74,0.04,1.07c0.31,0.45,0.94,0.57,1.39,0.25l12.07-8.37C27.14,62.63,27.25,62.01,26.93,61.55z"/>
		<path fill="#899BB5" d="M33.43,57.05c-0.32-0.45-0.94-0.57-1.39-0.25l-0.75,0.52c-0.12,0.09-0.22,0.2-0.29,0.32
			c-0.19,0.33-0.19,0.74,0.04,1.07c0.32,0.45,0.94,0.57,1.39,0.25l0.75-0.52C33.63,58.12,33.75,57.5,33.43,57.05z"/>
		<path fill="#899BB5" d="M29.81,66.33l-9.49,11.2c-0.04,0.05-0.07,0.09-0.1,0.14c-0.24,0.41-0.16,0.95,0.22,1.27
			c0.42,0.36,1.05,0.3,1.41-0.12l9.49-11.2c0.36-0.42,0.31-1.05-0.12-1.41C30.8,65.85,30.17,65.91,29.81,66.33z"/>
		<path fill="#899BB5" d="M34.93,60.29l-0.59,0.69c-0.04,0.05-0.07,0.09-0.1,0.14c-0.24,0.41-0.16,0.95,0.22,1.26
			c0.42,0.36,1.05,0.31,1.41-0.12l0.59-0.69c0.36-0.42,0.31-1.05-0.12-1.41C35.91,59.82,35.28,59.87,34.93,60.29z"/>
		<path fill="#899BB5" d="M70.44,34.22c0.37,0.41,1,0.45,1.41,0.08l10.95-9.79c0.11-0.1,0.2-0.22,0.25-0.35
			c0.15-0.35,0.09-0.76-0.17-1.06c-0.37-0.41-1-0.45-1.41-0.08l-10.95,9.79C70.1,33.18,70.07,33.81,70.44,34.22z"/>
		<path fill="#899BB5" d="M65.3,37.47l-0.68,0.61c-0.41,0.37-0.45,1-0.08,1.41c0.37,0.41,1,0.45,1.41,0.08l0.68-0.61
			c0.11-0.1,0.2-0.22,0.25-0.35c0.15-0.35,0.09-0.76-0.17-1.06C66.34,37.14,65.71,37.11,65.3,37.47z"/>
		<path fill="#899BB5" d="M73.99,18.28c0.19-0.44,0.04-0.96-0.37-1.23c-0.46-0.3-1.08-0.17-1.38,0.29L64.2,29.63
			c-0.3,0.46-0.17,1.08,0.29,1.38s1.08,0.17,1.38-0.29l8.04-12.29C73.94,18.39,73.96,18.33,73.99,18.28z"/>
		<path fill="#899BB5" d="M61.74,35.2c-0.46-0.3-1.08-0.17-1.38,0.29l-0.5,0.76c-0.31,0.46-0.17,1.08,0.29,1.38s1.08,0.17,1.38-0.29
			l0.5-0.76c0.03-0.05,0.06-0.1,0.08-0.16C62.3,35.99,62.15,35.47,61.74,35.2z"/>
		<path fill="#899BB5" d="M29.18,46.59l1.72-1.35c0.08-0.07,0.19-0.09,0.3-0.08l2.36,0.36c0.34,0.05,0.58-0.34,0.37-0.62l-0.98-1.31
			c-0.08-0.11-0.1-0.26-0.04-0.39l0.95-2.1c0.15-0.32-0.18-0.65-0.5-0.52l-1.46,0.61c-0.18,0.07-0.38,0.01-0.48-0.16L30,38.71
			c-0.18-0.31-0.65-0.22-0.71,0.13l-0.43,2.45c-0.03,0.15-0.14,0.27-0.28,0.31l-1.71,0.44c-0.33,0.09-0.4,0.53-0.11,0.7l1.81,1.12
			c0.13,0.08,0.2,0.22,0.18,0.37l-0.2,2.02C28.52,46.59,28.91,46.8,29.18,46.59z"/>
		<path fill="#899BB5" d="M85.32,37.68l-1.47-0.92c-0.07-0.04-0.11-0.11-0.13-0.18l-0.31-1.55c-0.05-0.24-0.36-0.31-0.51-0.11
			l-0.85,1.21c-0.06,0.09-0.17,0.13-0.27,0.12l-1.52-0.24c-0.24-0.04-0.42,0.23-0.28,0.44l0.73,1.05c0.06,0.09,0.07,0.21,0.01,0.3
			l-0.93,1.55c-0.13,0.22,0.08,0.49,0.33,0.41L82,39.13c0.13-0.04,0.28,0.02,0.34,0.14l0.52,1.03c0.11,0.23,0.45,0.2,0.52-0.05
			l0.47-1.6c0.03-0.1,0.11-0.17,0.21-0.2l1.16-0.25C85.48,38.14,85.54,37.82,85.32,37.68z"/>
		<path fill="#899BB5" d="M83.98,45.38c-0.33-0.02-0.65,0.1-0.9,0.33c-0.25,0.23-0.39,0.54-0.4,0.94l-0.12,3.15l-0.43,3.12L81.37,56
			l-0.62,1.74c-0.15,0.42-0.3,0.85-0.44,1.23c-0.19,0.39-0.37,0.78-0.55,1.17c-0.4,0.88-0.82,1.79-1.37,2.63
			c-2.71,4.76-6.85,8.82-11.94,11.73c-5.12,2.77-10.79,4.14-16.39,3.95c-5.74-0.17-11.34-1.91-16.19-5.02
			c-0.24-0.15-0.56-0.08-0.7,0.16c-0.14,0.22-0.07,0.53,0.15,0.68c7.19,4.38,13.08,5.37,16.68,5.56c0.58,0.03,1.15,0.05,1.73,0.05
			c5.3,0,10.64-1.31,15.55-3.83c5.46-2.96,9.93-7.18,12.92-12.17c0.62-0.9,1.09-1.88,1.55-2.83c0.19-0.38,0.37-0.77,0.59-1.19
			c0.19-0.45,0.36-0.91,0.53-1.37l0.68-1.81l0.88-3.28l0.54-3.35l0.2-3.34v-0.03c0.01-0.33-0.1-0.65-0.33-0.9
			C84.62,45.54,84.31,45.4,83.98,45.38z M84.68,46.68L84.68,46.68L84.68,46.68L84.68,46.68z"/>
		<path fill="#899BB5" d="M62.69,27.05c0.08-0.13,0.1-0.29,0.06-0.44l-0.09-0.25l-0.18-0.1c-2.67-1.56-5.7-2.59-8.78-2.99
			c-3.11-0.37-6.34-0.11-9.33,0.74c-3.26,0.91-6.15,2.44-8.37,4.42c-2.45,2.21-4.28,4.9-5.3,7.77l-0.09,0.45l0.3,0.21
			c0.1,0.07,0.21,0.1,0.33,0.1c0.03,0,0.07,0,0.1-0.01l0.24-0.07l0.12-0.16c0.83-1.14,1.73-2.34,2.74-3.45
			c0.89-0.93,1.97-2.01,3.16-2.94c2.64-2.07,4.99-3.41,7.41-4.23c2.69-0.91,5.63-1.3,8.52-1.1c2.89,0.18,5.79,0.96,8.39,2.26
			C62.2,27.41,62.53,27.31,62.69,27.05z"/>
		<path fill="#899BB5" d="M9.93,47.61c-0.06-4.98,0.49-9.37,1.69-13.42c2.81-9.04,8.38-16.75,15.67-21.7
			c3.74-2.58,7.86-4.58,12.23-5.95C43.37,5.3,47.65,4.72,53,4.72c9.14,0.24,18.13,3.56,25.32,9.33c0.21,0.15,0.5,0.11,0.67-0.08
			c0.17-0.2,0.16-0.5-0.03-0.69c-2.53-2.14-6.54-5.06-12.08-7.22c-4.4-1.72-9.05-2.7-13.83-2.92C47.5,3.06,43.04,3.59,38.99,4.82
			c-4.57,1.36-8.85,3.45-12.74,6.21c-3.77,2.64-7.16,5.99-10.09,9.95c-2.87,3.85-5.08,8.09-6.58,12.59
			c-1.38,4.34-2.12,9.08-2.19,14.09c0.04,4.93,0.84,9.69,2.36,14.15l0.02,0.06c0.15,0.38,0.44,0.69,0.82,0.86
			c0.2,0.09,0.41,0.13,0.62,0.13c0.19,0,0.38-0.04,0.56-0.1c0.38-0.15,0.69-0.44,0.86-0.82s0.18-0.8,0.03-1.18
			C11.01,56.48,10.09,52.06,9.93,47.61z M10.23,61.64L10.23,61.64L10.23,61.64L10.23,61.64z"/>
	</g>
</g>
</svg>
