<?xml version="1.0" encoding="utf-8"?>
<!-- Generator: Adobe Illustrator 23.1.1, SVG Export Plug-In . SVG Version: 6.00 Build 0)  -->
<svg version="1.1" id="Layer_1" xmlns="http://www.w3.org/2000/svg" xmlns:xlink="http://www.w3.org/1999/xlink" x="0px" y="0px"
	 width="90px" height="120px" viewBox="0 0 90 120" enable-background="new 0 0 90 120" xml:space="preserve">
<title>or-number-light</title>
<g>
	<path fill="#899BB5" d="M26.35,29.74c-0.41,1.63-0.7,3.1-1.17,4.52c-0.2,0.58-0.74,1.42-1.19,1.46c-0.67-0.08-1.27-0.44-1.65-1
		c-1.22-1.67-2.27-3.45-3.14-5.33c-1.2-2.94-3.47-3.63-6.2-3.92c-6.76-0.74-6.94-0.93-5.19-7.39c0.82-3,2-5.95,3-8.92
		c0.67-2,1.85-2.88,4.05-2.42c8.07,1.71,16.16,3.33,24.23,5c1.93,0.41,2.27,1.92,1.94,3.56c-1,5.1-2.17,10.18-3.21,15.28
		c-0.33,1.59-1.22,1.74-2.57,1.38C32.25,31.18,29.2,30.45,26.35,29.74z M35.17,29.47c1.21-4.84,2.4-9.42,3.44-14
		c-0.06-0.72-0.49-1.35-1.13-1.68c-7.46-1.67-14.94-3.23-22.43-4.68c-0.81-0.04-1.59,0.34-2.05,1c-1.44,4-2.68,8.13-3.91,12
		c3.26,0.82,6.38,0.92,8.68,2.36s3.78,4.2,5.71,6.48c0.19-0.36,0.34-0.74,0.46-1.13c0.43-3.08,0.56-3.11,3.42-2.27
		C29.85,28.23,32.39,28.78,35.17,29.47z"/>
	<path fill="#899BB5" d="M52.46,44.7l-6.85-6c0.58-1.12,1.25-2.2,2-3.22c4-4.71,8.19-9.34,12.24-14.05c0.95-1.09,1.7-1.33,2.91-0.35
		c6.35,5.15,12.78,10.19,19.11,15.37c2.74,2.23,2.71,2.83,0.31,5.35c-4.18,4.46-8.53,8.8-12.73,13.25c-1.23,1.3-2.36,1.48-3.73,0.39
		c-0.3-0.2-0.58-0.42-0.84-0.68c-3.22-3.82-7.47-4.5-12.16-4.27c-1.24,0.06-2.53-0.8-3.8-1.24c0.71-1,1.4-2.11,2.14-3.13
		C51.5,45.62,51.96,45.14,52.46,44.7z M67.2,54.11c5-5.15,9.66-9.89,14.68-15L61.71,22.75l-13.11,15c1.55,3.58,9.12,4.26,3.63,10.74
		C58.73,47.28,63.51,49.14,67.2,54.11z"/>
</g>
<rect y="40" fill="none" width="40" height="40"/>
<rect fill="none" width="90" height="120"/>
</svg>
