<?xml version="1.0" encoding="utf-8"?>
<!-- Generator: Adobe Illustrator 24.2.0, SVG Export Plug-In . SVG Version: 6.00 Build 0)  -->
<svg version="1.1" id="Layer_2_1_" xmlns="http://www.w3.org/2000/svg" xmlns:xlink="http://www.w3.org/1999/xlink" x="0px" y="0px"
	 viewBox="0 0 50 90" enable-background="new 0 0 50 90" xml:space="preserve">
<path fill="#FFFFFF" d="M8.79,32.27c-0.32-0.22-0.49-0.61-0.42-1c0.09-0.55,0.6-0.92,1.14-0.83c0,0,0,0,0.01,0L24,32.87
	c0.55,0.09,0.93,0.61,0.83,1.17c-0.09,0.55-0.61,0.93-1.16,0.83L9.19,32.43C9.05,32.4,8.91,32.35,8.79,32.27z"/>
<path fill="#FFFFFF" d="M30.18,35.83c-0.32-0.22-0.49-0.61-0.42-1c0.09-0.55,0.6-0.92,1.14-0.83c0,0,0,0,0.01,0l0.9,0.15
	c0.55,0.09,0.93,0.61,0.84,1.17c-0.09,0.55-0.61,0.93-1.17,0.83L30.58,36C30.44,35.98,30.3,35.92,30.18,35.83z"/>
<path fill="#FFFFFF" d="M10.54,21.83c-0.47-0.3-0.6-0.91-0.31-1.38c0.28-0.44,0.85-0.59,1.31-0.35l13.36,6.08
	c0.5,0.23,0.73,0.82,0.5,1.32s-0.82,0.73-1.32,0.5h-0.01L10.7,21.92L10.54,21.83z"/>
<path fill="#FFFFFF" d="M30.28,30.81c-0.48-0.28-0.65-0.89-0.37-1.37c0.28-0.48,0.89-0.65,1.37-0.37l0.83,0.38
	c0.5,0.23,0.72,0.82,0.49,1.33c-0.23,0.5-0.82,0.72-1.32,0.49l-0.82-0.38C30.4,30.87,30.34,30.84,30.28,30.81z"/>
<path fill="#FFFFFF" d="M28.08,21.84c-0.05-0.03-0.1-0.07-0.14-0.12l-10.37-10.4c-0.39-0.39-0.38-1.03,0.01-1.42S18.61,9.52,19,9.91
	l0,0l10.37,10.4c0.4,0.38,0.41,1.02,0.02,1.41C29.05,22.08,28.49,22.13,28.08,21.84L28.08,21.84z"/>
<path fill="#FFFFFF" d="M33.67,27.44c-0.05-0.03-0.1-0.07-0.14-0.12l-0.65-0.64c-0.39-0.39-0.39-1.02-0.01-1.41c0,0,0,0,0.01-0.01
	c0.39-0.39,1.02-0.39,1.41,0l0.64,0.64c0.38,0.4,0.38,1.03-0.02,1.41c-0.34,0.33-0.86,0.38-1.25,0.12L33.67,27.44z"/>
<path fill="#FFFFFF" d="M41.5,11.25L43,8.38c0.12-0.25,0.43-0.34,0.67-0.22c0.13,0.06,0.22,0.18,0.26,0.32l0.84,3.42
	c0.06,0.24,0.29,0.4,0.54,0.38l2-0.21c0.27-0.03,0.52,0.18,0.54,0.45c0.01,0.14-0.03,0.27-0.12,0.38l-2,2.23
	c-0.12,0.14-0.15,0.33-0.09,0.5l0.72,2c0.1,0.26-0.03,0.55-0.29,0.64c-0.13,0.05-0.27,0.04-0.39-0.01l-2.79-1.33
	c-0.12-0.06-0.27-0.06-0.39,0l-2.63,1c-0.26,0.1-0.55-0.03-0.65-0.29c-0.05-0.12-0.04-0.25,0.01-0.37l1-2.43
	c0.07-0.18,0.04-0.38-0.09-0.52l-1.81-2.05c-0.18-0.21-0.16-0.52,0.04-0.71c0.1-0.09,0.23-0.13,0.36-0.12l2.28,0.09
	C41.22,11.55,41.41,11.44,41.5,11.25z"/>
<path fill="#FFFFFF" d="M18,42.54l1.62,0.82c0.14,0.07,0.19,0.24,0.12,0.38c-0.04,0.07-0.1,0.12-0.18,0.14l-1.92,0.47
	c-0.13,0.04-0.23,0.16-0.22,0.3l0.12,1.15c0.01,0.16-0.12,0.3-0.28,0.3c-0.07,0-0.14-0.02-0.19-0.06l-1.25-1.1
	c-0.09-0.05-0.19-0.05-0.28,0l-1.12,0.4c-0.15,0.05-0.31-0.02-0.36-0.17c-0.03-0.07-0.02-0.15,0.01-0.21l0.75-1.57
	c0.03-0.07,0.03-0.15,0-0.22l-0.58-1.48c-0.06-0.14,0.01-0.31,0.16-0.36c0.07-0.03,0.14-0.03,0.21,0l1.37,0.56
	c0.09,0.06,0.2,0.06,0.29,0l1.16-1c0.11-0.11,0.28-0.11,0.38,0c0.06,0.06,0.09,0.14,0.08,0.22l-0.05,1.28
	C17.87,42.46,17.93,42.52,18,42.54z"/>
<rect x="40" y="25" fill="none" width="10" height="40"/>
<rect fill="none" width="50" height="90"/>
</svg>
