<svg id="Layer_1" data-name="Layer 1" xmlns="http://www.w3.org/2000/svg" viewBox="0 0 50 90"><defs><style>.cls-301{fill:none;}.cls-302{fill:#000;}</style></defs><title>title-2-left-dark</title><rect class="cls-301" x="40" y="25" width="10" height="40"/><rect class="cls-301" width="50" height="90" transform="translate(50 90) rotate(180)"/><path class="cls-302" d="M8.69,39.69a1,1,0,0,1-.42-1,1,1,0,0,1,1.15-.83L23.9,40.3a1,1,0,0,1,.82,1.15,1,1,0,0,1-1.15.82L9.09,39.86A1.1,1.1,0,0,1,8.69,39.69Z"/><path class="cls-302" d="M30.08,43.26a1,1,0,0,1-.42-1,1,1,0,0,1,1.15-.82l.89.15a1,1,0,0,1,.83,1.15,1,1,0,0,1-1.16.82l-.89-.15A1,1,0,0,1,30.08,43.26Z"/><path class="cls-302" d="M10.44,29.26A1,1,0,0,1,10.1,28a1,1,0,0,1,1.32-.5L24.79,33.6a1,1,0,0,1,.49,1.33,1,1,0,0,1-1.32.49L10.59,29.34Z"/><path class="cls-302" d="M30.18,38.24a1,1,0,0,1,1-1.74l.83.38a1,1,0,0,1-.83,1.82l-.83-.38Z"/><path class="cls-302" d="M28,29.27l-.14-.12L17.47,18.75a1,1,0,0,1,0-1.41,1,1,0,0,1,1.42,0l10.36,10.4A1,1,0,0,1,28,29.27Z"/><path class="cls-302" d="M33.56,34.87l-.14-.12-.64-.64A1,1,0,1,1,34.2,32.7l.64.64a1,1,0,0,1-1.28,1.53Z"/><path class="cls-302" d="M41.4,18.68l1.45-2.87a.5.5,0,0,1,.93.1l.84,3.42a.51.51,0,0,0,.53.38l2-.21a.5.5,0,0,1,.43.83l-2,2.23a.51.51,0,0,0-.1.5l.73,2a.5.5,0,0,1-.69.62l-2.78-1.32a.51.51,0,0,0-.4,0l-2.62,1a.5.5,0,0,1-.64-.65l1-2.43a.5.5,0,0,0-.09-.52l-1.81-2.06a.5.5,0,0,1,.39-.83l2.28.1A.5.5,0,0,0,41.4,18.68Z"/><path class="cls-302" d="M17.93,50l1.61.82a.28.28,0,0,1-.06.52l-1.92.47a.29.29,0,0,0-.21.3l.11,1.15a.28.28,0,0,1-.46.24l-1.26-1.1a.28.28,0,0,0-.28-.06l-1.11.41a.28.28,0,0,1-.35-.39l.74-1.56a.24.24,0,0,0,0-.22l-.57-1.48a.28.28,0,0,1,.37-.36l1.36.56a.28.28,0,0,0,.3-.05l1.15-1a.29.29,0,0,1,.47.23l-.06,1.28A.29.29,0,0,0,17.93,50Z"/></svg>