<svg id="Layer_1" data-name="Layer 1" xmlns="http://www.w3.org/2000/svg" viewBox="0 0 50 90"><defs><style>.cls-401{fill:none;}.cls-402{fill:#000;}</style></defs><title>title-2-right-dark</title><rect class="cls-401" y="25" width="10" height="40"/><rect class="cls-401" width="50" height="90" transform="translate(50 90) rotate(180)"/><path class="cls-402" d="M36.27,51.91a1,1,0,0,1-.43,0l-14.21-3.7a1,1,0,0,1,.51-1.94L36.35,50a1,1,0,0,1,.71,1.22A1,1,0,0,1,36.27,51.91Z"/><path class="cls-402" d="M15.29,46.43a.9.9,0,0,1-.43,0L14,46.19a1,1,0,0,1,.51-1.94l.87.23a1,1,0,0,1,.72,1.22A1,1,0,0,1,15.29,46.43Z"/><path class="cls-402" d="M38.93,41.66l-.17,0-14.69.1a1,1,0,0,1,0-2l14.68-.1a1,1,0,0,1,.19,2Z"/><path class="cls-402" d="M17.25,41.81l-.18,0h-.9a1,1,0,0,1-1-1,1,1,0,0,1,1-1h.91a1,1,0,0,1,.19,2Z"/><path class="cls-402" d="M22.92,34.52a1,1,0,0,1-1.12-.63,1,1,0,0,1,.58-1.29l13.7-5.26a1,1,0,1,1,.72,1.86L23.09,34.47Z"/><path class="cls-402" d="M15.53,37.35a1,1,0,0,1-1.11-.62A1,1,0,0,1,15,35.44l.85-.33A1,1,0,0,1,16.56,37l-.85.32A.61.61,0,0,1,15.53,37.35Z"/><path class="cls-402" d="M18.54,13.1l1.52-2a.39.39,0,0,1,.69.22l.15,2.72a.38.38,0,0,0,.35.36l1.58.15a.38.38,0,0,1,.2.69l-1.81,1.41a.41.41,0,0,0-.15.37l.26,1.61a.38.38,0,0,1-.61.37L18.8,17.61a.41.41,0,0,0-.3-.07l-2.15.4a.39.39,0,0,1-.39-.6l1.12-1.7a.38.38,0,0,0,0-.41L16,13.41a.39.39,0,0,1,.42-.58l1.72.41A.4.4,0,0,0,18.54,13.1Z"/><path class="cls-402" d="M11.92,23.7l1.71-.56a.28.28,0,0,1,.33.41l-1,1.69a.28.28,0,0,0,.06.37l.89.72a.28.28,0,0,1-.16.5l-1.67.11a.28.28,0,0,0-.23.16l-.5,1.08a.28.28,0,0,1-.52,0l-.58-1.63a.29.29,0,0,0-.15-.16l-1.45-.64a.28.28,0,0,1,0-.52L10,24.64a.3.3,0,0,0,.17-.25l.1-1.54a.28.28,0,0,1,.48-.17l.87.95A.28.28,0,0,0,11.92,23.7Z"/></svg>