<svg id="Layer_1" data-name="Layer 1" xmlns="http://www.w3.org/2000/svg" viewBox="0 0 50 90"><defs><style>.cls-101{fill:none;}.cls-102{fill:#899bb5;}</style></defs><title>title-3-left</title><rect class="cls-101" x="40" y="25" width="10" height="40"/><rect class="cls-101" width="50" height="90" transform="translate(50 90) rotate(180)"/><path class="cls-102" d="M20.46,15.26a1.1,1.1,0,0,1,.33.28l8.83,11.73A1,1,0,0,1,28,28.48L19.19,16.75a1,1,0,0,1,1.27-1.49Z"/><path class="cls-102" d="M33.5,32.58a1,1,0,0,1,.33.28l.55.73a1,1,0,1,1-1.6,1.2l-.55-.72a1,1,0,0,1,.2-1.4A1,1,0,0,1,33.5,32.58Z"/><path class="cls-102" d="M12,21.64l.15.09,11.57,9.05a1,1,0,0,1,.17,1.4,1,1,0,0,1-1.4.17l-11.57-9A1,1,0,0,1,12,21.64Z"/><path class="cls-102" d="M29.1,35a.71.71,0,0,1,.14.1l.72.56a1,1,0,0,1-1.23,1.57L28,36.66A1,1,0,0,1,29.1,35Z"/><path class="cls-102" d="M20.13,37.19A1,1,0,0,1,19.36,39l-14-4.39a1,1,0,1,1,.6-1.9l14,4.39A.61.61,0,0,1,20.13,37.19Z"/><path class="cls-102" d="M27.67,39.55a1,1,0,0,1,.49,1.18,1,1,0,0,1-1.25.66L26,41.12a1,1,0,1,1,.6-1.91l.86.27Z"/><path class="cls-102" d="M43.31,27.92l1.4-2.06a.38.38,0,0,1,.7.17l.31,2.71a.38.38,0,0,0,.37.34l1.59.05a.38.38,0,0,1,.24.67L46.2,31.33a.37.37,0,0,0-.12.37l.36,1.59a.39.39,0,0,1-.59.41l-2-1.29a.36.36,0,0,0-.3,0l-2.12.52a.38.38,0,0,1-.43-.56l1-1.77a.4.4,0,0,0,0-.41L40.8,28.38a.39.39,0,0,1,.38-.6l1.74.3A.38.38,0,0,0,43.31,27.92Z"/><path class="cls-102" d="M33.26,62.23l1.39-2.06a.39.39,0,0,1,.71.18l.31,2.7a.4.4,0,0,0,.37.35l1.59,0a.39.39,0,0,1,.24.68l-1.72,1.52A.38.38,0,0,0,36,66l.36,1.59a.39.39,0,0,1-.59.41l-2-1.29a.36.36,0,0,0-.3,0l-2.12.52a.39.39,0,0,1-.43-.57l1-1.76a.4.4,0,0,0,0-.41L30.75,62.7a.39.39,0,0,1,.38-.6l1.74.3A.4.4,0,0,0,33.26,62.23Z"/><path class="cls-102" d="M26.6,56l1.68-.67a.28.28,0,0,1,.35.39l-.92,1.76a.27.27,0,0,0,.08.35l.94.68a.29.29,0,0,1-.13.51l-1.66.21a.26.26,0,0,0-.22.17l-.44,1.1a.28.28,0,0,1-.52,0l-.68-1.59a.25.25,0,0,0-.16-.16l-1.48-.55a.28.28,0,0,1,0-.51l1.33-.65a.3.3,0,0,0,.16-.25V55.26a.28.28,0,0,1,.47-.2l.93.89A.28.28,0,0,0,26.6,56Z"/></svg>