<svg id="Layer_1" data-name="Layer 1" xmlns="http://www.w3.org/2000/svg" viewBox="0 0 50 90"><defs><style>.cls-20201{fill:none;}.cls-202{fill:#899bb5;}</style></defs><title>title-3-right</title><rect class="cls-20201" y="25" width="10" height="40"/><rect class="cls-20201" width="50" height="90" transform="translate(50 90) rotate(180)"/><path class="cls-202" d="M20.91,14a1,1,0,0,1,1.43,1.34L14.86,28a1,1,0,1,1-1.72-1l7.48-12.64A1,1,0,0,1,20.91,14Z"/><path class="cls-202" d="M9.88,32.69a1,1,0,0,1,1.07,0A1,1,0,0,1,11.3,34l-.46.78a1,1,0,1,1-1.72-1L9.58,33A1,1,0,0,1,9.88,32.69Z"/><path class="cls-202" d="M30,19.42A1,1,0,0,1,31.28,21L20.79,31.23a1,1,0,0,1-1.42,0,1,1,0,0,1,0-1.41L29.88,19.53Z"/><path class="cls-202" d="M14.52,34.59a1,1,0,0,1,1.27,1.54l-.65.64a1,1,0,1,1-1.4-1.43l.65-.64Z"/><path class="cls-202" d="M19.82,62l.44,3.18a.5.5,0,0,1-.83.44L16.8,63.31a.49.49,0,0,0-.65,0l-1.57,1.32a.5.5,0,0,1-.82-.44l.35-3a.49.49,0,0,0-.21-.46l-1.71-1.23a.5.5,0,0,1,.21-.9l3-.48a.53.53,0,0,0,.34-.22l1.58-2.32a.5.5,0,0,1,.9.17l.55,2.57a.51.51,0,0,0,.37.38l2.66.66a.5.5,0,0,1,.15.91l-1.94,1.22A.51.51,0,0,0,19.82,62Z"/><path class="cls-202" d="M18,49.17,16.7,50.38a.28.28,0,0,1-.47-.24l.26-2a.29.29,0,0,0-.21-.31l-1.11-.31a.28.28,0,0,1-.05-.52l1.48-.77a.28.28,0,0,0,.15-.25l0-1.18a.29.29,0,0,1,.49-.19l1.19,1.26a.25.25,0,0,0,.2.09h1.58a.28.28,0,0,1,.21.47l-1,1.07a.28.28,0,0,0-.06.29l.54,1.45a.28.28,0,0,1-.38.35l-1.18-.51A.3.3,0,0,0,18,49.17Z"/></svg>