<?xml version="1.0" encoding="utf-8"?>
<!-- Generator: Adobe Illustrator 24.2.0, SVG Export Plug-In . SVG Version: 6.00 Build 0)  -->
<svg version="1.1" id="Layer_1" xmlns="http://www.w3.org/2000/svg" xmlns:xlink="http://www.w3.org/1999/xlink" x="0px" y="0px"
	 viewBox="0 0 50 90" enable-background="new 0 0 50 90" xml:space="preserve">
<path fill="#FFFFFF" d="M39.4,44.5c-0.1,0-0.3,0-0.4,0l-14.2-3.7c-0.5-0.1-0.9-0.7-0.7-1.2c0.1-0.5,0.7-0.9,1.2-0.7l14.2,3.7
	c0.5,0.1,0.9,0.7,0.7,1.2C40.1,44.1,39.8,44.4,39.4,44.5L39.4,44.5z"/>
<path fill="#FFFFFF" d="M18.4,39c-0.1,0-0.3,0-0.4,0l-0.9-0.2c-0.5-0.1-0.9-0.6-0.8-1.2c0.1-0.5,0.6-0.9,1.2-0.8c0.1,0,0.1,0,0.2,0
	l0.9,0.2c0.5,0.1,0.8,0.7,0.7,1.2C19.1,38.7,18.8,38.9,18.4,39z"/>
<path fill="#FFFFFF" d="M42,34.2h-0.2l-14.7,0.1c-0.6,0-1-0.4-1-1s0.4-1,1-1l14.7-0.1c0.6-0.1,1,0.4,1.1,0.9
	C43,33.7,42.6,34.2,42,34.2L42,34.2z"/>
<path fill="#FFFFFF" d="M20.4,34.4h-0.2h-0.9c-0.6,0-1-0.4-1-1s0.4-1,1-1h0.9c0.6,0,1,0.4,1,1C21.2,33.9,20.8,34.3,20.4,34.4z"/>
<path fill="#FFFFFF" d="M26,27.1c-0.5,0.1-1.1-0.2-1.2-0.8c-0.1-0.5,0.2-1,0.6-1.1l13.7-5.3c0.5-0.2,1.1,0.1,1.3,0.6
	s-0.1,1.1-0.6,1.3l0,0L26.2,27L26,27.1z"/>
<path fill="#FFFFFF" d="M18.6,29.9c-0.5,0.1-1.1-0.2-1.2-0.8c-0.1-0.5,0.2-1,0.6-1.1l0.9-0.3c0.5-0.2,1.1,0.1,1.3,0.6
	c0.2,0.5-0.1,1.1-0.6,1.3l-0.9,0.3C18.8,29.9,18.7,29.9,18.6,29.9z"/>
<path fill="#FFFFFF" d="M21.6,5.7l1.5-2c0.1-0.2,0.4-0.2,0.5-0.1c0.1,0.1,0.1,0.2,0.2,0.3L24,6.6C24,6.8,24.2,7,24.4,7L26,7.1
	c0.2,0,0.4,0.2,0.4,0.4c0,0.1-0.1,0.2-0.1,0.3l-1.8,1.4c-0.1,0.1-0.2,0.2-0.1,0.4l0.3,1.6c0,0.2-0.1,0.4-0.3,0.4
	c-0.1,0-0.2,0-0.3-0.1l-1.9-1.4C22.1,10,22,10,21.9,10l-2.1,0.4c-0.2,0-0.4-0.1-0.5-0.3c0-0.1,0-0.2,0.1-0.3l1.1-1.7
	c0.1-0.1,0.1-0.3,0-0.4L19.1,6c-0.1-0.2,0-0.4,0.1-0.5s0.2-0.1,0.3,0l1.7,0.4C21.4,5.9,21.6,5.8,21.6,5.7z"/>
<path fill="#FFFFFF" d="M15,16.3l1.7-0.6c0.1,0,0.3,0,0.4,0.2c0,0.1,0,0.2,0,0.2l-1,1.7c-0.1,0.1,0,0.3,0.1,0.4l0.9,0.7
	c0.1,0.1,0.2,0.3,0.1,0.4c0,0.1-0.1,0.1-0.2,0.1l-1.7,0.1c-0.1,0-0.2,0.1-0.2,0.2l-0.5,1.1c-0.1,0.1-0.2,0.2-0.4,0.2
	c-0.1,0-0.1-0.1-0.2-0.2l-0.6-1.6c0-0.1-0.1-0.1-0.1-0.2l-1.4-0.6c-0.1-0.1-0.2-0.2-0.2-0.4c0-0.1,0.1-0.1,0.2-0.2l1.4-0.6
	c0.1,0,0.2-0.1,0.2-0.2l0.1-1.5c0-0.2,0.1-0.3,0.3-0.3c0.1,0,0.2,0,0.2,0.1l0.9,0.9C14.8,16.3,14.9,16.3,15,16.3z"/>
<rect y="25" fill="none" width="10" height="40"/>
<rect fill="none" width="50" height="90"/>
</svg>
