<?xml version="1.0" encoding="utf-8"?>
<!-- Generator: Adobe Illustrator 24.1.0, SVG Export Plug-In . SVG Version: 6.00 Build 0)  -->
<svg version="1.1" id="Layer_1" xmlns="http://www.w3.org/2000/svg" xmlns:xlink="http://www.w3.org/1999/xlink" x="0px" y="0px"
	 width="32px" height="32px" viewBox="0 0 32 32" enable-background="new 0 0 32 32" xml:space="preserve">
<g>
	
		<polyline fill="none" stroke="#FFFFFF" stroke-width="3" stroke-linecap="round" stroke-linejoin="round" stroke-miterlimit="10" points="
		2,14 16,2 30,14 	"/>
	<path fill="#FFFFFF" d="M13,30v-5c0-1.7,1.3-3,3-3l0,0c1.7,0,3,1.3,3,3v5"/>
	
		<polyline fill="none" stroke="#FFFFFF" stroke-width="3" stroke-linecap="round" stroke-linejoin="round" stroke-miterlimit="10" points="
		6,16 6,30 26,30 26,16 	"/>
	<path fill="#FFFFFF" d="M16,12L16,12c1.7,0,3,1.3,3,3l0,0c0,1.7-1.3,3-3,3l0,0c-1.7,0-3-1.3-3-3l0,0C13,13.3,14.3,12,16,12z"/>
	
		<line fill="none" stroke="#FFFFFF" stroke-width="3" stroke-linecap="round" stroke-linejoin="round" stroke-miterlimit="10" x1="7" y1="9.2" x2="7" y2="4"/>
</g>
</svg>
