<?xml version="1.0" encoding="utf-8"?>
<!-- Generator: Adobe Illustrator 23.1.1, SVG Export Plug-In . SVG Version: 6.00 Build 0)  -->
<svg version="1.1" id="Layer_1" xmlns="http://www.w3.org/2000/svg" xmlns:xlink="http://www.w3.org/1999/xlink" x="0px" y="0px"
	 viewBox="0 0 48 32" style="enable-background:new 0 0 48 32;" xml:space="preserve">
<style type="text/css">
	.st0{fill:none;}
	.st1{fill:none;stroke:#C3CCD9;stroke-width:3;stroke-linecap:round;stroke-linejoin:round;stroke-miterlimit:10;}
</style>
<g>
	<rect class="st0" width="32" height="32"/>
	<path class="st1" d="M23.4,28.9c-3.3,1.2-13.2,3.3-18.6-2.9c-5.2-6-3-15.1,0.9-19.6c3.5-4.1,10.8-6,17.2-3.4s7.5,8.6,7.2,12.1
		c-0.2,3.5-1.3,7.2-4.8,7.5s-4-3-4.3-4.5c-0.2-1.6,0.6-8.3,0.6-8.3c-7.6-2.3-10.3,1.7-11.2,4.2c-0.8,2.5-1.1,6.4,2,8.1
		c3.1,1.7,7.3-0.5,8.5-4"/>
</g>
</svg>
