<svg id="Layer_1" data-name="Layer 1" xmlns="http://www.w3.org/2000/svg" viewBox="0 0 18 18"><defs><style>.cls-1{fill:#fff;}.cls-2{fill:#1fa28f;}</style></defs><title>question-light</title><rect class="cls-1" width="18" height="18" rx="3"/><path class="cls-2" d="M8.16,11.2a.52.52,0,0,1-.59-.58V10.4a1.8,1.8,0,0,1,.17-.79A2.43,2.43,0,0,1,8.17,9a5.73,5.73,0,0,1,.56-.54c.2-.17.38-.34.56-.51a2.68,2.68,0,0,0,.42-.55,1.19,1.19,0,0,0,.17-.65,1,1,0,0,0-.39-.82,1.4,1.4,0,0,0-1-.34,1.81,1.81,0,0,0-.58.09,3.21,3.21,0,0,0-.45.19A.89.89,0,0,1,7,6a.48.48,0,0,1-.38-.25l-.24-.35a.68.68,0,0,1-.15-.43.46.46,0,0,1,.25-.35,4.39,4.39,0,0,1,.87-.43,3.37,3.37,0,0,1,1.3-.22,3.67,3.67,0,0,1,1.14.18,3.53,3.53,0,0,1,1,.52,2.78,2.78,0,0,1,.69.83,2.32,2.32,0,0,1,.25,1.1,2.54,2.54,0,0,1-.16,1,3.34,3.34,0,0,1-.43.74,5.21,5.21,0,0,1-.56.59L10,9.39a3.25,3.25,0,0,0-.47.53,1.43,1.43,0,0,0-.24.63l0,.24a.58.58,0,0,1-.18.32.67.67,0,0,1-.38.09ZM7.57,13a.52.52,0,0,1,.59-.59h.56a.51.51,0,0,1,.57.59v.49a.51.51,0,0,1-.57.59H8.16a.52.52,0,0,1-.59-.59Z"/></svg>