<svg id="Layer_1" data-name="Layer 1" xmlns="http://www.w3.org/2000/svg" viewBox="0 0 18 18"><defs><style>.cls-1{fill:#2e343d;}.cls-2{fill:#fff;}</style></defs><title>question-dark</title><rect class="cls-1" width="18" height="18" rx="3"/><path class="cls-2" d="M8.17,11.35a.52.52,0,0,1-.59-.58v-.22a1.8,1.8,0,0,1,.17-.79,2.7,2.7,0,0,1,.43-.63,5.73,5.73,0,0,1,.56-.54c.2-.17.39-.34.56-.51a3.15,3.15,0,0,0,.43-.55,1.28,1.28,0,0,0,.16-.65,1,1,0,0,0-.39-.82,1.39,1.39,0,0,0-1-.34A1.83,1.83,0,0,0,8,5.81,3.21,3.21,0,0,0,7.5,6,.89.89,0,0,1,7,6.11a.48.48,0,0,1-.38-.25l-.24-.35a.68.68,0,0,1-.15-.43.45.45,0,0,1,.25-.35,4.39,4.39,0,0,1,.87-.43,3.4,3.4,0,0,1,1.3-.22,3.67,3.67,0,0,1,1.14.18,3.17,3.17,0,0,1,1,.52,2.64,2.64,0,0,1,.69.83,2.32,2.32,0,0,1,.26,1.1,2.53,2.53,0,0,1-.17,1,3,3,0,0,1-.43.74A5.21,5.21,0,0,1,10.6,9L10,9.53a3.78,3.78,0,0,0-.47.54,1.43,1.43,0,0,0-.24.63l0,.24a.58.58,0,0,1-.18.32.64.64,0,0,1-.38.09Zm-.59,1.79a.52.52,0,0,1,.59-.59h.56a.52.52,0,0,1,.58.59v.49a.52.52,0,0,1-.58.59H8.17a.52.52,0,0,1-.59-.59Z"/></svg>